<svg xmlns="http://www.w3.org/2000/svg" width="872" height="157" style="background:#0d1117;font-family:sans-serif;" shape-rendering="geometricPrecision">
<text x="24" y="10" fill="#c9d1d9" font-size="10">Jun</text>
<text x="40" y="10" fill="#c9d1d9" font-size="10">Jul</text>
<text x="104" y="10" fill="#c9d1d9" font-size="10">Aug</text>
<text x="168" y="10" fill="#c9d1d9" font-size="10">Sep</text>
<text x="248" y="10" fill="#c9d1d9" font-size="10">Oct</text>
<text x="312" y="10" fill="#c9d1d9" font-size="10">Nov</text>
<text x="376" y="10" fill="#c9d1d9" font-size="10">Dec</text>
<text x="456" y="10" fill="#c9d1d9" font-size="10">Jan</text>
<text x="520" y="10" fill="#c9d1d9" font-size="10">Feb</text>
<text x="584" y="10" fill="#c9d1d9" font-size="10">Mar</text>
<text x="664" y="10" fill="#c9d1d9" font-size="10">Apr</text>
<text x="728" y="10" fill="#c9d1d9" font-size="10">May</text>
<text x="792" y="10" fill="#c9d1d9" font-size="10">Jun</text>
<text x="0" y="23.666666666666664" fill="#c9d1d9" font-size="10">Mon</text>
<text x="0" y="55.666666666666664" fill="#c9d1d9" font-size="10">Wed</text>
<text x="0" y="87.66666666666667" fill="#c9d1d9" font-size="10">Fri</text>
<text x="0" y="119.66666666666667" fill="#c9d1d9" font-size="10">undefined</text>
<rect x="24" y="15" width="13" height="13" rx="3" ry="3" fill="#161b22"/>
<rect x="24" y="31" width="13" height="13" rx="3" ry="3" fill="#161b22"/>
<rect x="24" y="47" width="13" height="13" rx="3" ry="3" fill="#161b22"/>
<rect x="24" y="63" width="13" height="13" rx="3" ry="3" fill="#161b22"/>
<rect x="24" y="79" width="13" height="13" rx="3" ry="3" fill="#161b22"/>
<rect x="24" y="95" width="13" height="13" rx="3" ry="3" fill="#161b22"/>
<rect x="24" y="111" width="13" height="13" rx="3" ry="3" fill="#161b22"/>
<rect x="40" y="15" width="13" height="13" rx="3" ry="3" fill="#161b22"/>
<rect x="40" y="31" width="13" height="13" rx="3" ry="3" fill="#161b22"/>
<rect x="40" y="47" width="13" height="13" rx="3" ry="3" fill="#161b22"/>
<rect x="40" y="63" width="13" height="13" rx="3" ry="3" fill="#161b22"/>
<rect x="40" y="79" width="13" height="13" rx="3" ry="3" fill="#161b22"/>
<rect x="40" y="95" width="13" height="13" rx="3" ry="3" fill="#161b22"/>
<rect x="40" y="111" width="13" height="13" rx="3" ry="3" fill="#161b22"/>
<rect x="56" y="15" width="13" height="13" rx="3" ry="3" fill="#161b22"/>
<rect x="56" y="31" width="13" height="13" rx="3" ry="3" fill="#161b22"/>
<rect x="56" y="47" width="13" height="13" rx="3" ry="3" fill="#161b22"/>
<rect x="56" y="63" width="13" height="13" rx="3" ry="3" fill="#161b22"/>
<rect x="56" y="79" width="13" height="13" rx="3" ry="3" fill="#161b22"/>
<rect x="56" y="95" width="13" height="13" rx="3" ry="3" fill="#161b22"/>
<rect x="56" y="111" width="13" height="13" rx="3" ry="3" fill="#161b22"/>
<rect x="72" y="15" width="13" height="13" rx="3" ry="3" fill="#161b22"/>
<rect x="72" y="31" width="13" height="13" rx="3" ry="3" fill="#161b22"/>
<rect x="72" y="47" width="13" height="13" rx="3" ry="3" fill="#161b22"/>
<rect x="72" y="63" width="13" height="13" rx="3" ry="3" fill="#161b22"/>
<rect x="72" y="79" width="13" height="13" rx="3" ry="3" fill="#161b22"/>
<rect x="72" y="95" width="13" height="13" rx="3" ry="3" fill="#161b22"/>
<rect x="72" y="111" width="13" height="13" rx="3" ry="3" fill="#161b22"/>
<rect x="88" y="15" width="13" height="13" rx="3" ry="3" fill="#161b22"/>
<rect x="88" y="31" width="13" height="13" rx="3" ry="3" fill="#161b22"/>
<rect x="88" y="47" width="13" height="13" rx="3" ry="3" fill="#161b22"/>
<rect x="88" y="63" width="13" height="13" rx="3" ry="3" fill="#161b22"/>
<rect x="88" y="79" width="13" height="13" rx="3" ry="3" fill="#161b22"/>
<rect x="88" y="95" width="13" height="13" rx="3" ry="3" fill="#161b22"/>
<rect x="88" y="111" width="13" height="13" rx="3" ry="3" fill="#161b22"/>
<rect x="104" y="15" width="13" height="13" rx="3" ry="3" fill="#161b22"/>
<rect x="104" y="31" width="13" height="13" rx="3" ry="3" fill="#161b22"/>
<rect x="104" y="47" width="13" height="13" rx="3" ry="3" fill="#161b22"/>
<rect x="104" y="63" width="13" height="13" rx="3" ry="3" fill="#161b22"/>
<rect x="104" y="79" width="13" height="13" rx="3" ry="3" fill="#161b22"/>
<rect x="104" y="95" width="13" height="13" rx="3" ry="3" fill="#161b22"/>
<rect x="104" y="111" width="13" height="13" rx="3" ry="3" fill="#161b22"/>
<rect x="120" y="15" width="13" height="13" rx="3" ry="3" fill="#161b22"/>
<rect x="120" y="31" width="13" height="13" rx="3" ry="3" fill="#161b22"/>
<rect x="120" y="47" width="13" height="13" rx="3" ry="3" fill="#161b22"/>
<rect x="120" y="63" width="13" height="13" rx="3" ry="3" fill="#161b22"/>
<rect x="120" y="79" width="13" height="13" rx="3" ry="3" fill="#161b22"/>
<rect x="120" y="95" width="13" height="13" rx="3" ry="3" fill="#161b22"/>
<rect x="120" y="111" width="13" height="13" rx="3" ry="3" fill="#161b22"/>
<rect x="136" y="15" width="13" height="13" rx="3" ry="3" fill="#161b22"/>
<rect x="136" y="31" width="13" height="13" rx="3" ry="3" fill="#161b22"/>
<rect x="136" y="47" width="13" height="13" rx="3" ry="3" fill="#161b22"/>
<rect x="136" y="63" width="13" height="13" rx="3" ry="3" fill="#161b22"/>
<rect x="136" y="79" width="13" height="13" rx="3" ry="3" fill="#161b22"/>
<rect x="136" y="95" width="13" height="13" rx="3" ry="3" fill="#161b22"/>
<rect x="136" y="111" width="13" height="13" rx="3" ry="3" fill="#161b22"/>
<rect x="152" y="15" width="13" height="13" rx="3" ry="3" fill="#161b22"/>
<rect x="152" y="31" width="13" height="13" rx="3" ry="3" fill="#161b22"/>
<rect x="152" y="47" width="13" height="13" rx="3" ry="3" fill="#161b22"/>
<rect x="152" y="63" width="13" height="13" rx="3" ry="3" fill="#161b22"/>
<rect x="152" y="79" width="13" height="13" rx="3" ry="3" fill="#161b22"/>
<rect x="152" y="95" width="13" height="13" rx="3" ry="3" fill="#161b22"/>
<rect x="152" y="111" width="13" height="13" rx="3" ry="3" fill="#161b22"/>
<rect x="168" y="15" width="13" height="13" rx="3" ry="3" fill="#161b22"/>
<rect x="168" y="31" width="13" height="13" rx="3" ry="3" fill="#161b22"/>
<rect x="168" y="47" width="13" height="13" rx="3" ry="3" fill="#161b22"/>
<rect x="168" y="63" width="13" height="13" rx="3" ry="3" fill="#161b22"/>
<rect x="168" y="79" width="13" height="13" rx="3" ry="3" fill="#161b22"/>
<rect x="168" y="95" width="13" height="13" rx="3" ry="3" fill="#161b22"/>
<rect x="168" y="111" width="13" height="13" rx="3" ry="3" fill="#161b22"/>
<rect x="184" y="15" width="13" height="13" rx="3" ry="3" fill="#161b22"/>
<rect x="184" y="31" width="13" height="13" rx="3" ry="3" fill="#161b22"/>
<rect x="184" y="47" width="13" height="13" rx="3" ry="3" fill="#161b22"/>
<rect x="184" y="63" width="13" height="13" rx="3" ry="3" fill="#161b22"/>
<rect x="184" y="79" width="13" height="13" rx="3" ry="3" fill="#161b22"/>
<rect x="184" y="95" width="13" height="13" rx="3" ry="3" fill="#161b22"/>
<rect x="184" y="111" width="13" height="13" rx="3" ry="3" fill="#161b22"/>
<rect x="200" y="15" width="13" height="13" rx="3" ry="3" fill="#161b22"/>
<rect x="200" y="31" width="13" height="13" rx="3" ry="3" fill="#161b22"/>
<rect x="200" y="47" width="13" height="13" rx="3" ry="3" fill="#161b22"/>
<rect x="200" y="63" width="13" height="13" rx="3" ry="3" fill="#161b22"/>
<rect x="200" y="79" width="13" height="13" rx="3" ry="3" fill="#161b22"/>
<rect x="200" y="95" width="13" height="13" rx="3" ry="3" fill="#161b22"/>
<rect x="200" y="111" width="13" height="13" rx="3" ry="3" fill="#161b22"/>
<rect x="216" y="15" width="13" height="13" rx="3" ry="3" fill="#161b22"/>
<rect x="216" y="31" width="13" height="13" rx="3" ry="3" fill="#161b22"/>
<rect x="216" y="47" width="13" height="13" rx="3" ry="3" fill="#161b22"/>
<rect x="216" y="63" width="13" height="13" rx="3" ry="3" fill="#161b22"/>
<rect x="216" y="79" width="13" height="13" rx="3" ry="3" fill="#161b22"/>
<rect x="216" y="95" width="13" height="13" rx="3" ry="3" fill="#161b22"/>
<rect x="216" y="111" width="13" height="13" rx="3" ry="3" fill="#161b22"/>
<rect x="232" y="15" width="13" height="13" rx="3" ry="3" fill="#161b22"/>
<rect x="232" y="31" width="13" height="13" rx="3" ry="3" fill="#161b22"/>
<rect x="232" y="47" width="13" height="13" rx="3" ry="3" fill="#161b22"/>
<rect x="232" y="63" width="13" height="13" rx="3" ry="3" fill="#161b22"/>
<rect x="232" y="79" width="13" height="13" rx="3" ry="3" fill="#161b22"/>
<rect x="232" y="95" width="13" height="13" rx="3" ry="3" fill="#161b22"/>
<rect x="232" y="111" width="13" height="13" rx="3" ry="3" fill="#161b22"/>
<rect x="248" y="15" width="13" height="13" rx="3" ry="3" fill="#161b22"/>
<rect x="248" y="31" width="13" height="13" rx="3" ry="3" fill="#161b22"/>
<rect x="248" y="47" width="13" height="13" rx="3" ry="3" fill="#161b22"/>
<rect x="248" y="63" width="13" height="13" rx="3" ry="3" fill="#161b22"/>
<rect x="248" y="79" width="13" height="13" rx="3" ry="3" fill="#161b22"/>
<rect x="248" y="95" width="13" height="13" rx="3" ry="3" fill="#161b22"/>
<rect x="248" y="111" width="13" height="13" rx="3" ry="3" fill="#161b22"/>
<rect x="264" y="15" width="13" height="13" rx="3" ry="3" fill="#161b22"/>
<rect x="264" y="31" width="13" height="13" rx="3" ry="3" fill="#161b22"/>
<rect x="264" y="47" width="13" height="13" rx="3" ry="3" fill="#161b22"/>
<rect x="264" y="63" width="13" height="13" rx="3" ry="3" fill="#161b22"/>
<rect x="264" y="79" width="13" height="13" rx="3" ry="3" fill="#161b22"/>
<rect x="264" y="95" width="13" height="13" rx="3" ry="3" fill="#161b22"/>
<rect x="264" y="111" width="13" height="13" rx="3" ry="3" fill="#161b22"/>
<rect x="280" y="15" width="13" height="13" rx="3" ry="3" fill="#161b22"/>
<rect x="280" y="31" width="13" height="13" rx="3" ry="3" fill="#161b22"/>
<rect x="280" y="47" width="13" height="13" rx="3" ry="3" fill="#161b22"/>
<rect x="280" y="63" width="13" height="13" rx="3" ry="3" fill="#161b22"/>
<rect x="280" y="79" width="13" height="13" rx="3" ry="3" fill="#161b22"/>
<rect x="280" y="95" width="13" height="13" rx="3" ry="3" fill="#161b22"/>
<rect x="280" y="111" width="13" height="13" rx="3" ry="3" fill="#161b22"/>
<rect x="296" y="15" width="13" height="13" rx="3" ry="3" fill="#161b22"/>
<rect x="296" y="31" width="13" height="13" rx="3" ry="3" fill="#161b22"/>
<rect x="296" y="47" width="13" height="13" rx="3" ry="3" fill="#161b22"/>
<rect x="296" y="63" width="13" height="13" rx="3" ry="3" fill="#161b22"/>
<rect x="296" y="79" width="13" height="13" rx="3" ry="3" fill="#161b22"/>
<rect x="296" y="95" width="13" height="13" rx="3" ry="3" fill="#161b22"/>
<rect x="296" y="111" width="13" height="13" rx="3" ry="3" fill="#161b22"/>
<rect x="312" y="15" width="13" height="13" rx="3" ry="3" fill="#161b22"/>
<rect x="312" y="31" width="13" height="13" rx="3" ry="3" fill="#161b22"/>
<rect x="312" y="47" width="13" height="13" rx="3" ry="3" fill="#161b22"/>
<rect x="312" y="63" width="13" height="13" rx="3" ry="3" fill="#161b22"/>
<rect x="312" y="79" width="13" height="13" rx="3" ry="3" fill="#161b22"/>
<rect x="312" y="95" width="13" height="13" rx="3" ry="3" fill="#161b22"/>
<rect x="312" y="111" width="13" height="13" rx="3" ry="3" fill="#161b22"/>
<rect x="328" y="15" width="13" height="13" rx="3" ry="3" fill="#161b22"/>
<rect x="328" y="31" width="13" height="13" rx="3" ry="3" fill="#161b22"/>
<rect x="328" y="47" width="13" height="13" rx="3" ry="3" fill="#161b22"/>
<rect x="328" y="63" width="13" height="13" rx="3" ry="3" fill="#161b22"/>
<rect x="328" y="79" width="13" height="13" rx="3" ry="3" fill="#161b22"/>
<rect x="328" y="95" width="13" height="13" rx="3" ry="3" fill="#161b22"/>
<rect x="328" y="111" width="13" height="13" rx="3" ry="3" fill="#161b22"/>
<rect x="344" y="15" width="13" height="13" rx="3" ry="3" fill="#161b22"/>
<rect x="344" y="31" width="13" height="13" rx="3" ry="3" fill="#161b22"/>
<rect x="344" y="47" width="13" height="13" rx="3" ry="3" fill="#161b22"/>
<rect x="344" y="63" width="13" height="13" rx="3" ry="3" fill="#161b22"/>
<rect x="344" y="79" width="13" height="13" rx="3" ry="3" fill="#161b22"/>
<rect x="344" y="95" width="13" height="13" rx="3" ry="3" fill="#161b22"/>
<rect x="344" y="111" width="13" height="13" rx="3" ry="3" fill="#161b22"/>
<rect x="360" y="15" width="13" height="13" rx="3" ry="3" fill="#161b22"/>
<rect x="360" y="31" width="13" height="13" rx="3" ry="3" fill="#161b22"/>
<rect x="360" y="47" width="13" height="13" rx="3" ry="3" fill="#161b22"/>
<rect x="360" y="63" width="13" height="13" rx="3" ry="3" fill="#161b22"/>
<rect x="360" y="79" width="13" height="13" rx="3" ry="3" fill="#161b22"/>
<rect x="360" y="95" width="13" height="13" rx="3" ry="3" fill="#161b22"/>
<rect x="360" y="111" width="13" height="13" rx="3" ry="3" fill="#161b22"/>
<rect x="376" y="15" width="13" height="13" rx="3" ry="3" fill="#161b22"/>
<rect x="376" y="31" width="13" height="13" rx="3" ry="3" fill="#161b22"/>
<rect x="376" y="47" width="13" height="13" rx="3" ry="3" fill="#161b22"/>
<rect x="376" y="63" width="13" height="13" rx="3" ry="3" fill="#161b22"/>
<rect x="376" y="79" width="13" height="13" rx="3" ry="3" fill="#161b22"/>
<rect x="376" y="95" width="13" height="13" rx="3" ry="3" fill="#161b22"/>
<rect x="376" y="111" width="13" height="13" rx="3" ry="3" fill="#161b22"/>
<rect x="392" y="15" width="13" height="13" rx="3" ry="3" fill="#161b22"/>
<rect x="392" y="31" width="13" height="13" rx="3" ry="3" fill="#161b22"/>
<rect x="392" y="47" width="13" height="13" rx="3" ry="3" fill="#161b22"/>
<rect x="392" y="63" width="13" height="13" rx="3" ry="3" fill="#161b22"/>
<rect x="392" y="79" width="13" height="13" rx="3" ry="3" fill="#161b22"/>
<rect x="392" y="95" width="13" height="13" rx="3" ry="3" fill="#161b22"/>
<rect x="392" y="111" width="13" height="13" rx="3" ry="3" fill="#161b22"/>
<rect x="408" y="15" width="13" height="13" rx="3" ry="3" fill="#161b22"/>
<rect x="408" y="31" width="13" height="13" rx="3" ry="3" fill="#161b22"/>
<rect x="408" y="47" width="13" height="13" rx="3" ry="3" fill="#161b22"/>
<rect x="408" y="63" width="13" height="13" rx="3" ry="3" fill="#161b22"/>
<rect x="408" y="79" width="13" height="13" rx="3" ry="3" fill="#161b22"/>
<rect x="408" y="95" width="13" height="13" rx="3" ry="3" fill="#161b22"/>
<rect x="408" y="111" width="13" height="13" rx="3" ry="3" fill="#161b22"/>
<rect x="424" y="15" width="13" height="13" rx="3" ry="3" fill="#161b22"/>
<rect x="424" y="31" width="13" height="13" rx="3" ry="3" fill="#161b22"/>
<rect x="424" y="47" width="13" height="13" rx="3" ry="3" fill="#161b22"/>
<rect x="424" y="63" width="13" height="13" rx="3" ry="3" fill="#161b22"/>
<rect x="424" y="79" width="13" height="13" rx="3" ry="3" fill="#161b22"/>
<rect x="424" y="95" width="13" height="13" rx="3" ry="3" fill="#161b22"/>
<rect x="424" y="111" width="13" height="13" rx="3" ry="3" fill="#161b22"/>
<rect x="440" y="15" width="13" height="13" rx="3" ry="3" fill="#161b22"/>
<rect x="440" y="31" width="13" height="13" rx="3" ry="3" fill="#161b22"/>
<rect x="440" y="47" width="13" height="13" rx="3" ry="3" fill="#161b22"/>
<rect x="440" y="63" width="13" height="13" rx="3" ry="3" fill="#161b22"/>
<rect x="440" y="79" width="13" height="13" rx="3" ry="3" fill="#161b22"/>
<rect x="440" y="95" width="13" height="13" rx="3" ry="3" fill="#161b22"/>
<rect x="440" y="111" width="13" height="13" rx="3" ry="3" fill="#161b22"/>
<rect x="456" y="15" width="13" height="13" rx="3" ry="3" fill="#161b22"/>
<rect x="456" y="31" width="13" height="13" rx="3" ry="3" fill="#0e4429"/>
<rect x="456" y="47" width="13" height="13" rx="3" ry="3" fill="#161b22"/>
<rect x="456" y="63" width="13" height="13" rx="3" ry="3" fill="#161b22"/>
<rect x="456" y="79" width="13" height="13" rx="3" ry="3" fill="#161b22"/>
<rect x="456" y="95" width="13" height="13" rx="3" ry="3" fill="#006d32"/>
<rect x="456" y="111" width="13" height="13" rx="3" ry="3" fill="#0e4429"/>
<rect x="472" y="15" width="13" height="13" rx="3" ry="3" fill="#161b22"/>
<rect x="472" y="31" width="13" height="13" rx="3" ry="3" fill="#0e4429"/>
<rect x="472" y="47" width="13" height="13" rx="3" ry="3" fill="#161b22"/>
<rect x="472" y="63" width="13" height="13" rx="3" ry="3" fill="#161b22"/>
<rect x="472" y="79" width="13" height="13" rx="3" ry="3" fill="#161b22"/>
<rect x="472" y="95" width="13" height="13" rx="3" ry="3" fill="#0e4429"/>
<rect x="472" y="111" width="13" height="13" rx="3" ry="3" fill="#161b22"/>
<rect x="488" y="15" width="13" height="13" rx="3" ry="3" fill="#0e4429"/>
<rect x="488" y="31" width="13" height="13" rx="3" ry="3" fill="#0e4429"/>
<rect x="488" y="47" width="13" height="13" rx="3" ry="3" fill="#0e4429"/>
<rect x="488" y="63" width="13" height="13" rx="3" ry="3" fill="#161b22"/>
<rect x="488" y="79" width="13" height="13" rx="3" ry="3" fill="#0e4429"/>
<rect x="488" y="95" width="13" height="13" rx="3" ry="3" fill="#161b22"/>
<rect x="488" y="111" width="13" height="13" rx="3" ry="3" fill="#006d32"/>
<rect x="504" y="15" width="13" height="13" rx="3" ry="3" fill="#161b22"/>
<rect x="504" y="31" width="13" height="13" rx="3" ry="3" fill="#161b22"/>
<rect x="504" y="47" width="13" height="13" rx="3" ry="3" fill="#0e4429"/>
<rect x="504" y="63" width="13" height="13" rx="3" ry="3" fill="#161b22"/>
<rect x="504" y="79" width="13" height="13" rx="3" ry="3" fill="#161b22"/>
<rect x="504" y="95" width="13" height="13" rx="3" ry="3" fill="#006d32"/>
<rect x="504" y="111" width="13" height="13" rx="3" ry="3" fill="#0e4429"/>
<rect x="520" y="15" width="13" height="13" rx="3" ry="3" fill="#0e4429"/>
<rect x="520" y="31" width="13" height="13" rx="3" ry="3" fill="#161b22"/>
<rect x="520" y="47" width="13" height="13" rx="3" ry="3" fill="#161b22"/>
<rect x="520" y="63" width="13" height="13" rx="3" ry="3" fill="#006d32"/>
<rect x="520" y="79" width="13" height="13" rx="3" ry="3" fill="#161b22"/>
<rect x="520" y="95" width="13" height="13" rx="3" ry="3" fill="#161b22"/>
<rect x="520" y="111" width="13" height="13" rx="3" ry="3" fill="#161b22"/>
<rect x="536" y="15" width="13" height="13" rx="3" ry="3" fill="#161b22"/>
<rect x="536" y="31" width="13" height="13" rx="3" ry="3" fill="#0e4429"/>
<rect x="536" y="47" width="13" height="13" rx="3" ry="3" fill="#0e4429"/>
<rect x="536" y="63" width="13" height="13" rx="3" ry="3" fill="#0e4429"/>
<rect x="536" y="79" width="13" height="13" rx="3" ry="3" fill="#161b22"/>
<rect x="536" y="95" width="13" height="13" rx="3" ry="3" fill="#006d32"/>
<rect x="536" y="111" width="13" height="13" rx="3" ry="3" fill="#0e4429"/>
<rect x="552" y="15" width="13" height="13" rx="3" ry="3" fill="#0e4429"/>
<rect x="552" y="31" width="13" height="13" rx="3" ry="3" fill="#0e4429"/>
<rect x="552" y="47" width="13" height="13" rx="3" ry="3" fill="#161b22"/>
<rect x="552" y="63" width="13" height="13" rx="3" ry="3" fill="#006d32"/>
<rect x="552" y="79" width="13" height="13" rx="3" ry="3" fill="#0e4429"/>
<rect x="552" y="95" width="13" height="13" rx="3" ry="3" fill="#0e4429"/>
<rect x="552" y="111" width="13" height="13" rx="3" ry="3" fill="#161b22"/>
<rect x="568" y="15" width="13" height="13" rx="3" ry="3" fill="#161b22"/>
<rect x="568" y="31" width="13" height="13" rx="3" ry="3" fill="#161b22"/>
<rect x="568" y="47" width="13" height="13" rx="3" ry="3" fill="#161b22"/>
<rect x="568" y="63" width="13" height="13" rx="3" ry="3" fill="#161b22"/>
<rect x="568" y="79" width="13" height="13" rx="3" ry="3" fill="#161b22"/>
<rect x="568" y="95" width="13" height="13" rx="3" ry="3" fill="#161b22"/>
<rect x="568" y="111" width="13" height="13" rx="3" ry="3" fill="#161b22"/>
<rect x="584" y="15" width="13" height="13" rx="3" ry="3" fill="#006d32"/>
<rect x="584" y="31" width="13" height="13" rx="3" ry="3" fill="#161b22"/>
<rect x="584" y="47" width="13" height="13" rx="3" ry="3" fill="#161b22"/>
<rect x="584" y="63" width="13" height="13" rx="3" ry="3" fill="#0e4429"/>
<rect x="584" y="79" width="13" height="13" rx="3" ry="3" fill="#0e4429"/>
<rect x="584" y="95" width="13" height="13" rx="3" ry="3" fill="#161b22"/>
<rect x="584" y="111" width="13" height="13" rx="3" ry="3" fill="#006d32"/>
<rect x="600" y="15" width="13" height="13" rx="3" ry="3" fill="#161b22"/>
<rect x="600" y="31" width="13" height="13" rx="3" ry="3" fill="#0e4429"/>
<rect x="600" y="47" width="13" height="13" rx="3" ry="3" fill="#161b22"/>
<rect x="600" y="63" width="13" height="13" rx="3" ry="3" fill="#0e4429"/>
<rect x="600" y="79" width="13" height="13" rx="3" ry="3" fill="#161b22"/>
<rect x="600" y="95" width="13" height="13" rx="3" ry="3" fill="#161b22"/>
<rect x="600" y="111" width="13" height="13" rx="3" ry="3" fill="#006d32"/>
<rect x="616" y="15" width="13" height="13" rx="3" ry="3" fill="#0e4429"/>
<rect x="616" y="31" width="13" height="13" rx="3" ry="3" fill="#0e4429"/>
<rect x="616" y="47" width="13" height="13" rx="3" ry="3" fill="#161b22"/>
<rect x="616" y="63" width="13" height="13" rx="3" ry="3" fill="#006d32"/>
<rect x="616" y="79" width="13" height="13" rx="3" ry="3" fill="#0e4429"/>
<rect x="616" y="95" width="13" height="13" rx="3" ry="3" fill="#161b22"/>
<rect x="616" y="111" width="13" height="13" rx="3" ry="3" fill="#161b22"/>
<rect x="632" y="15" width="13" height="13" rx="3" ry="3" fill="#161b22"/>
<rect x="632" y="31" width="13" height="13" rx="3" ry="3" fill="#161b22"/>
<rect x="632" y="47" width="13" height="13" rx="3" ry="3" fill="#0e4429"/>
<rect x="632" y="63" width="13" height="13" rx="3" ry="3" fill="#161b22"/>
<rect x="632" y="79" width="13" height="13" rx="3" ry="3" fill="#0e4429"/>
<rect x="632" y="95" width="13" height="13" rx="3" ry="3" fill="#161b22"/>
<rect x="632" y="111" width="13" height="13" rx="3" ry="3" fill="#161b22"/>
<rect x="648" y="15" width="13" height="13" rx="3" ry="3" fill="#0e4429"/>
<rect x="648" y="31" width="13" height="13" rx="3" ry="3" fill="#161b22"/>
<rect x="648" y="47" width="13" height="13" rx="3" ry="3" fill="#161b22"/>
<rect x="648" y="63" width="13" height="13" rx="3" ry="3" fill="#161b22"/>
<rect x="648" y="79" width="13" height="13" rx="3" ry="3" fill="#0e4429"/>
<rect x="648" y="95" width="13" height="13" rx="3" ry="3" fill="#161b22"/>
<rect x="648" y="111" width="13" height="13" rx="3" ry="3" fill="#0e4429"/>
<rect x="664" y="15" width="13" height="13" rx="3" ry="3" fill="#161b22"/>
<rect x="664" y="31" width="13" height="13" rx="3" ry="3" fill="#0e4429"/>
<rect x="664" y="47" width="13" height="13" rx="3" ry="3" fill="#0e4429"/>
<rect x="664" y="63" width="13" height="13" rx="3" ry="3" fill="#006d32"/>
<rect x="664" y="79" width="13" height="13" rx="3" ry="3" fill="#0e4429"/>
<rect x="664" y="95" width="13" height="13" rx="3" ry="3" fill="#161b22"/>
<rect x="664" y="111" width="13" height="13" rx="3" ry="3" fill="#161b22"/>
<rect x="680" y="15" width="13" height="13" rx="3" ry="3" fill="#0e4429"/>
<rect x="680" y="31" width="13" height="13" rx="3" ry="3" fill="#0e4429"/>
<rect x="680" y="47" width="13" height="13" rx="3" ry="3" fill="#0e4429"/>
<rect x="680" y="63" width="13" height="13" rx="3" ry="3" fill="#161b22"/>
<rect x="680" y="79" width="13" height="13" rx="3" ry="3" fill="#161b22"/>
<rect x="680" y="95" width="13" height="13" rx="3" ry="3" fill="#161b22"/>
<rect x="680" y="111" width="13" height="13" rx="3" ry="3" fill="#161b22"/>
<rect x="696" y="15" width="13" height="13" rx="3" ry="3" fill="#161b22"/>
<rect x="696" y="31" width="13" height="13" rx="3" ry="3" fill="#006d32"/>
<rect x="696" y="47" width="13" height="13" rx="3" ry="3" fill="#161b22"/>
<rect x="696" y="63" width="13" height="13" rx="3" ry="3" fill="#0e4429"/>
<rect x="696" y="79" width="13" height="13" rx="3" ry="3" fill="#161b22"/>
<rect x="696" y="95" width="13" height="13" rx="3" ry="3" fill="#161b22"/>
<rect x="696" y="111" width="13" height="13" rx="3" ry="3" fill="#161b22"/>
<rect x="712" y="15" width="13" height="13" rx="3" ry="3" fill="#0e4429"/>
<rect x="712" y="31" width="13" height="13" rx="3" ry="3" fill="#0e4429"/>
<rect x="712" y="47" width="13" height="13" rx="3" ry="3" fill="#161b22"/>
<rect x="712" y="63" width="13" height="13" rx="3" ry="3" fill="#0e4429"/>
<rect x="712" y="79" width="13" height="13" rx="3" ry="3" fill="#006d32"/>
<rect x="712" y="95" width="13" height="13" rx="3" ry="3" fill="#0e4429"/>
<rect x="712" y="111" width="13" height="13" rx="3" ry="3" fill="#0e4429"/>
<rect x="728" y="15" width="13" height="13" rx="3" ry="3" fill="#161b22"/>
<rect x="728" y="31" width="13" height="13" rx="3" ry="3" fill="#006d32"/>
<rect x="728" y="47" width="13" height="13" rx="3" ry="3" fill="#006d32"/>
<rect x="728" y="63" width="13" height="13" rx="3" ry="3" fill="#161b22"/>
<rect x="728" y="79" width="13" height="13" rx="3" ry="3" fill="#0e4429"/>
<rect x="728" y="95" width="13" height="13" rx="3" ry="3" fill="#161b22"/>
<rect x="728" y="111" width="13" height="13" rx="3" ry="3" fill="#006d32"/>
<rect x="744" y="15" width="13" height="13" rx="3" ry="3" fill="#161b22"/>
<rect x="744" y="31" width="13" height="13" rx="3" ry="3" fill="#0e4429"/>
<rect x="744" y="47" width="13" height="13" rx="3" ry="3" fill="#0e4429"/>
<rect x="744" y="63" width="13" height="13" rx="3" ry="3" fill="#161b22"/>
<rect x="744" y="79" width="13" height="13" rx="3" ry="3" fill="#161b22"/>
<rect x="744" y="95" width="13" height="13" rx="3" ry="3" fill="#006d32"/>
<rect x="744" y="111" width="13" height="13" rx="3" ry="3" fill="#0e4429"/>
<rect x="760" y="15" width="13" height="13" rx="3" ry="3" fill="#0e4429"/>
<rect x="760" y="31" width="13" height="13" rx="3" ry="3" fill="#0e4429"/>
<rect x="760" y="47" width="13" height="13" rx="3" ry="3" fill="#0e4429"/>
<rect x="760" y="63" width="13" height="13" rx="3" ry="3" fill="#161b22"/>
<rect x="760" y="79" width="13" height="13" rx="3" ry="3" fill="#161b22"/>
<rect x="760" y="95" width="13" height="13" rx="3" ry="3" fill="#0e4429"/>
<rect x="760" y="111" width="13" height="13" rx="3" ry="3" fill="#161b22"/>
<rect x="776" y="15" width="13" height="13" rx="3" ry="3" fill="#0e4429"/>
<rect x="776" y="31" width="13" height="13" rx="3" ry="3" fill="#0e4429"/>
<rect x="776" y="47" width="13" height="13" rx="3" ry="3" fill="#161b22"/>
<rect x="776" y="63" width="13" height="13" rx="3" ry="3" fill="#161b22"/>
<rect x="776" y="79" width="13" height="13" rx="3" ry="3" fill="#161b22"/>
<rect x="776" y="95" width="13" height="13" rx="3" ry="3" fill="#0e4429"/>
<rect x="776" y="111" width="13" height="13" rx="3" ry="3" fill="#39d353"/>
<rect x="792" y="15" width="13" height="13" rx="3" ry="3" fill="#39d353"/>
<rect x="792" y="31" width="13" height="13" rx="3" ry="3" fill="#0e4429"/>
<rect x="792" y="47" width="13" height="13" rx="3" ry="3" fill="#39d353"/>
<rect x="792" y="63" width="13" height="13" rx="3" ry="3" fill="#39d353"/>
<rect x="792" y="79" width="13" height="13" rx="3" ry="3" fill="#26a641"/>
<rect x="792" y="95" width="13" height="13" rx="3" ry="3" fill="#0e4429"/>
<rect x="792" y="111" width="13" height="13" rx="3" ry="3" fill="#006d32"/>
<rect x="808" y="15" width="13" height="13" rx="3" ry="3" fill="#006d32"/>
<rect x="808" y="31" width="13" height="13" rx="3" ry="3" fill="#161b22"/>
<rect x="808" y="47" width="13" height="13" rx="3" ry="3" fill="#0e4429"/>
<rect x="808" y="63" width="13" height="13" rx="3" ry="3" fill="#0e4429"/>
<rect x="808" y="79" width="13" height="13" rx="3" ry="3" fill="#0e4429"/>
<rect x="808" y="95" width="13" height="13" rx="3" ry="3" fill="#39d353"/>
<rect x="808" y="111" width="13" height="13" rx="3" ry="3" fill="#39d353"/>
<rect x="824" y="15" width="13" height="13" rx="3" ry="3" fill="#26a641"/>
<rect x="824" y="31" width="13" height="13" rx="3" ry="3" fill="#39d353"/>
<rect x="824" y="47" width="13" height="13" rx="3" ry="3" fill="#39d353"/>
<rect x="824" y="63" width="13" height="13" rx="3" ry="3" fill="#26a641"/>
<rect x="824" y="79" width="13" height="13" rx="3" ry="3" fill="#39d353"/>
<rect x="824" y="95" width="13" height="13" rx="3" ry="3" fill="#39d353"/>
<rect x="824" y="111" width="13" height="13" rx="3" ry="3" fill="#39d353"/>
<rect x="840" y="15" width="13" height="13" rx="3" ry="3" fill="#39d353"/>
<rect x="840" y="31" width="13" height="13" rx="3" ry="3" fill="#26a641"/>
<rect x="840" y="47" width="13" height="13" rx="3" ry="3" fill="#39d353"/>
<rect x="840" y="63" width="13" height="13" rx="3" ry="3" fill="#39d353"/>
<rect x="840" y="79" width="13" height="13" rx="3" ry="3" fill="#26a641"/>
<rect x="840" y="95" width="13" height="13" rx="3" ry="3" fill="#006d32"/>
<rect x="840" y="111" width="13" height="13" rx="3" ry="3" fill="#0e4429"/>
<rect x="856" y="15" width="13" height="13" rx="3" ry="3" fill="#0e4429"/>
<rect x="856" y="31" width="13" height="13" rx="3" ry="3" fill="#006d32"/>
<rect x="856" y="47" width="13" height="13" rx="3" ry="3" fill="#39d353"/>
<rect x="856" y="63" width="13" height="13" rx="3" ry="3" fill="#161b22"/>
<text x="368.7" y="147" fill="#39d353" font-size="12" font-weight="bold">+4777</text>
<text x="409.7" y="147" fill="#c9d1d9" font-size="12">contributions</text>
</svg>