<svg xmlns="http://www.w3.org/2000/svg" width="883" height="159" style="background:#0d1117;font-family:sans-serif;" shape-rendering="geometricPrecision">
<text x="35" y="12" fill="#c9d1d9" font-size="15">Jul</text>
<text x="99" y="12" fill="#c9d1d9" font-size="15">Aug</text>
<text x="163" y="12" fill="#c9d1d9" font-size="15">Sep</text>
<text x="243" y="12" fill="#c9d1d9" font-size="15">Oct</text>
<text x="307" y="12" fill="#c9d1d9" font-size="15">Nov</text>
<text x="371" y="12" fill="#c9d1d9" font-size="15">Dec</text>
<text x="451" y="12" fill="#c9d1d9" font-size="15">Jan</text>
<text x="515" y="12" fill="#c9d1d9" font-size="15">Feb</text>
<text x="579" y="12" fill="#c9d1d9" font-size="15">Mar</text>
<text x="659" y="12" fill="#c9d1d9" font-size="15">Apr</text>
<text x="723" y="12" fill="#c9d1d9" font-size="15">May</text>
<text x="787" y="12" fill="#c9d1d9" font-size="15">Jun</text>
<text x="31" y="41" fill="#c9d1d9" font-size="15" text-anchor="end" dominant-baseline="middle">Mon</text>
<text x="31" y="73" fill="#c9d1d9" font-size="15" text-anchor="end" dominant-baseline="middle">Wed</text>
<text x="31" y="105" fill="#c9d1d9" font-size="15" text-anchor="end" dominant-baseline="middle">Fri</text>
<rect x="35" y="17" width="13" height="13" rx="3" ry="3" fill="#161b22"/>
<rect x="35" y="33" width="13" height="13" rx="3" ry="3" fill="#161b22"/>
<rect x="35" y="49" width="13" height="13" rx="3" ry="3" fill="#161b22"/>
<rect x="35" y="65" width="13" height="13" rx="3" ry="3" fill="#161b22"/>
<rect x="35" y="81" width="13" height="13" rx="3" ry="3" fill="#161b22"/>
<rect x="35" y="97" width="13" height="13" rx="3" ry="3" fill="#161b22"/>
<rect x="35" y="113" width="13" height="13" rx="3" ry="3" fill="#161b22"/>
<rect x="51" y="17" width="13" height="13" rx="3" ry="3" fill="#161b22"/>
<rect x="51" y="33" width="13" height="13" rx="3" ry="3" fill="#161b22"/>
<rect x="51" y="49" width="13" height="13" rx="3" ry="3" fill="#161b22"/>
<rect x="51" y="65" width="13" height="13" rx="3" ry="3" fill="#161b22"/>
<rect x="51" y="81" width="13" height="13" rx="3" ry="3" fill="#161b22"/>
<rect x="51" y="97" width="13" height="13" rx="3" ry="3" fill="#161b22"/>
<rect x="51" y="113" width="13" height="13" rx="3" ry="3" fill="#161b22"/>
<rect x="67" y="17" width="13" height="13" rx="3" ry="3" fill="#161b22"/>
<rect x="67" y="33" width="13" height="13" rx="3" ry="3" fill="#161b22"/>
<rect x="67" y="49" width="13" height="13" rx="3" ry="3" fill="#161b22"/>
<rect x="67" y="65" width="13" height="13" rx="3" ry="3" fill="#161b22"/>
<rect x="67" y="81" width="13" height="13" rx="3" ry="3" fill="#161b22"/>
<rect x="67" y="97" width="13" height="13" rx="3" ry="3" fill="#161b22"/>
<rect x="67" y="113" width="13" height="13" rx="3" ry="3" fill="#161b22"/>
<rect x="83" y="17" width="13" height="13" rx="3" ry="3" fill="#161b22"/>
<rect x="83" y="33" width="13" height="13" rx="3" ry="3" fill="#161b22"/>
<rect x="83" y="49" width="13" height="13" rx="3" ry="3" fill="#161b22"/>
<rect x="83" y="65" width="13" height="13" rx="3" ry="3" fill="#161b22"/>
<rect x="83" y="81" width="13" height="13" rx="3" ry="3" fill="#161b22"/>
<rect x="83" y="97" width="13" height="13" rx="3" ry="3" fill="#161b22"/>
<rect x="83" y="113" width="13" height="13" rx="3" ry="3" fill="#161b22"/>
<rect x="99" y="17" width="13" height="13" rx="3" ry="3" fill="#161b22"/>
<rect x="99" y="33" width="13" height="13" rx="3" ry="3" fill="#161b22"/>
<rect x="99" y="49" width="13" height="13" rx="3" ry="3" fill="#161b22"/>
<rect x="99" y="65" width="13" height="13" rx="3" ry="3" fill="#161b22"/>
<rect x="99" y="81" width="13" height="13" rx="3" ry="3" fill="#161b22"/>
<rect x="99" y="97" width="13" height="13" rx="3" ry="3" fill="#161b22"/>
<rect x="99" y="113" width="13" height="13" rx="3" ry="3" fill="#161b22"/>
<rect x="115" y="17" width="13" height="13" rx="3" ry="3" fill="#161b22"/>
<rect x="115" y="33" width="13" height="13" rx="3" ry="3" fill="#161b22"/>
<rect x="115" y="49" width="13" height="13" rx="3" ry="3" fill="#161b22"/>
<rect x="115" y="65" width="13" height="13" rx="3" ry="3" fill="#161b22"/>
<rect x="115" y="81" width="13" height="13" rx="3" ry="3" fill="#161b22"/>
<rect x="115" y="97" width="13" height="13" rx="3" ry="3" fill="#161b22"/>
<rect x="115" y="113" width="13" height="13" rx="3" ry="3" fill="#161b22"/>
<rect x="131" y="17" width="13" height="13" rx="3" ry="3" fill="#161b22"/>
<rect x="131" y="33" width="13" height="13" rx="3" ry="3" fill="#161b22"/>
<rect x="131" y="49" width="13" height="13" rx="3" ry="3" fill="#161b22"/>
<rect x="131" y="65" width="13" height="13" rx="3" ry="3" fill="#161b22"/>
<rect x="131" y="81" width="13" height="13" rx="3" ry="3" fill="#161b22"/>
<rect x="131" y="97" width="13" height="13" rx="3" ry="3" fill="#161b22"/>
<rect x="131" y="113" width="13" height="13" rx="3" ry="3" fill="#161b22"/>
<rect x="147" y="17" width="13" height="13" rx="3" ry="3" fill="#161b22"/>
<rect x="147" y="33" width="13" height="13" rx="3" ry="3" fill="#161b22"/>
<rect x="147" y="49" width="13" height="13" rx="3" ry="3" fill="#161b22"/>
<rect x="147" y="65" width="13" height="13" rx="3" ry="3" fill="#161b22"/>
<rect x="147" y="81" width="13" height="13" rx="3" ry="3" fill="#161b22"/>
<rect x="147" y="97" width="13" height="13" rx="3" ry="3" fill="#161b22"/>
<rect x="147" y="113" width="13" height="13" rx="3" ry="3" fill="#161b22"/>
<rect x="163" y="17" width="13" height="13" rx="3" ry="3" fill="#161b22"/>
<rect x="163" y="33" width="13" height="13" rx="3" ry="3" fill="#161b22"/>
<rect x="163" y="49" width="13" height="13" rx="3" ry="3" fill="#161b22"/>
<rect x="163" y="65" width="13" height="13" rx="3" ry="3" fill="#161b22"/>
<rect x="163" y="81" width="13" height="13" rx="3" ry="3" fill="#161b22"/>
<rect x="163" y="97" width="13" height="13" rx="3" ry="3" fill="#161b22"/>
<rect x="163" y="113" width="13" height="13" rx="3" ry="3" fill="#161b22"/>
<rect x="179" y="17" width="13" height="13" rx="3" ry="3" fill="#161b22"/>
<rect x="179" y="33" width="13" height="13" rx="3" ry="3" fill="#161b22"/>
<rect x="179" y="49" width="13" height="13" rx="3" ry="3" fill="#161b22"/>
<rect x="179" y="65" width="13" height="13" rx="3" ry="3" fill="#161b22"/>
<rect x="179" y="81" width="13" height="13" rx="3" ry="3" fill="#161b22"/>
<rect x="179" y="97" width="13" height="13" rx="3" ry="3" fill="#161b22"/>
<rect x="179" y="113" width="13" height="13" rx="3" ry="3" fill="#161b22"/>
<rect x="195" y="17" width="13" height="13" rx="3" ry="3" fill="#161b22"/>
<rect x="195" y="33" width="13" height="13" rx="3" ry="3" fill="#161b22"/>
<rect x="195" y="49" width="13" height="13" rx="3" ry="3" fill="#161b22"/>
<rect x="195" y="65" width="13" height="13" rx="3" ry="3" fill="#161b22"/>
<rect x="195" y="81" width="13" height="13" rx="3" ry="3" fill="#161b22"/>
<rect x="195" y="97" width="13" height="13" rx="3" ry="3" fill="#161b22"/>
<rect x="195" y="113" width="13" height="13" rx="3" ry="3" fill="#161b22"/>
<rect x="211" y="17" width="13" height="13" rx="3" ry="3" fill="#161b22"/>
<rect x="211" y="33" width="13" height="13" rx="3" ry="3" fill="#161b22"/>
<rect x="211" y="49" width="13" height="13" rx="3" ry="3" fill="#161b22"/>
<rect x="211" y="65" width="13" height="13" rx="3" ry="3" fill="#161b22"/>
<rect x="211" y="81" width="13" height="13" rx="3" ry="3" fill="#161b22"/>
<rect x="211" y="97" width="13" height="13" rx="3" ry="3" fill="#161b22"/>
<rect x="211" y="113" width="13" height="13" rx="3" ry="3" fill="#161b22"/>
<rect x="227" y="17" width="13" height="13" rx="3" ry="3" fill="#161b22"/>
<rect x="227" y="33" width="13" height="13" rx="3" ry="3" fill="#161b22"/>
<rect x="227" y="49" width="13" height="13" rx="3" ry="3" fill="#161b22"/>
<rect x="227" y="65" width="13" height="13" rx="3" ry="3" fill="#161b22"/>
<rect x="227" y="81" width="13" height="13" rx="3" ry="3" fill="#161b22"/>
<rect x="227" y="97" width="13" height="13" rx="3" ry="3" fill="#161b22"/>
<rect x="227" y="113" width="13" height="13" rx="3" ry="3" fill="#161b22"/>
<rect x="243" y="17" width="13" height="13" rx="3" ry="3" fill="#161b22"/>
<rect x="243" y="33" width="13" height="13" rx="3" ry="3" fill="#161b22"/>
<rect x="243" y="49" width="13" height="13" rx="3" ry="3" fill="#161b22"/>
<rect x="243" y="65" width="13" height="13" rx="3" ry="3" fill="#161b22"/>
<rect x="243" y="81" width="13" height="13" rx="3" ry="3" fill="#161b22"/>
<rect x="243" y="97" width="13" height="13" rx="3" ry="3" fill="#161b22"/>
<rect x="243" y="113" width="13" height="13" rx="3" ry="3" fill="#161b22"/>
<rect x="259" y="17" width="13" height="13" rx="3" ry="3" fill="#161b22"/>
<rect x="259" y="33" width="13" height="13" rx="3" ry="3" fill="#161b22"/>
<rect x="259" y="49" width="13" height="13" rx="3" ry="3" fill="#161b22"/>
<rect x="259" y="65" width="13" height="13" rx="3" ry="3" fill="#161b22"/>
<rect x="259" y="81" width="13" height="13" rx="3" ry="3" fill="#161b22"/>
<rect x="259" y="97" width="13" height="13" rx="3" ry="3" fill="#161b22"/>
<rect x="259" y="113" width="13" height="13" rx="3" ry="3" fill="#161b22"/>
<rect x="275" y="17" width="13" height="13" rx="3" ry="3" fill="#161b22"/>
<rect x="275" y="33" width="13" height="13" rx="3" ry="3" fill="#161b22"/>
<rect x="275" y="49" width="13" height="13" rx="3" ry="3" fill="#161b22"/>
<rect x="275" y="65" width="13" height="13" rx="3" ry="3" fill="#161b22"/>
<rect x="275" y="81" width="13" height="13" rx="3" ry="3" fill="#161b22"/>
<rect x="275" y="97" width="13" height="13" rx="3" ry="3" fill="#161b22"/>
<rect x="275" y="113" width="13" height="13" rx="3" ry="3" fill="#161b22"/>
<rect x="291" y="17" width="13" height="13" rx="3" ry="3" fill="#161b22"/>
<rect x="291" y="33" width="13" height="13" rx="3" ry="3" fill="#161b22"/>
<rect x="291" y="49" width="13" height="13" rx="3" ry="3" fill="#161b22"/>
<rect x="291" y="65" width="13" height="13" rx="3" ry="3" fill="#161b22"/>
<rect x="291" y="81" width="13" height="13" rx="3" ry="3" fill="#161b22"/>
<rect x="291" y="97" width="13" height="13" rx="3" ry="3" fill="#161b22"/>
<rect x="291" y="113" width="13" height="13" rx="3" ry="3" fill="#161b22"/>
<rect x="307" y="17" width="13" height="13" rx="3" ry="3" fill="#161b22"/>
<rect x="307" y="33" width="13" height="13" rx="3" ry="3" fill="#161b22"/>
<rect x="307" y="49" width="13" height="13" rx="3" ry="3" fill="#161b22"/>
<rect x="307" y="65" width="13" height="13" rx="3" ry="3" fill="#161b22"/>
<rect x="307" y="81" width="13" height="13" rx="3" ry="3" fill="#161b22"/>
<rect x="307" y="97" width="13" height="13" rx="3" ry="3" fill="#161b22"/>
<rect x="307" y="113" width="13" height="13" rx="3" ry="3" fill="#161b22"/>
<rect x="323" y="17" width="13" height="13" rx="3" ry="3" fill="#161b22"/>
<rect x="323" y="33" width="13" height="13" rx="3" ry="3" fill="#161b22"/>
<rect x="323" y="49" width="13" height="13" rx="3" ry="3" fill="#161b22"/>
<rect x="323" y="65" width="13" height="13" rx="3" ry="3" fill="#161b22"/>
<rect x="323" y="81" width="13" height="13" rx="3" ry="3" fill="#161b22"/>
<rect x="323" y="97" width="13" height="13" rx="3" ry="3" fill="#161b22"/>
<rect x="323" y="113" width="13" height="13" rx="3" ry="3" fill="#161b22"/>
<rect x="339" y="17" width="13" height="13" rx="3" ry="3" fill="#161b22"/>
<rect x="339" y="33" width="13" height="13" rx="3" ry="3" fill="#161b22"/>
<rect x="339" y="49" width="13" height="13" rx="3" ry="3" fill="#161b22"/>
<rect x="339" y="65" width="13" height="13" rx="3" ry="3" fill="#161b22"/>
<rect x="339" y="81" width="13" height="13" rx="3" ry="3" fill="#161b22"/>
<rect x="339" y="97" width="13" height="13" rx="3" ry="3" fill="#161b22"/>
<rect x="339" y="113" width="13" height="13" rx="3" ry="3" fill="#161b22"/>
<rect x="355" y="17" width="13" height="13" rx="3" ry="3" fill="#161b22"/>
<rect x="355" y="33" width="13" height="13" rx="3" ry="3" fill="#161b22"/>
<rect x="355" y="49" width="13" height="13" rx="3" ry="3" fill="#161b22"/>
<rect x="355" y="65" width="13" height="13" rx="3" ry="3" fill="#161b22"/>
<rect x="355" y="81" width="13" height="13" rx="3" ry="3" fill="#161b22"/>
<rect x="355" y="97" width="13" height="13" rx="3" ry="3" fill="#161b22"/>
<rect x="355" y="113" width="13" height="13" rx="3" ry="3" fill="#161b22"/>
<rect x="371" y="17" width="13" height="13" rx="3" ry="3" fill="#161b22"/>
<rect x="371" y="33" width="13" height="13" rx="3" ry="3" fill="#161b22"/>
<rect x="371" y="49" width="13" height="13" rx="3" ry="3" fill="#161b22"/>
<rect x="371" y="65" width="13" height="13" rx="3" ry="3" fill="#161b22"/>
<rect x="371" y="81" width="13" height="13" rx="3" ry="3" fill="#161b22"/>
<rect x="371" y="97" width="13" height="13" rx="3" ry="3" fill="#161b22"/>
<rect x="371" y="113" width="13" height="13" rx="3" ry="3" fill="#161b22"/>
<rect x="387" y="17" width="13" height="13" rx="3" ry="3" fill="#161b22"/>
<rect x="387" y="33" width="13" height="13" rx="3" ry="3" fill="#161b22"/>
<rect x="387" y="49" width="13" height="13" rx="3" ry="3" fill="#161b22"/>
<rect x="387" y="65" width="13" height="13" rx="3" ry="3" fill="#161b22"/>
<rect x="387" y="81" width="13" height="13" rx="3" ry="3" fill="#161b22"/>
<rect x="387" y="97" width="13" height="13" rx="3" ry="3" fill="#161b22"/>
<rect x="387" y="113" width="13" height="13" rx="3" ry="3" fill="#161b22"/>
<rect x="403" y="17" width="13" height="13" rx="3" ry="3" fill="#161b22"/>
<rect x="403" y="33" width="13" height="13" rx="3" ry="3" fill="#161b22"/>
<rect x="403" y="49" width="13" height="13" rx="3" ry="3" fill="#161b22"/>
<rect x="403" y="65" width="13" height="13" rx="3" ry="3" fill="#161b22"/>
<rect x="403" y="81" width="13" height="13" rx="3" ry="3" fill="#161b22"/>
<rect x="403" y="97" width="13" height="13" rx="3" ry="3" fill="#161b22"/>
<rect x="403" y="113" width="13" height="13" rx="3" ry="3" fill="#161b22"/>
<rect x="419" y="17" width="13" height="13" rx="3" ry="3" fill="#161b22"/>
<rect x="419" y="33" width="13" height="13" rx="3" ry="3" fill="#161b22"/>
<rect x="419" y="49" width="13" height="13" rx="3" ry="3" fill="#161b22"/>
<rect x="419" y="65" width="13" height="13" rx="3" ry="3" fill="#161b22"/>
<rect x="419" y="81" width="13" height="13" rx="3" ry="3" fill="#161b22"/>
<rect x="419" y="97" width="13" height="13" rx="3" ry="3" fill="#161b22"/>
<rect x="419" y="113" width="13" height="13" rx="3" ry="3" fill="#161b22"/>
<rect x="435" y="17" width="13" height="13" rx="3" ry="3" fill="#161b22"/>
<rect x="435" y="33" width="13" height="13" rx="3" ry="3" fill="#161b22"/>
<rect x="435" y="49" width="13" height="13" rx="3" ry="3" fill="#161b22"/>
<rect x="435" y="65" width="13" height="13" rx="3" ry="3" fill="#161b22"/>
<rect x="435" y="81" width="13" height="13" rx="3" ry="3" fill="#161b22"/>
<rect x="435" y="97" width="13" height="13" rx="3" ry="3" fill="#161b22"/>
<rect x="435" y="113" width="13" height="13" rx="3" ry="3" fill="#161b22"/>
<rect x="451" y="17" width="13" height="13" rx="3" ry="3" fill="#161b22"/>
<rect x="451" y="33" width="13" height="13" rx="3" ry="3" fill="#161b22"/>
<rect x="451" y="49" width="13" height="13" rx="3" ry="3" fill="#161b22"/>
<rect x="451" y="65" width="13" height="13" rx="3" ry="3" fill="#161b22"/>
<rect x="451" y="81" width="13" height="13" rx="3" ry="3" fill="#161b22"/>
<rect x="451" y="97" width="13" height="13" rx="3" ry="3" fill="#161b22"/>
<rect x="451" y="113" width="13" height="13" rx="3" ry="3" fill="#161b22"/>
<rect x="467" y="17" width="13" height="13" rx="3" ry="3" fill="#161b22"/>
<rect x="467" y="33" width="13" height="13" rx="3" ry="3" fill="#0e4429"/>
<rect x="467" y="49" width="13" height="13" rx="3" ry="3" fill="#161b22"/>
<rect x="467" y="65" width="13" height="13" rx="3" ry="3" fill="#161b22"/>
<rect x="467" y="81" width="13" height="13" rx="3" ry="3" fill="#161b22"/>
<rect x="467" y="97" width="13" height="13" rx="3" ry="3" fill="#006d32"/>
<rect x="467" y="113" width="13" height="13" rx="3" ry="3" fill="#0e4429"/>
<rect x="483" y="17" width="13" height="13" rx="3" ry="3" fill="#161b22"/>
<rect x="483" y="33" width="13" height="13" rx="3" ry="3" fill="#0e4429"/>
<rect x="483" y="49" width="13" height="13" rx="3" ry="3" fill="#161b22"/>
<rect x="483" y="65" width="13" height="13" rx="3" ry="3" fill="#161b22"/>
<rect x="483" y="81" width="13" height="13" rx="3" ry="3" fill="#161b22"/>
<rect x="483" y="97" width="13" height="13" rx="3" ry="3" fill="#0e4429"/>
<rect x="483" y="113" width="13" height="13" rx="3" ry="3" fill="#161b22"/>
<rect x="499" y="17" width="13" height="13" rx="3" ry="3" fill="#0e4429"/>
<rect x="499" y="33" width="13" height="13" rx="3" ry="3" fill="#0e4429"/>
<rect x="499" y="49" width="13" height="13" rx="3" ry="3" fill="#0e4429"/>
<rect x="499" y="65" width="13" height="13" rx="3" ry="3" fill="#161b22"/>
<rect x="499" y="81" width="13" height="13" rx="3" ry="3" fill="#0e4429"/>
<rect x="499" y="97" width="13" height="13" rx="3" ry="3" fill="#161b22"/>
<rect x="499" y="113" width="13" height="13" rx="3" ry="3" fill="#006d32"/>
<rect x="515" y="17" width="13" height="13" rx="3" ry="3" fill="#161b22"/>
<rect x="515" y="33" width="13" height="13" rx="3" ry="3" fill="#161b22"/>
<rect x="515" y="49" width="13" height="13" rx="3" ry="3" fill="#0e4429"/>
<rect x="515" y="65" width="13" height="13" rx="3" ry="3" fill="#161b22"/>
<rect x="515" y="81" width="13" height="13" rx="3" ry="3" fill="#161b22"/>
<rect x="515" y="97" width="13" height="13" rx="3" ry="3" fill="#006d32"/>
<rect x="515" y="113" width="13" height="13" rx="3" ry="3" fill="#0e4429"/>
<rect x="531" y="17" width="13" height="13" rx="3" ry="3" fill="#0e4429"/>
<rect x="531" y="33" width="13" height="13" rx="3" ry="3" fill="#161b22"/>
<rect x="531" y="49" width="13" height="13" rx="3" ry="3" fill="#161b22"/>
<rect x="531" y="65" width="13" height="13" rx="3" ry="3" fill="#006d32"/>
<rect x="531" y="81" width="13" height="13" rx="3" ry="3" fill="#161b22"/>
<rect x="531" y="97" width="13" height="13" rx="3" ry="3" fill="#161b22"/>
<rect x="531" y="113" width="13" height="13" rx="3" ry="3" fill="#161b22"/>
<rect x="547" y="17" width="13" height="13" rx="3" ry="3" fill="#161b22"/>
<rect x="547" y="33" width="13" height="13" rx="3" ry="3" fill="#0e4429"/>
<rect x="547" y="49" width="13" height="13" rx="3" ry="3" fill="#0e4429"/>
<rect x="547" y="65" width="13" height="13" rx="3" ry="3" fill="#0e4429"/>
<rect x="547" y="81" width="13" height="13" rx="3" ry="3" fill="#161b22"/>
<rect x="547" y="97" width="13" height="13" rx="3" ry="3" fill="#006d32"/>
<rect x="547" y="113" width="13" height="13" rx="3" ry="3" fill="#0e4429"/>
<rect x="563" y="17" width="13" height="13" rx="3" ry="3" fill="#0e4429"/>
<rect x="563" y="33" width="13" height="13" rx="3" ry="3" fill="#0e4429"/>
<rect x="563" y="49" width="13" height="13" rx="3" ry="3" fill="#161b22"/>
<rect x="563" y="65" width="13" height="13" rx="3" ry="3" fill="#006d32"/>
<rect x="563" y="81" width="13" height="13" rx="3" ry="3" fill="#0e4429"/>
<rect x="563" y="97" width="13" height="13" rx="3" ry="3" fill="#0e4429"/>
<rect x="563" y="113" width="13" height="13" rx="3" ry="3" fill="#161b22"/>
<rect x="579" y="17" width="13" height="13" rx="3" ry="3" fill="#161b22"/>
<rect x="579" y="33" width="13" height="13" rx="3" ry="3" fill="#161b22"/>
<rect x="579" y="49" width="13" height="13" rx="3" ry="3" fill="#161b22"/>
<rect x="579" y="65" width="13" height="13" rx="3" ry="3" fill="#161b22"/>
<rect x="579" y="81" width="13" height="13" rx="3" ry="3" fill="#161b22"/>
<rect x="579" y="97" width="13" height="13" rx="3" ry="3" fill="#161b22"/>
<rect x="579" y="113" width="13" height="13" rx="3" ry="3" fill="#161b22"/>
<rect x="595" y="17" width="13" height="13" rx="3" ry="3" fill="#006d32"/>
<rect x="595" y="33" width="13" height="13" rx="3" ry="3" fill="#161b22"/>
<rect x="595" y="49" width="13" height="13" rx="3" ry="3" fill="#161b22"/>
<rect x="595" y="65" width="13" height="13" rx="3" ry="3" fill="#0e4429"/>
<rect x="595" y="81" width="13" height="13" rx="3" ry="3" fill="#0e4429"/>
<rect x="595" y="97" width="13" height="13" rx="3" ry="3" fill="#161b22"/>
<rect x="595" y="113" width="13" height="13" rx="3" ry="3" fill="#006d32"/>
<rect x="611" y="17" width="13" height="13" rx="3" ry="3" fill="#161b22"/>
<rect x="611" y="33" width="13" height="13" rx="3" ry="3" fill="#0e4429"/>
<rect x="611" y="49" width="13" height="13" rx="3" ry="3" fill="#161b22"/>
<rect x="611" y="65" width="13" height="13" rx="3" ry="3" fill="#0e4429"/>
<rect x="611" y="81" width="13" height="13" rx="3" ry="3" fill="#161b22"/>
<rect x="611" y="97" width="13" height="13" rx="3" ry="3" fill="#161b22"/>
<rect x="611" y="113" width="13" height="13" rx="3" ry="3" fill="#006d32"/>
<rect x="627" y="17" width="13" height="13" rx="3" ry="3" fill="#0e4429"/>
<rect x="627" y="33" width="13" height="13" rx="3" ry="3" fill="#0e4429"/>
<rect x="627" y="49" width="13" height="13" rx="3" ry="3" fill="#161b22"/>
<rect x="627" y="65" width="13" height="13" rx="3" ry="3" fill="#006d32"/>
<rect x="627" y="81" width="13" height="13" rx="3" ry="3" fill="#0e4429"/>
<rect x="627" y="97" width="13" height="13" rx="3" ry="3" fill="#161b22"/>
<rect x="627" y="113" width="13" height="13" rx="3" ry="3" fill="#161b22"/>
<rect x="643" y="17" width="13" height="13" rx="3" ry="3" fill="#161b22"/>
<rect x="643" y="33" width="13" height="13" rx="3" ry="3" fill="#161b22"/>
<rect x="643" y="49" width="13" height="13" rx="3" ry="3" fill="#0e4429"/>
<rect x="643" y="65" width="13" height="13" rx="3" ry="3" fill="#161b22"/>
<rect x="643" y="81" width="13" height="13" rx="3" ry="3" fill="#0e4429"/>
<rect x="643" y="97" width="13" height="13" rx="3" ry="3" fill="#161b22"/>
<rect x="643" y="113" width="13" height="13" rx="3" ry="3" fill="#161b22"/>
<rect x="659" y="17" width="13" height="13" rx="3" ry="3" fill="#0e4429"/>
<rect x="659" y="33" width="13" height="13" rx="3" ry="3" fill="#161b22"/>
<rect x="659" y="49" width="13" height="13" rx="3" ry="3" fill="#161b22"/>
<rect x="659" y="65" width="13" height="13" rx="3" ry="3" fill="#161b22"/>
<rect x="659" y="81" width="13" height="13" rx="3" ry="3" fill="#0e4429"/>
<rect x="659" y="97" width="13" height="13" rx="3" ry="3" fill="#161b22"/>
<rect x="659" y="113" width="13" height="13" rx="3" ry="3" fill="#0e4429"/>
<rect x="675" y="17" width="13" height="13" rx="3" ry="3" fill="#161b22"/>
<rect x="675" y="33" width="13" height="13" rx="3" ry="3" fill="#0e4429"/>
<rect x="675" y="49" width="13" height="13" rx="3" ry="3" fill="#0e4429"/>
<rect x="675" y="65" width="13" height="13" rx="3" ry="3" fill="#006d32"/>
<rect x="675" y="81" width="13" height="13" rx="3" ry="3" fill="#0e4429"/>
<rect x="675" y="97" width="13" height="13" rx="3" ry="3" fill="#161b22"/>
<rect x="675" y="113" width="13" height="13" rx="3" ry="3" fill="#161b22"/>
<rect x="691" y="17" width="13" height="13" rx="3" ry="3" fill="#0e4429"/>
<rect x="691" y="33" width="13" height="13" rx="3" ry="3" fill="#0e4429"/>
<rect x="691" y="49" width="13" height="13" rx="3" ry="3" fill="#0e4429"/>
<rect x="691" y="65" width="13" height="13" rx="3" ry="3" fill="#161b22"/>
<rect x="691" y="81" width="13" height="13" rx="3" ry="3" fill="#161b22"/>
<rect x="691" y="97" width="13" height="13" rx="3" ry="3" fill="#161b22"/>
<rect x="691" y="113" width="13" height="13" rx="3" ry="3" fill="#161b22"/>
<rect x="707" y="17" width="13" height="13" rx="3" ry="3" fill="#161b22"/>
<rect x="707" y="33" width="13" height="13" rx="3" ry="3" fill="#006d32"/>
<rect x="707" y="49" width="13" height="13" rx="3" ry="3" fill="#161b22"/>
<rect x="707" y="65" width="13" height="13" rx="3" ry="3" fill="#0e4429"/>
<rect x="707" y="81" width="13" height="13" rx="3" ry="3" fill="#161b22"/>
<rect x="707" y="97" width="13" height="13" rx="3" ry="3" fill="#161b22"/>
<rect x="707" y="113" width="13" height="13" rx="3" ry="3" fill="#161b22"/>
<rect x="723" y="17" width="13" height="13" rx="3" ry="3" fill="#0e4429"/>
<rect x="723" y="33" width="13" height="13" rx="3" ry="3" fill="#0e4429"/>
<rect x="723" y="49" width="13" height="13" rx="3" ry="3" fill="#161b22"/>
<rect x="723" y="65" width="13" height="13" rx="3" ry="3" fill="#0e4429"/>
<rect x="723" y="81" width="13" height="13" rx="3" ry="3" fill="#006d32"/>
<rect x="723" y="97" width="13" height="13" rx="3" ry="3" fill="#0e4429"/>
<rect x="723" y="113" width="13" height="13" rx="3" ry="3" fill="#0e4429"/>
<rect x="739" y="17" width="13" height="13" rx="3" ry="3" fill="#161b22"/>
<rect x="739" y="33" width="13" height="13" rx="3" ry="3" fill="#006d32"/>
<rect x="739" y="49" width="13" height="13" rx="3" ry="3" fill="#006d32"/>
<rect x="739" y="65" width="13" height="13" rx="3" ry="3" fill="#161b22"/>
<rect x="739" y="81" width="13" height="13" rx="3" ry="3" fill="#0e4429"/>
<rect x="739" y="97" width="13" height="13" rx="3" ry="3" fill="#161b22"/>
<rect x="739" y="113" width="13" height="13" rx="3" ry="3" fill="#006d32"/>
<rect x="755" y="17" width="13" height="13" rx="3" ry="3" fill="#161b22"/>
<rect x="755" y="33" width="13" height="13" rx="3" ry="3" fill="#0e4429"/>
<rect x="755" y="49" width="13" height="13" rx="3" ry="3" fill="#0e4429"/>
<rect x="755" y="65" width="13" height="13" rx="3" ry="3" fill="#161b22"/>
<rect x="755" y="81" width="13" height="13" rx="3" ry="3" fill="#161b22"/>
<rect x="755" y="97" width="13" height="13" rx="3" ry="3" fill="#006d32"/>
<rect x="755" y="113" width="13" height="13" rx="3" ry="3" fill="#0e4429"/>
<rect x="771" y="17" width="13" height="13" rx="3" ry="3" fill="#0e4429"/>
<rect x="771" y="33" width="13" height="13" rx="3" ry="3" fill="#0e4429"/>
<rect x="771" y="49" width="13" height="13" rx="3" ry="3" fill="#0e4429"/>
<rect x="771" y="65" width="13" height="13" rx="3" ry="3" fill="#161b22"/>
<rect x="771" y="81" width="13" height="13" rx="3" ry="3" fill="#161b22"/>
<rect x="771" y="97" width="13" height="13" rx="3" ry="3" fill="#0e4429"/>
<rect x="771" y="113" width="13" height="13" rx="3" ry="3" fill="#161b22"/>
<rect x="787" y="17" width="13" height="13" rx="3" ry="3" fill="#0e4429"/>
<rect x="787" y="33" width="13" height="13" rx="3" ry="3" fill="#0e4429"/>
<rect x="787" y="49" width="13" height="13" rx="3" ry="3" fill="#161b22"/>
<rect x="787" y="65" width="13" height="13" rx="3" ry="3" fill="#161b22"/>
<rect x="787" y="81" width="13" height="13" rx="3" ry="3" fill="#161b22"/>
<rect x="787" y="97" width="13" height="13" rx="3" ry="3" fill="#0e4429"/>
<rect x="787" y="113" width="13" height="13" rx="3" ry="3" fill="#39d353"/>
<rect x="803" y="17" width="13" height="13" rx="3" ry="3" fill="#39d353"/>
<rect x="803" y="33" width="13" height="13" rx="3" ry="3" fill="#0e4429"/>
<rect x="803" y="49" width="13" height="13" rx="3" ry="3" fill="#39d353"/>
<rect x="803" y="65" width="13" height="13" rx="3" ry="3" fill="#39d353"/>
<rect x="803" y="81" width="13" height="13" rx="3" ry="3" fill="#26a641"/>
<rect x="803" y="97" width="13" height="13" rx="3" ry="3" fill="#0e4429"/>
<rect x="803" y="113" width="13" height="13" rx="3" ry="3" fill="#006d32"/>
<rect x="819" y="17" width="13" height="13" rx="3" ry="3" fill="#006d32"/>
<rect x="819" y="33" width="13" height="13" rx="3" ry="3" fill="#161b22"/>
<rect x="819" y="49" width="13" height="13" rx="3" ry="3" fill="#0e4429"/>
<rect x="819" y="65" width="13" height="13" rx="3" ry="3" fill="#0e4429"/>
<rect x="819" y="81" width="13" height="13" rx="3" ry="3" fill="#0e4429"/>
<rect x="819" y="97" width="13" height="13" rx="3" ry="3" fill="#39d353"/>
<rect x="819" y="113" width="13" height="13" rx="3" ry="3" fill="#39d353"/>
<rect x="835" y="17" width="13" height="13" rx="3" ry="3" fill="#26a641"/>
<rect x="835" y="33" width="13" height="13" rx="3" ry="3" fill="#39d353"/>
<rect x="835" y="49" width="13" height="13" rx="3" ry="3" fill="#39d353"/>
<rect x="835" y="65" width="13" height="13" rx="3" ry="3" fill="#26a641"/>
<rect x="835" y="81" width="13" height="13" rx="3" ry="3" fill="#39d353"/>
<rect x="835" y="97" width="13" height="13" rx="3" ry="3" fill="#39d353"/>
<rect x="835" y="113" width="13" height="13" rx="3" ry="3" fill="#39d353"/>
<rect x="851" y="17" width="13" height="13" rx="3" ry="3" fill="#39d353"/>
<rect x="851" y="33" width="13" height="13" rx="3" ry="3" fill="#26a641"/>
<rect x="851" y="49" width="13" height="13" rx="3" ry="3" fill="#39d353"/>
<rect x="851" y="65" width="13" height="13" rx="3" ry="3" fill="#39d353"/>
<rect x="851" y="81" width="13" height="13" rx="3" ry="3" fill="#26a641"/>
<rect x="851" y="97" width="13" height="13" rx="3" ry="3" fill="#006d32"/>
<rect x="851" y="113" width="13" height="13" rx="3" ry="3" fill="#0e4429"/>
<rect x="867" y="17" width="13" height="13" rx="3" ry="3" fill="#0e4429"/>
<rect x="867" y="33" width="13" height="13" rx="3" ry="3" fill="#006d32"/>
<rect x="867" y="49" width="13" height="13" rx="3" ry="3" fill="#39d353"/>
<rect x="867" y="65" width="13" height="13" rx="3" ry="3" fill="#0e4429"/>
<text x="374.2" y="149" fill="#39d353" font-size="12" font-weight="bold">+4794</text>
<text x="415.2" y="149" fill="#c9d1d9" font-size="12">contributions</text>
</svg>