<svg xmlns="http://www.w3.org/2000/svg" width="472" height="164" style="background:#0D111700;font-family: -apple-system, BlinkMacSystemFont, 'Segoe UI', Roboto, 'Helvetica Neue', Arial, sans-serif;" shape-rendering="geometricPrecision">
<text x="24" y="17" fill="#c9d1d9" font-size="15">Jan</text>
<text x="104" y="17" fill="#c9d1d9" font-size="15">Feb</text>
<text x="168" y="17" fill="#c9d1d9" font-size="15">Mar</text>
<text x="248" y="17" fill="#c9d1d9" font-size="15">Apr</text>
<text x="312" y="17" fill="#c9d1d9" font-size="15">May</text>
<text x="376" y="17" fill="#c9d1d9" font-size="15">Jun</text>
<text x="4" y="46" fill="#c9d1d9" font-size="15" dominant-baseline="middle">Mon</text>
<text x="4" y="78" fill="#c9d1d9" font-size="15" dominant-baseline="middle">Wed</text>
<text x="4" y="110" fill="#c9d1d9" font-size="15" dominant-baseline="middle">Fri</text>
<rect x="40" y="22" width="13" height="13" rx="3" ry="3" fill="#161b22"/>
<rect x="40" y="38" width="13" height="13" rx="3" ry="3" fill="#161b22"/>
<rect x="40" y="54" width="13" height="13" rx="3" ry="3" fill="#161b22"/>
<rect x="40" y="70" width="13" height="13" rx="3" ry="3" fill="#161b22"/>
<rect x="56" y="22" width="13" height="13" rx="3" ry="3" fill="#161b22"/>
<rect x="56" y="38" width="13" height="13" rx="3" ry="3" fill="#0e4429"/>
<rect x="56" y="54" width="13" height="13" rx="3" ry="3" fill="#161b22"/>
<rect x="56" y="70" width="13" height="13" rx="3" ry="3" fill="#161b22"/>
<rect x="56" y="86" width="13" height="13" rx="3" ry="3" fill="#161b22"/>
<rect x="56" y="102" width="13" height="13" rx="3" ry="3" fill="#006d32"/>
<rect x="56" y="118" width="13" height="13" rx="3" ry="3" fill="#0e4429"/>
<rect x="72" y="22" width="13" height="13" rx="3" ry="3" fill="#161b22"/>
<rect x="72" y="38" width="13" height="13" rx="3" ry="3" fill="#0e4429"/>
<rect x="72" y="54" width="13" height="13" rx="3" ry="3" fill="#161b22"/>
<rect x="72" y="70" width="13" height="13" rx="3" ry="3" fill="#161b22"/>
<rect x="72" y="86" width="13" height="13" rx="3" ry="3" fill="#161b22"/>
<rect x="72" y="102" width="13" height="13" rx="3" ry="3" fill="#0e4429"/>
<rect x="72" y="118" width="13" height="13" rx="3" ry="3" fill="#161b22"/>
<rect x="88" y="22" width="13" height="13" rx="3" ry="3" fill="#0e4429"/>
<rect x="88" y="38" width="13" height="13" rx="3" ry="3" fill="#0e4429"/>
<rect x="88" y="54" width="13" height="13" rx="3" ry="3" fill="#0e4429"/>
<rect x="88" y="70" width="13" height="13" rx="3" ry="3" fill="#161b22"/>
<rect x="88" y="86" width="13" height="13" rx="3" ry="3" fill="#0e4429"/>
<rect x="88" y="102" width="13" height="13" rx="3" ry="3" fill="#161b22"/>
<rect x="88" y="118" width="13" height="13" rx="3" ry="3" fill="#006d32"/>
<rect x="104" y="22" width="13" height="13" rx="3" ry="3" fill="#161b22"/>
<rect x="104" y="38" width="13" height="13" rx="3" ry="3" fill="#161b22"/>
<rect x="104" y="54" width="13" height="13" rx="3" ry="3" fill="#0e4429"/>
<rect x="104" y="70" width="13" height="13" rx="3" ry="3" fill="#161b22"/>
<rect x="104" y="86" width="13" height="13" rx="3" ry="3" fill="#161b22"/>
<rect x="104" y="102" width="13" height="13" rx="3" ry="3" fill="#006d32"/>
<rect x="104" y="118" width="13" height="13" rx="3" ry="3" fill="#0e4429"/>
<rect x="120" y="22" width="13" height="13" rx="3" ry="3" fill="#0e4429"/>
<rect x="120" y="38" width="13" height="13" rx="3" ry="3" fill="#161b22"/>
<rect x="120" y="54" width="13" height="13" rx="3" ry="3" fill="#161b22"/>
<rect x="120" y="70" width="13" height="13" rx="3" ry="3" fill="#006d32"/>
<rect x="120" y="86" width="13" height="13" rx="3" ry="3" fill="#161b22"/>
<rect x="120" y="102" width="13" height="13" rx="3" ry="3" fill="#161b22"/>
<rect x="120" y="118" width="13" height="13" rx="3" ry="3" fill="#161b22"/>
<rect x="136" y="22" width="13" height="13" rx="3" ry="3" fill="#161b22"/>
<rect x="136" y="38" width="13" height="13" rx="3" ry="3" fill="#0e4429"/>
<rect x="136" y="54" width="13" height="13" rx="3" ry="3" fill="#0e4429"/>
<rect x="136" y="70" width="13" height="13" rx="3" ry="3" fill="#0e4429"/>
<rect x="136" y="86" width="13" height="13" rx="3" ry="3" fill="#161b22"/>
<rect x="136" y="102" width="13" height="13" rx="3" ry="3" fill="#006d32"/>
<rect x="136" y="118" width="13" height="13" rx="3" ry="3" fill="#0e4429"/>
<rect x="152" y="22" width="13" height="13" rx="3" ry="3" fill="#0e4429"/>
<rect x="152" y="38" width="13" height="13" rx="3" ry="3" fill="#0e4429"/>
<rect x="152" y="54" width="13" height="13" rx="3" ry="3" fill="#161b22"/>
<rect x="152" y="70" width="13" height="13" rx="3" ry="3" fill="#006d32"/>
<rect x="152" y="86" width="13" height="13" rx="3" ry="3" fill="#0e4429"/>
<rect x="152" y="102" width="13" height="13" rx="3" ry="3" fill="#0e4429"/>
<rect x="152" y="118" width="13" height="13" rx="3" ry="3" fill="#161b22"/>
<rect x="168" y="22" width="13" height="13" rx="3" ry="3" fill="#161b22"/>
<rect x="168" y="38" width="13" height="13" rx="3" ry="3" fill="#161b22"/>
<rect x="168" y="54" width="13" height="13" rx="3" ry="3" fill="#161b22"/>
<rect x="168" y="70" width="13" height="13" rx="3" ry="3" fill="#161b22"/>
<rect x="168" y="86" width="13" height="13" rx="3" ry="3" fill="#161b22"/>
<rect x="168" y="102" width="13" height="13" rx="3" ry="3" fill="#161b22"/>
<rect x="168" y="118" width="13" height="13" rx="3" ry="3" fill="#161b22"/>
<rect x="184" y="22" width="13" height="13" rx="3" ry="3" fill="#006d32"/>
<rect x="184" y="38" width="13" height="13" rx="3" ry="3" fill="#161b22"/>
<rect x="184" y="54" width="13" height="13" rx="3" ry="3" fill="#161b22"/>
<rect x="184" y="70" width="13" height="13" rx="3" ry="3" fill="#0e4429"/>
<rect x="184" y="86" width="13" height="13" rx="3" ry="3" fill="#0e4429"/>
<rect x="184" y="102" width="13" height="13" rx="3" ry="3" fill="#161b22"/>
<rect x="184" y="118" width="13" height="13" rx="3" ry="3" fill="#006d32"/>
<rect x="200" y="22" width="13" height="13" rx="3" ry="3" fill="#161b22"/>
<rect x="200" y="38" width="13" height="13" rx="3" ry="3" fill="#0e4429"/>
<rect x="200" y="54" width="13" height="13" rx="3" ry="3" fill="#161b22"/>
<rect x="200" y="70" width="13" height="13" rx="3" ry="3" fill="#0e4429"/>
<rect x="200" y="86" width="13" height="13" rx="3" ry="3" fill="#161b22"/>
<rect x="200" y="102" width="13" height="13" rx="3" ry="3" fill="#161b22"/>
<rect x="200" y="118" width="13" height="13" rx="3" ry="3" fill="#006d32"/>
<rect x="216" y="22" width="13" height="13" rx="3" ry="3" fill="#0e4429"/>
<rect x="216" y="38" width="13" height="13" rx="3" ry="3" fill="#0e4429"/>
<rect x="216" y="54" width="13" height="13" rx="3" ry="3" fill="#161b22"/>
<rect x="216" y="70" width="13" height="13" rx="3" ry="3" fill="#006d32"/>
<rect x="216" y="86" width="13" height="13" rx="3" ry="3" fill="#0e4429"/>
<rect x="216" y="102" width="13" height="13" rx="3" ry="3" fill="#161b22"/>
<rect x="216" y="118" width="13" height="13" rx="3" ry="3" fill="#161b22"/>
<rect x="232" y="22" width="13" height="13" rx="3" ry="3" fill="#161b22"/>
<rect x="232" y="38" width="13" height="13" rx="3" ry="3" fill="#161b22"/>
<rect x="232" y="54" width="13" height="13" rx="3" ry="3" fill="#0e4429"/>
<rect x="232" y="70" width="13" height="13" rx="3" ry="3" fill="#161b22"/>
<rect x="232" y="86" width="13" height="13" rx="3" ry="3" fill="#0e4429"/>
<rect x="232" y="102" width="13" height="13" rx="3" ry="3" fill="#161b22"/>
<rect x="232" y="118" width="13" height="13" rx="3" ry="3" fill="#161b22"/>
<rect x="248" y="22" width="13" height="13" rx="3" ry="3" fill="#0e4429"/>
<rect x="248" y="38" width="13" height="13" rx="3" ry="3" fill="#161b22"/>
<rect x="248" y="54" width="13" height="13" rx="3" ry="3" fill="#161b22"/>
<rect x="248" y="70" width="13" height="13" rx="3" ry="3" fill="#161b22"/>
<rect x="248" y="86" width="13" height="13" rx="3" ry="3" fill="#0e4429"/>
<rect x="248" y="102" width="13" height="13" rx="3" ry="3" fill="#161b22"/>
<rect x="248" y="118" width="13" height="13" rx="3" ry="3" fill="#0e4429"/>
<rect x="264" y="22" width="13" height="13" rx="3" ry="3" fill="#161b22"/>
<rect x="264" y="38" width="13" height="13" rx="3" ry="3" fill="#0e4429"/>
<rect x="264" y="54" width="13" height="13" rx="3" ry="3" fill="#0e4429"/>
<rect x="264" y="70" width="13" height="13" rx="3" ry="3" fill="#006d32"/>
<rect x="264" y="86" width="13" height="13" rx="3" ry="3" fill="#0e4429"/>
<rect x="264" y="102" width="13" height="13" rx="3" ry="3" fill="#161b22"/>
<rect x="264" y="118" width="13" height="13" rx="3" ry="3" fill="#161b22"/>
<rect x="280" y="22" width="13" height="13" rx="3" ry="3" fill="#0e4429"/>
<rect x="280" y="38" width="13" height="13" rx="3" ry="3" fill="#0e4429"/>
<rect x="280" y="54" width="13" height="13" rx="3" ry="3" fill="#0e4429"/>
<rect x="280" y="70" width="13" height="13" rx="3" ry="3" fill="#161b22"/>
<rect x="280" y="86" width="13" height="13" rx="3" ry="3" fill="#161b22"/>
<rect x="280" y="102" width="13" height="13" rx="3" ry="3" fill="#161b22"/>
<rect x="280" y="118" width="13" height="13" rx="3" ry="3" fill="#161b22"/>
<rect x="296" y="22" width="13" height="13" rx="3" ry="3" fill="#161b22"/>
<rect x="296" y="38" width="13" height="13" rx="3" ry="3" fill="#006d32"/>
<rect x="296" y="54" width="13" height="13" rx="3" ry="3" fill="#161b22"/>
<rect x="296" y="70" width="13" height="13" rx="3" ry="3" fill="#0e4429"/>
<rect x="296" y="86" width="13" height="13" rx="3" ry="3" fill="#161b22"/>
<rect x="296" y="102" width="13" height="13" rx="3" ry="3" fill="#161b22"/>
<rect x="296" y="118" width="13" height="13" rx="3" ry="3" fill="#161b22"/>
<rect x="312" y="22" width="13" height="13" rx="3" ry="3" fill="#0e4429"/>
<rect x="312" y="38" width="13" height="13" rx="3" ry="3" fill="#0e4429"/>
<rect x="312" y="54" width="13" height="13" rx="3" ry="3" fill="#161b22"/>
<rect x="312" y="70" width="13" height="13" rx="3" ry="3" fill="#0e4429"/>
<rect x="312" y="86" width="13" height="13" rx="3" ry="3" fill="#006d32"/>
<rect x="312" y="102" width="13" height="13" rx="3" ry="3" fill="#0e4429"/>
<rect x="312" y="118" width="13" height="13" rx="3" ry="3" fill="#0e4429"/>
<rect x="328" y="22" width="13" height="13" rx="3" ry="3" fill="#161b22"/>
<rect x="328" y="38" width="13" height="13" rx="3" ry="3" fill="#006d32"/>
<rect x="328" y="54" width="13" height="13" rx="3" ry="3" fill="#006d32"/>
<rect x="328" y="70" width="13" height="13" rx="3" ry="3" fill="#161b22"/>
<rect x="328" y="86" width="13" height="13" rx="3" ry="3" fill="#0e4429"/>
<rect x="328" y="102" width="13" height="13" rx="3" ry="3" fill="#161b22"/>
<rect x="328" y="118" width="13" height="13" rx="3" ry="3" fill="#006d32"/>
<rect x="344" y="22" width="13" height="13" rx="3" ry="3" fill="#161b22"/>
<rect x="344" y="38" width="13" height="13" rx="3" ry="3" fill="#0e4429"/>
<rect x="344" y="54" width="13" height="13" rx="3" ry="3" fill="#0e4429"/>
<rect x="344" y="70" width="13" height="13" rx="3" ry="3" fill="#161b22"/>
<rect x="344" y="86" width="13" height="13" rx="3" ry="3" fill="#161b22"/>
<rect x="344" y="102" width="13" height="13" rx="3" ry="3" fill="#006d32"/>
<rect x="344" y="118" width="13" height="13" rx="3" ry="3" fill="#0e4429"/>
<rect x="360" y="22" width="13" height="13" rx="3" ry="3" fill="#0e4429"/>
<rect x="360" y="38" width="13" height="13" rx="3" ry="3" fill="#0e4429"/>
<rect x="360" y="54" width="13" height="13" rx="3" ry="3" fill="#0e4429"/>
<rect x="360" y="70" width="13" height="13" rx="3" ry="3" fill="#161b22"/>
<rect x="360" y="86" width="13" height="13" rx="3" ry="3" fill="#161b22"/>
<rect x="360" y="102" width="13" height="13" rx="3" ry="3" fill="#0e4429"/>
<rect x="360" y="118" width="13" height="13" rx="3" ry="3" fill="#161b22"/>
<rect x="376" y="22" width="13" height="13" rx="3" ry="3" fill="#0e4429"/>
<rect x="376" y="38" width="13" height="13" rx="3" ry="3" fill="#0e4429"/>
<rect x="376" y="54" width="13" height="13" rx="3" ry="3" fill="#161b22"/>
<rect x="376" y="70" width="13" height="13" rx="3" ry="3" fill="#161b22"/>
<rect x="376" y="86" width="13" height="13" rx="3" ry="3" fill="#161b22"/>
<rect x="376" y="102" width="13" height="13" rx="3" ry="3" fill="#0e4429"/>
<rect x="376" y="118" width="13" height="13" rx="3" ry="3" fill="#39d353"/>
<rect x="392" y="22" width="13" height="13" rx="3" ry="3" fill="#39d353"/>
<rect x="392" y="38" width="13" height="13" rx="3" ry="3" fill="#0e4429"/>
<rect x="392" y="54" width="13" height="13" rx="3" ry="3" fill="#39d353"/>
<rect x="392" y="70" width="13" height="13" rx="3" ry="3" fill="#39d353"/>
<rect x="392" y="86" width="13" height="13" rx="3" ry="3" fill="#26a641"/>
<rect x="392" y="102" width="13" height="13" rx="3" ry="3" fill="#0e4429"/>
<rect x="392" y="118" width="13" height="13" rx="3" ry="3" fill="#006d32"/>
<rect x="408" y="22" width="13" height="13" rx="3" ry="3" fill="#006d32"/>
<rect x="408" y="38" width="13" height="13" rx="3" ry="3" fill="#161b22"/>
<rect x="408" y="54" width="13" height="13" rx="3" ry="3" fill="#0e4429"/>
<rect x="408" y="70" width="13" height="13" rx="3" ry="3" fill="#0e4429"/>
<rect x="408" y="86" width="13" height="13" rx="3" ry="3" fill="#0e4429"/>
<rect x="408" y="102" width="13" height="13" rx="3" ry="3" fill="#39d353"/>
<rect x="408" y="118" width="13" height="13" rx="3" ry="3" fill="#39d353"/>
<rect x="424" y="22" width="13" height="13" rx="3" ry="3" fill="#26a641"/>
<rect x="424" y="38" width="13" height="13" rx="3" ry="3" fill="#39d353"/>
<rect x="424" y="54" width="13" height="13" rx="3" ry="3" fill="#39d353"/>
<rect x="424" y="70" width="13" height="13" rx="3" ry="3" fill="#26a641"/>
<rect x="424" y="86" width="13" height="13" rx="3" ry="3" fill="#39d353"/>
<rect x="424" y="102" width="13" height="13" rx="3" ry="3" fill="#39d353"/>
<rect x="424" y="118" width="13" height="13" rx="3" ry="3" fill="#39d353"/>
<rect x="440" y="22" width="13" height="13" rx="3" ry="3" fill="#39d353"/>
<rect x="440" y="38" width="13" height="13" rx="3" ry="3" fill="#26a641"/>
<rect x="440" y="54" width="13" height="13" rx="3" ry="3" fill="#39d353"/>
<rect x="440" y="70" width="13" height="13" rx="3" ry="3" fill="#39d353"/>
<rect x="440" y="86" width="13" height="13" rx="3" ry="3" fill="#26a641"/>
<rect x="440" y="102" width="13" height="13" rx="3" ry="3" fill="#006d32"/>
<rect x="440" y="118" width="13" height="13" rx="3" ry="3" fill="#0e4429"/>
<rect x="456" y="22" width="13" height="13" rx="3" ry="3" fill="#0e4429"/>
<rect x="456" y="38" width="13" height="13" rx="3" ry="3" fill="#006d32"/>
<rect x="456" y="54" width="13" height="13" rx="3" ry="3" fill="#39d353"/>
<rect x="456" y="70" width="13" height="13" rx="3" ry="3" fill="#26a641"/>
<text x="168.7" y="152" fill="#39d353" font-size="12" font-weight="bold">+4808</text>
<text x="209.7" y="152" fill="#c9d1d9" font-size="12">contributions</text>
</svg>