<svg xmlns="http://www.w3.org/2000/svg" width="874" height="162" style="background:#0d1117;font-family:sans-serif;" shape-rendering="geometricPrecision">
<text x="42" y="12" fill="#c9d1d9" font-size="10">Jul</text>
<text x="106" y="12" fill="#c9d1d9" font-size="10">Aug</text>
<text x="170" y="12" fill="#c9d1d9" font-size="10">Sep</text>
<text x="250" y="12" fill="#c9d1d9" font-size="10">Oct</text>
<text x="314" y="12" fill="#c9d1d9" font-size="10">Nov</text>
<text x="378" y="12" fill="#c9d1d9" font-size="10">Dec</text>
<text x="458" y="12" fill="#c9d1d9" font-size="10">Jan</text>
<text x="522" y="12" fill="#c9d1d9" font-size="10">Feb</text>
<text x="586" y="12" fill="#c9d1d9" font-size="10">Mar</text>
<text x="666" y="12" fill="#c9d1d9" font-size="10">Apr</text>
<text x="730" y="12" fill="#c9d1d9" font-size="10">May</text>
<text x="794" y="12" fill="#c9d1d9" font-size="10">Jun</text>
<text x="2" y="44.666666666666664" fill="#c9d1d9" font-size="10">Mon</text>
<text x="2" y="76.66666666666667" fill="#c9d1d9" font-size="10">Wed</text>
<text x="2" y="108.66666666666667" fill="#c9d1d9" font-size="10">Fri</text>
<rect x="26" y="20" width="13" height="13" rx="3" ry="3" fill="#161b22"/>
<rect x="26" y="36" width="13" height="13" rx="3" ry="3" fill="#161b22"/>
<rect x="26" y="52" width="13" height="13" rx="3" ry="3" fill="#161b22"/>
<rect x="26" y="68" width="13" height="13" rx="3" ry="3" fill="#161b22"/>
<rect x="26" y="84" width="13" height="13" rx="3" ry="3" fill="#161b22"/>
<rect x="26" y="100" width="13" height="13" rx="3" ry="3" fill="#161b22"/>
<rect x="26" y="116" width="13" height="13" rx="3" ry="3" fill="#161b22"/>
<rect x="42" y="20" width="13" height="13" rx="3" ry="3" fill="#161b22"/>
<rect x="42" y="36" width="13" height="13" rx="3" ry="3" fill="#161b22"/>
<rect x="42" y="52" width="13" height="13" rx="3" ry="3" fill="#161b22"/>
<rect x="42" y="68" width="13" height="13" rx="3" ry="3" fill="#161b22"/>
<rect x="42" y="84" width="13" height="13" rx="3" ry="3" fill="#161b22"/>
<rect x="42" y="100" width="13" height="13" rx="3" ry="3" fill="#161b22"/>
<rect x="42" y="116" width="13" height="13" rx="3" ry="3" fill="#161b22"/>
<rect x="58" y="20" width="13" height="13" rx="3" ry="3" fill="#161b22"/>
<rect x="58" y="36" width="13" height="13" rx="3" ry="3" fill="#161b22"/>
<rect x="58" y="52" width="13" height="13" rx="3" ry="3" fill="#161b22"/>
<rect x="58" y="68" width="13" height="13" rx="3" ry="3" fill="#161b22"/>
<rect x="58" y="84" width="13" height="13" rx="3" ry="3" fill="#161b22"/>
<rect x="58" y="100" width="13" height="13" rx="3" ry="3" fill="#161b22"/>
<rect x="58" y="116" width="13" height="13" rx="3" ry="3" fill="#161b22"/>
<rect x="74" y="20" width="13" height="13" rx="3" ry="3" fill="#161b22"/>
<rect x="74" y="36" width="13" height="13" rx="3" ry="3" fill="#161b22"/>
<rect x="74" y="52" width="13" height="13" rx="3" ry="3" fill="#161b22"/>
<rect x="74" y="68" width="13" height="13" rx="3" ry="3" fill="#161b22"/>
<rect x="74" y="84" width="13" height="13" rx="3" ry="3" fill="#161b22"/>
<rect x="74" y="100" width="13" height="13" rx="3" ry="3" fill="#161b22"/>
<rect x="74" y="116" width="13" height="13" rx="3" ry="3" fill="#161b22"/>
<rect x="90" y="20" width="13" height="13" rx="3" ry="3" fill="#161b22"/>
<rect x="90" y="36" width="13" height="13" rx="3" ry="3" fill="#161b22"/>
<rect x="90" y="52" width="13" height="13" rx="3" ry="3" fill="#161b22"/>
<rect x="90" y="68" width="13" height="13" rx="3" ry="3" fill="#161b22"/>
<rect x="90" y="84" width="13" height="13" rx="3" ry="3" fill="#161b22"/>
<rect x="90" y="100" width="13" height="13" rx="3" ry="3" fill="#161b22"/>
<rect x="90" y="116" width="13" height="13" rx="3" ry="3" fill="#161b22"/>
<rect x="106" y="20" width="13" height="13" rx="3" ry="3" fill="#161b22"/>
<rect x="106" y="36" width="13" height="13" rx="3" ry="3" fill="#161b22"/>
<rect x="106" y="52" width="13" height="13" rx="3" ry="3" fill="#161b22"/>
<rect x="106" y="68" width="13" height="13" rx="3" ry="3" fill="#161b22"/>
<rect x="106" y="84" width="13" height="13" rx="3" ry="3" fill="#161b22"/>
<rect x="106" y="100" width="13" height="13" rx="3" ry="3" fill="#161b22"/>
<rect x="106" y="116" width="13" height="13" rx="3" ry="3" fill="#161b22"/>
<rect x="122" y="20" width="13" height="13" rx="3" ry="3" fill="#161b22"/>
<rect x="122" y="36" width="13" height="13" rx="3" ry="3" fill="#161b22"/>
<rect x="122" y="52" width="13" height="13" rx="3" ry="3" fill="#161b22"/>
<rect x="122" y="68" width="13" height="13" rx="3" ry="3" fill="#161b22"/>
<rect x="122" y="84" width="13" height="13" rx="3" ry="3" fill="#161b22"/>
<rect x="122" y="100" width="13" height="13" rx="3" ry="3" fill="#161b22"/>
<rect x="122" y="116" width="13" height="13" rx="3" ry="3" fill="#161b22"/>
<rect x="138" y="20" width="13" height="13" rx="3" ry="3" fill="#161b22"/>
<rect x="138" y="36" width="13" height="13" rx="3" ry="3" fill="#161b22"/>
<rect x="138" y="52" width="13" height="13" rx="3" ry="3" fill="#161b22"/>
<rect x="138" y="68" width="13" height="13" rx="3" ry="3" fill="#161b22"/>
<rect x="138" y="84" width="13" height="13" rx="3" ry="3" fill="#161b22"/>
<rect x="138" y="100" width="13" height="13" rx="3" ry="3" fill="#161b22"/>
<rect x="138" y="116" width="13" height="13" rx="3" ry="3" fill="#161b22"/>
<rect x="154" y="20" width="13" height="13" rx="3" ry="3" fill="#161b22"/>
<rect x="154" y="36" width="13" height="13" rx="3" ry="3" fill="#161b22"/>
<rect x="154" y="52" width="13" height="13" rx="3" ry="3" fill="#161b22"/>
<rect x="154" y="68" width="13" height="13" rx="3" ry="3" fill="#161b22"/>
<rect x="154" y="84" width="13" height="13" rx="3" ry="3" fill="#161b22"/>
<rect x="154" y="100" width="13" height="13" rx="3" ry="3" fill="#161b22"/>
<rect x="154" y="116" width="13" height="13" rx="3" ry="3" fill="#161b22"/>
<rect x="170" y="20" width="13" height="13" rx="3" ry="3" fill="#161b22"/>
<rect x="170" y="36" width="13" height="13" rx="3" ry="3" fill="#161b22"/>
<rect x="170" y="52" width="13" height="13" rx="3" ry="3" fill="#161b22"/>
<rect x="170" y="68" width="13" height="13" rx="3" ry="3" fill="#161b22"/>
<rect x="170" y="84" width="13" height="13" rx="3" ry="3" fill="#161b22"/>
<rect x="170" y="100" width="13" height="13" rx="3" ry="3" fill="#161b22"/>
<rect x="170" y="116" width="13" height="13" rx="3" ry="3" fill="#161b22"/>
<rect x="186" y="20" width="13" height="13" rx="3" ry="3" fill="#161b22"/>
<rect x="186" y="36" width="13" height="13" rx="3" ry="3" fill="#161b22"/>
<rect x="186" y="52" width="13" height="13" rx="3" ry="3" fill="#161b22"/>
<rect x="186" y="68" width="13" height="13" rx="3" ry="3" fill="#161b22"/>
<rect x="186" y="84" width="13" height="13" rx="3" ry="3" fill="#161b22"/>
<rect x="186" y="100" width="13" height="13" rx="3" ry="3" fill="#161b22"/>
<rect x="186" y="116" width="13" height="13" rx="3" ry="3" fill="#161b22"/>
<rect x="202" y="20" width="13" height="13" rx="3" ry="3" fill="#161b22"/>
<rect x="202" y="36" width="13" height="13" rx="3" ry="3" fill="#161b22"/>
<rect x="202" y="52" width="13" height="13" rx="3" ry="3" fill="#161b22"/>
<rect x="202" y="68" width="13" height="13" rx="3" ry="3" fill="#161b22"/>
<rect x="202" y="84" width="13" height="13" rx="3" ry="3" fill="#161b22"/>
<rect x="202" y="100" width="13" height="13" rx="3" ry="3" fill="#161b22"/>
<rect x="202" y="116" width="13" height="13" rx="3" ry="3" fill="#161b22"/>
<rect x="218" y="20" width="13" height="13" rx="3" ry="3" fill="#161b22"/>
<rect x="218" y="36" width="13" height="13" rx="3" ry="3" fill="#161b22"/>
<rect x="218" y="52" width="13" height="13" rx="3" ry="3" fill="#161b22"/>
<rect x="218" y="68" width="13" height="13" rx="3" ry="3" fill="#161b22"/>
<rect x="218" y="84" width="13" height="13" rx="3" ry="3" fill="#161b22"/>
<rect x="218" y="100" width="13" height="13" rx="3" ry="3" fill="#161b22"/>
<rect x="218" y="116" width="13" height="13" rx="3" ry="3" fill="#161b22"/>
<rect x="234" y="20" width="13" height="13" rx="3" ry="3" fill="#161b22"/>
<rect x="234" y="36" width="13" height="13" rx="3" ry="3" fill="#161b22"/>
<rect x="234" y="52" width="13" height="13" rx="3" ry="3" fill="#161b22"/>
<rect x="234" y="68" width="13" height="13" rx="3" ry="3" fill="#161b22"/>
<rect x="234" y="84" width="13" height="13" rx="3" ry="3" fill="#161b22"/>
<rect x="234" y="100" width="13" height="13" rx="3" ry="3" fill="#161b22"/>
<rect x="234" y="116" width="13" height="13" rx="3" ry="3" fill="#161b22"/>
<rect x="250" y="20" width="13" height="13" rx="3" ry="3" fill="#161b22"/>
<rect x="250" y="36" width="13" height="13" rx="3" ry="3" fill="#161b22"/>
<rect x="250" y="52" width="13" height="13" rx="3" ry="3" fill="#161b22"/>
<rect x="250" y="68" width="13" height="13" rx="3" ry="3" fill="#161b22"/>
<rect x="250" y="84" width="13" height="13" rx="3" ry="3" fill="#161b22"/>
<rect x="250" y="100" width="13" height="13" rx="3" ry="3" fill="#161b22"/>
<rect x="250" y="116" width="13" height="13" rx="3" ry="3" fill="#161b22"/>
<rect x="266" y="20" width="13" height="13" rx="3" ry="3" fill="#161b22"/>
<rect x="266" y="36" width="13" height="13" rx="3" ry="3" fill="#161b22"/>
<rect x="266" y="52" width="13" height="13" rx="3" ry="3" fill="#161b22"/>
<rect x="266" y="68" width="13" height="13" rx="3" ry="3" fill="#161b22"/>
<rect x="266" y="84" width="13" height="13" rx="3" ry="3" fill="#161b22"/>
<rect x="266" y="100" width="13" height="13" rx="3" ry="3" fill="#161b22"/>
<rect x="266" y="116" width="13" height="13" rx="3" ry="3" fill="#161b22"/>
<rect x="282" y="20" width="13" height="13" rx="3" ry="3" fill="#161b22"/>
<rect x="282" y="36" width="13" height="13" rx="3" ry="3" fill="#161b22"/>
<rect x="282" y="52" width="13" height="13" rx="3" ry="3" fill="#161b22"/>
<rect x="282" y="68" width="13" height="13" rx="3" ry="3" fill="#161b22"/>
<rect x="282" y="84" width="13" height="13" rx="3" ry="3" fill="#161b22"/>
<rect x="282" y="100" width="13" height="13" rx="3" ry="3" fill="#161b22"/>
<rect x="282" y="116" width="13" height="13" rx="3" ry="3" fill="#161b22"/>
<rect x="298" y="20" width="13" height="13" rx="3" ry="3" fill="#161b22"/>
<rect x="298" y="36" width="13" height="13" rx="3" ry="3" fill="#161b22"/>
<rect x="298" y="52" width="13" height="13" rx="3" ry="3" fill="#161b22"/>
<rect x="298" y="68" width="13" height="13" rx="3" ry="3" fill="#161b22"/>
<rect x="298" y="84" width="13" height="13" rx="3" ry="3" fill="#161b22"/>
<rect x="298" y="100" width="13" height="13" rx="3" ry="3" fill="#161b22"/>
<rect x="298" y="116" width="13" height="13" rx="3" ry="3" fill="#161b22"/>
<rect x="314" y="20" width="13" height="13" rx="3" ry="3" fill="#161b22"/>
<rect x="314" y="36" width="13" height="13" rx="3" ry="3" fill="#161b22"/>
<rect x="314" y="52" width="13" height="13" rx="3" ry="3" fill="#161b22"/>
<rect x="314" y="68" width="13" height="13" rx="3" ry="3" fill="#161b22"/>
<rect x="314" y="84" width="13" height="13" rx="3" ry="3" fill="#161b22"/>
<rect x="314" y="100" width="13" height="13" rx="3" ry="3" fill="#161b22"/>
<rect x="314" y="116" width="13" height="13" rx="3" ry="3" fill="#161b22"/>
<rect x="330" y="20" width="13" height="13" rx="3" ry="3" fill="#161b22"/>
<rect x="330" y="36" width="13" height="13" rx="3" ry="3" fill="#161b22"/>
<rect x="330" y="52" width="13" height="13" rx="3" ry="3" fill="#161b22"/>
<rect x="330" y="68" width="13" height="13" rx="3" ry="3" fill="#161b22"/>
<rect x="330" y="84" width="13" height="13" rx="3" ry="3" fill="#161b22"/>
<rect x="330" y="100" width="13" height="13" rx="3" ry="3" fill="#161b22"/>
<rect x="330" y="116" width="13" height="13" rx="3" ry="3" fill="#161b22"/>
<rect x="346" y="20" width="13" height="13" rx="3" ry="3" fill="#161b22"/>
<rect x="346" y="36" width="13" height="13" rx="3" ry="3" fill="#161b22"/>
<rect x="346" y="52" width="13" height="13" rx="3" ry="3" fill="#161b22"/>
<rect x="346" y="68" width="13" height="13" rx="3" ry="3" fill="#161b22"/>
<rect x="346" y="84" width="13" height="13" rx="3" ry="3" fill="#161b22"/>
<rect x="346" y="100" width="13" height="13" rx="3" ry="3" fill="#161b22"/>
<rect x="346" y="116" width="13" height="13" rx="3" ry="3" fill="#161b22"/>
<rect x="362" y="20" width="13" height="13" rx="3" ry="3" fill="#161b22"/>
<rect x="362" y="36" width="13" height="13" rx="3" ry="3" fill="#161b22"/>
<rect x="362" y="52" width="13" height="13" rx="3" ry="3" fill="#161b22"/>
<rect x="362" y="68" width="13" height="13" rx="3" ry="3" fill="#161b22"/>
<rect x="362" y="84" width="13" height="13" rx="3" ry="3" fill="#161b22"/>
<rect x="362" y="100" width="13" height="13" rx="3" ry="3" fill="#161b22"/>
<rect x="362" y="116" width="13" height="13" rx="3" ry="3" fill="#161b22"/>
<rect x="378" y="20" width="13" height="13" rx="3" ry="3" fill="#161b22"/>
<rect x="378" y="36" width="13" height="13" rx="3" ry="3" fill="#161b22"/>
<rect x="378" y="52" width="13" height="13" rx="3" ry="3" fill="#161b22"/>
<rect x="378" y="68" width="13" height="13" rx="3" ry="3" fill="#161b22"/>
<rect x="378" y="84" width="13" height="13" rx="3" ry="3" fill="#161b22"/>
<rect x="378" y="100" width="13" height="13" rx="3" ry="3" fill="#161b22"/>
<rect x="378" y="116" width="13" height="13" rx="3" ry="3" fill="#161b22"/>
<rect x="394" y="20" width="13" height="13" rx="3" ry="3" fill="#161b22"/>
<rect x="394" y="36" width="13" height="13" rx="3" ry="3" fill="#161b22"/>
<rect x="394" y="52" width="13" height="13" rx="3" ry="3" fill="#161b22"/>
<rect x="394" y="68" width="13" height="13" rx="3" ry="3" fill="#161b22"/>
<rect x="394" y="84" width="13" height="13" rx="3" ry="3" fill="#161b22"/>
<rect x="394" y="100" width="13" height="13" rx="3" ry="3" fill="#161b22"/>
<rect x="394" y="116" width="13" height="13" rx="3" ry="3" fill="#161b22"/>
<rect x="410" y="20" width="13" height="13" rx="3" ry="3" fill="#161b22"/>
<rect x="410" y="36" width="13" height="13" rx="3" ry="3" fill="#161b22"/>
<rect x="410" y="52" width="13" height="13" rx="3" ry="3" fill="#161b22"/>
<rect x="410" y="68" width="13" height="13" rx="3" ry="3" fill="#161b22"/>
<rect x="410" y="84" width="13" height="13" rx="3" ry="3" fill="#161b22"/>
<rect x="410" y="100" width="13" height="13" rx="3" ry="3" fill="#161b22"/>
<rect x="410" y="116" width="13" height="13" rx="3" ry="3" fill="#161b22"/>
<rect x="426" y="20" width="13" height="13" rx="3" ry="3" fill="#161b22"/>
<rect x="426" y="36" width="13" height="13" rx="3" ry="3" fill="#161b22"/>
<rect x="426" y="52" width="13" height="13" rx="3" ry="3" fill="#161b22"/>
<rect x="426" y="68" width="13" height="13" rx="3" ry="3" fill="#161b22"/>
<rect x="426" y="84" width="13" height="13" rx="3" ry="3" fill="#161b22"/>
<rect x="426" y="100" width="13" height="13" rx="3" ry="3" fill="#161b22"/>
<rect x="426" y="116" width="13" height="13" rx="3" ry="3" fill="#161b22"/>
<rect x="442" y="20" width="13" height="13" rx="3" ry="3" fill="#161b22"/>
<rect x="442" y="36" width="13" height="13" rx="3" ry="3" fill="#161b22"/>
<rect x="442" y="52" width="13" height="13" rx="3" ry="3" fill="#161b22"/>
<rect x="442" y="68" width="13" height="13" rx="3" ry="3" fill="#161b22"/>
<rect x="442" y="84" width="13" height="13" rx="3" ry="3" fill="#161b22"/>
<rect x="442" y="100" width="13" height="13" rx="3" ry="3" fill="#161b22"/>
<rect x="442" y="116" width="13" height="13" rx="3" ry="3" fill="#161b22"/>
<rect x="458" y="20" width="13" height="13" rx="3" ry="3" fill="#161b22"/>
<rect x="458" y="36" width="13" height="13" rx="3" ry="3" fill="#0e4429"/>
<rect x="458" y="52" width="13" height="13" rx="3" ry="3" fill="#161b22"/>
<rect x="458" y="68" width="13" height="13" rx="3" ry="3" fill="#161b22"/>
<rect x="458" y="84" width="13" height="13" rx="3" ry="3" fill="#161b22"/>
<rect x="458" y="100" width="13" height="13" rx="3" ry="3" fill="#006d32"/>
<rect x="458" y="116" width="13" height="13" rx="3" ry="3" fill="#0e4429"/>
<rect x="474" y="20" width="13" height="13" rx="3" ry="3" fill="#161b22"/>
<rect x="474" y="36" width="13" height="13" rx="3" ry="3" fill="#0e4429"/>
<rect x="474" y="52" width="13" height="13" rx="3" ry="3" fill="#161b22"/>
<rect x="474" y="68" width="13" height="13" rx="3" ry="3" fill="#161b22"/>
<rect x="474" y="84" width="13" height="13" rx="3" ry="3" fill="#161b22"/>
<rect x="474" y="100" width="13" height="13" rx="3" ry="3" fill="#0e4429"/>
<rect x="474" y="116" width="13" height="13" rx="3" ry="3" fill="#161b22"/>
<rect x="490" y="20" width="13" height="13" rx="3" ry="3" fill="#0e4429"/>
<rect x="490" y="36" width="13" height="13" rx="3" ry="3" fill="#0e4429"/>
<rect x="490" y="52" width="13" height="13" rx="3" ry="3" fill="#0e4429"/>
<rect x="490" y="68" width="13" height="13" rx="3" ry="3" fill="#161b22"/>
<rect x="490" y="84" width="13" height="13" rx="3" ry="3" fill="#0e4429"/>
<rect x="490" y="100" width="13" height="13" rx="3" ry="3" fill="#161b22"/>
<rect x="490" y="116" width="13" height="13" rx="3" ry="3" fill="#006d32"/>
<rect x="506" y="20" width="13" height="13" rx="3" ry="3" fill="#161b22"/>
<rect x="506" y="36" width="13" height="13" rx="3" ry="3" fill="#161b22"/>
<rect x="506" y="52" width="13" height="13" rx="3" ry="3" fill="#0e4429"/>
<rect x="506" y="68" width="13" height="13" rx="3" ry="3" fill="#161b22"/>
<rect x="506" y="84" width="13" height="13" rx="3" ry="3" fill="#161b22"/>
<rect x="506" y="100" width="13" height="13" rx="3" ry="3" fill="#006d32"/>
<rect x="506" y="116" width="13" height="13" rx="3" ry="3" fill="#0e4429"/>
<rect x="522" y="20" width="13" height="13" rx="3" ry="3" fill="#0e4429"/>
<rect x="522" y="36" width="13" height="13" rx="3" ry="3" fill="#161b22"/>
<rect x="522" y="52" width="13" height="13" rx="3" ry="3" fill="#161b22"/>
<rect x="522" y="68" width="13" height="13" rx="3" ry="3" fill="#006d32"/>
<rect x="522" y="84" width="13" height="13" rx="3" ry="3" fill="#161b22"/>
<rect x="522" y="100" width="13" height="13" rx="3" ry="3" fill="#161b22"/>
<rect x="522" y="116" width="13" height="13" rx="3" ry="3" fill="#161b22"/>
<rect x="538" y="20" width="13" height="13" rx="3" ry="3" fill="#161b22"/>
<rect x="538" y="36" width="13" height="13" rx="3" ry="3" fill="#0e4429"/>
<rect x="538" y="52" width="13" height="13" rx="3" ry="3" fill="#0e4429"/>
<rect x="538" y="68" width="13" height="13" rx="3" ry="3" fill="#0e4429"/>
<rect x="538" y="84" width="13" height="13" rx="3" ry="3" fill="#161b22"/>
<rect x="538" y="100" width="13" height="13" rx="3" ry="3" fill="#006d32"/>
<rect x="538" y="116" width="13" height="13" rx="3" ry="3" fill="#0e4429"/>
<rect x="554" y="20" width="13" height="13" rx="3" ry="3" fill="#0e4429"/>
<rect x="554" y="36" width="13" height="13" rx="3" ry="3" fill="#0e4429"/>
<rect x="554" y="52" width="13" height="13" rx="3" ry="3" fill="#161b22"/>
<rect x="554" y="68" width="13" height="13" rx="3" ry="3" fill="#006d32"/>
<rect x="554" y="84" width="13" height="13" rx="3" ry="3" fill="#0e4429"/>
<rect x="554" y="100" width="13" height="13" rx="3" ry="3" fill="#0e4429"/>
<rect x="554" y="116" width="13" height="13" rx="3" ry="3" fill="#161b22"/>
<rect x="570" y="20" width="13" height="13" rx="3" ry="3" fill="#161b22"/>
<rect x="570" y="36" width="13" height="13" rx="3" ry="3" fill="#161b22"/>
<rect x="570" y="52" width="13" height="13" rx="3" ry="3" fill="#161b22"/>
<rect x="570" y="68" width="13" height="13" rx="3" ry="3" fill="#161b22"/>
<rect x="570" y="84" width="13" height="13" rx="3" ry="3" fill="#161b22"/>
<rect x="570" y="100" width="13" height="13" rx="3" ry="3" fill="#161b22"/>
<rect x="570" y="116" width="13" height="13" rx="3" ry="3" fill="#161b22"/>
<rect x="586" y="20" width="13" height="13" rx="3" ry="3" fill="#006d32"/>
<rect x="586" y="36" width="13" height="13" rx="3" ry="3" fill="#161b22"/>
<rect x="586" y="52" width="13" height="13" rx="3" ry="3" fill="#161b22"/>
<rect x="586" y="68" width="13" height="13" rx="3" ry="3" fill="#0e4429"/>
<rect x="586" y="84" width="13" height="13" rx="3" ry="3" fill="#0e4429"/>
<rect x="586" y="100" width="13" height="13" rx="3" ry="3" fill="#161b22"/>
<rect x="586" y="116" width="13" height="13" rx="3" ry="3" fill="#006d32"/>
<rect x="602" y="20" width="13" height="13" rx="3" ry="3" fill="#161b22"/>
<rect x="602" y="36" width="13" height="13" rx="3" ry="3" fill="#0e4429"/>
<rect x="602" y="52" width="13" height="13" rx="3" ry="3" fill="#161b22"/>
<rect x="602" y="68" width="13" height="13" rx="3" ry="3" fill="#0e4429"/>
<rect x="602" y="84" width="13" height="13" rx="3" ry="3" fill="#161b22"/>
<rect x="602" y="100" width="13" height="13" rx="3" ry="3" fill="#161b22"/>
<rect x="602" y="116" width="13" height="13" rx="3" ry="3" fill="#006d32"/>
<rect x="618" y="20" width="13" height="13" rx="3" ry="3" fill="#0e4429"/>
<rect x="618" y="36" width="13" height="13" rx="3" ry="3" fill="#0e4429"/>
<rect x="618" y="52" width="13" height="13" rx="3" ry="3" fill="#161b22"/>
<rect x="618" y="68" width="13" height="13" rx="3" ry="3" fill="#006d32"/>
<rect x="618" y="84" width="13" height="13" rx="3" ry="3" fill="#0e4429"/>
<rect x="618" y="100" width="13" height="13" rx="3" ry="3" fill="#161b22"/>
<rect x="618" y="116" width="13" height="13" rx="3" ry="3" fill="#161b22"/>
<rect x="634" y="20" width="13" height="13" rx="3" ry="3" fill="#161b22"/>
<rect x="634" y="36" width="13" height="13" rx="3" ry="3" fill="#161b22"/>
<rect x="634" y="52" width="13" height="13" rx="3" ry="3" fill="#0e4429"/>
<rect x="634" y="68" width="13" height="13" rx="3" ry="3" fill="#161b22"/>
<rect x="634" y="84" width="13" height="13" rx="3" ry="3" fill="#0e4429"/>
<rect x="634" y="100" width="13" height="13" rx="3" ry="3" fill="#161b22"/>
<rect x="634" y="116" width="13" height="13" rx="3" ry="3" fill="#161b22"/>
<rect x="650" y="20" width="13" height="13" rx="3" ry="3" fill="#0e4429"/>
<rect x="650" y="36" width="13" height="13" rx="3" ry="3" fill="#161b22"/>
<rect x="650" y="52" width="13" height="13" rx="3" ry="3" fill="#161b22"/>
<rect x="650" y="68" width="13" height="13" rx="3" ry="3" fill="#161b22"/>
<rect x="650" y="84" width="13" height="13" rx="3" ry="3" fill="#0e4429"/>
<rect x="650" y="100" width="13" height="13" rx="3" ry="3" fill="#161b22"/>
<rect x="650" y="116" width="13" height="13" rx="3" ry="3" fill="#0e4429"/>
<rect x="666" y="20" width="13" height="13" rx="3" ry="3" fill="#161b22"/>
<rect x="666" y="36" width="13" height="13" rx="3" ry="3" fill="#0e4429"/>
<rect x="666" y="52" width="13" height="13" rx="3" ry="3" fill="#0e4429"/>
<rect x="666" y="68" width="13" height="13" rx="3" ry="3" fill="#006d32"/>
<rect x="666" y="84" width="13" height="13" rx="3" ry="3" fill="#0e4429"/>
<rect x="666" y="100" width="13" height="13" rx="3" ry="3" fill="#161b22"/>
<rect x="666" y="116" width="13" height="13" rx="3" ry="3" fill="#161b22"/>
<rect x="682" y="20" width="13" height="13" rx="3" ry="3" fill="#0e4429"/>
<rect x="682" y="36" width="13" height="13" rx="3" ry="3" fill="#0e4429"/>
<rect x="682" y="52" width="13" height="13" rx="3" ry="3" fill="#0e4429"/>
<rect x="682" y="68" width="13" height="13" rx="3" ry="3" fill="#161b22"/>
<rect x="682" y="84" width="13" height="13" rx="3" ry="3" fill="#161b22"/>
<rect x="682" y="100" width="13" height="13" rx="3" ry="3" fill="#161b22"/>
<rect x="682" y="116" width="13" height="13" rx="3" ry="3" fill="#161b22"/>
<rect x="698" y="20" width="13" height="13" rx="3" ry="3" fill="#161b22"/>
<rect x="698" y="36" width="13" height="13" rx="3" ry="3" fill="#006d32"/>
<rect x="698" y="52" width="13" height="13" rx="3" ry="3" fill="#161b22"/>
<rect x="698" y="68" width="13" height="13" rx="3" ry="3" fill="#0e4429"/>
<rect x="698" y="84" width="13" height="13" rx="3" ry="3" fill="#161b22"/>
<rect x="698" y="100" width="13" height="13" rx="3" ry="3" fill="#161b22"/>
<rect x="698" y="116" width="13" height="13" rx="3" ry="3" fill="#161b22"/>
<rect x="714" y="20" width="13" height="13" rx="3" ry="3" fill="#0e4429"/>
<rect x="714" y="36" width="13" height="13" rx="3" ry="3" fill="#0e4429"/>
<rect x="714" y="52" width="13" height="13" rx="3" ry="3" fill="#161b22"/>
<rect x="714" y="68" width="13" height="13" rx="3" ry="3" fill="#0e4429"/>
<rect x="714" y="84" width="13" height="13" rx="3" ry="3" fill="#006d32"/>
<rect x="714" y="100" width="13" height="13" rx="3" ry="3" fill="#0e4429"/>
<rect x="714" y="116" width="13" height="13" rx="3" ry="3" fill="#0e4429"/>
<rect x="730" y="20" width="13" height="13" rx="3" ry="3" fill="#161b22"/>
<rect x="730" y="36" width="13" height="13" rx="3" ry="3" fill="#006d32"/>
<rect x="730" y="52" width="13" height="13" rx="3" ry="3" fill="#006d32"/>
<rect x="730" y="68" width="13" height="13" rx="3" ry="3" fill="#161b22"/>
<rect x="730" y="84" width="13" height="13" rx="3" ry="3" fill="#0e4429"/>
<rect x="730" y="100" width="13" height="13" rx="3" ry="3" fill="#161b22"/>
<rect x="730" y="116" width="13" height="13" rx="3" ry="3" fill="#006d32"/>
<rect x="746" y="20" width="13" height="13" rx="3" ry="3" fill="#161b22"/>
<rect x="746" y="36" width="13" height="13" rx="3" ry="3" fill="#0e4429"/>
<rect x="746" y="52" width="13" height="13" rx="3" ry="3" fill="#0e4429"/>
<rect x="746" y="68" width="13" height="13" rx="3" ry="3" fill="#161b22"/>
<rect x="746" y="84" width="13" height="13" rx="3" ry="3" fill="#161b22"/>
<rect x="746" y="100" width="13" height="13" rx="3" ry="3" fill="#006d32"/>
<rect x="746" y="116" width="13" height="13" rx="3" ry="3" fill="#0e4429"/>
<rect x="762" y="20" width="13" height="13" rx="3" ry="3" fill="#0e4429"/>
<rect x="762" y="36" width="13" height="13" rx="3" ry="3" fill="#0e4429"/>
<rect x="762" y="52" width="13" height="13" rx="3" ry="3" fill="#0e4429"/>
<rect x="762" y="68" width="13" height="13" rx="3" ry="3" fill="#161b22"/>
<rect x="762" y="84" width="13" height="13" rx="3" ry="3" fill="#161b22"/>
<rect x="762" y="100" width="13" height="13" rx="3" ry="3" fill="#0e4429"/>
<rect x="762" y="116" width="13" height="13" rx="3" ry="3" fill="#161b22"/>
<rect x="778" y="20" width="13" height="13" rx="3" ry="3" fill="#0e4429"/>
<rect x="778" y="36" width="13" height="13" rx="3" ry="3" fill="#0e4429"/>
<rect x="778" y="52" width="13" height="13" rx="3" ry="3" fill="#161b22"/>
<rect x="778" y="68" width="13" height="13" rx="3" ry="3" fill="#161b22"/>
<rect x="778" y="84" width="13" height="13" rx="3" ry="3" fill="#161b22"/>
<rect x="778" y="100" width="13" height="13" rx="3" ry="3" fill="#0e4429"/>
<rect x="778" y="116" width="13" height="13" rx="3" ry="3" fill="#39d353"/>
<rect x="794" y="20" width="13" height="13" rx="3" ry="3" fill="#39d353"/>
<rect x="794" y="36" width="13" height="13" rx="3" ry="3" fill="#0e4429"/>
<rect x="794" y="52" width="13" height="13" rx="3" ry="3" fill="#39d353"/>
<rect x="794" y="68" width="13" height="13" rx="3" ry="3" fill="#39d353"/>
<rect x="794" y="84" width="13" height="13" rx="3" ry="3" fill="#26a641"/>
<rect x="794" y="100" width="13" height="13" rx="3" ry="3" fill="#0e4429"/>
<rect x="794" y="116" width="13" height="13" rx="3" ry="3" fill="#006d32"/>
<rect x="810" y="20" width="13" height="13" rx="3" ry="3" fill="#006d32"/>
<rect x="810" y="36" width="13" height="13" rx="3" ry="3" fill="#161b22"/>
<rect x="810" y="52" width="13" height="13" rx="3" ry="3" fill="#0e4429"/>
<rect x="810" y="68" width="13" height="13" rx="3" ry="3" fill="#0e4429"/>
<rect x="810" y="84" width="13" height="13" rx="3" ry="3" fill="#0e4429"/>
<rect x="810" y="100" width="13" height="13" rx="3" ry="3" fill="#39d353"/>
<rect x="810" y="116" width="13" height="13" rx="3" ry="3" fill="#39d353"/>
<rect x="826" y="20" width="13" height="13" rx="3" ry="3" fill="#26a641"/>
<rect x="826" y="36" width="13" height="13" rx="3" ry="3" fill="#39d353"/>
<rect x="826" y="52" width="13" height="13" rx="3" ry="3" fill="#39d353"/>
<rect x="826" y="68" width="13" height="13" rx="3" ry="3" fill="#26a641"/>
<rect x="826" y="84" width="13" height="13" rx="3" ry="3" fill="#39d353"/>
<rect x="826" y="100" width="13" height="13" rx="3" ry="3" fill="#39d353"/>
<rect x="826" y="116" width="13" height="13" rx="3" ry="3" fill="#39d353"/>
<rect x="842" y="20" width="13" height="13" rx="3" ry="3" fill="#39d353"/>
<rect x="842" y="36" width="13" height="13" rx="3" ry="3" fill="#26a641"/>
<rect x="842" y="52" width="13" height="13" rx="3" ry="3" fill="#39d353"/>
<rect x="842" y="68" width="13" height="13" rx="3" ry="3" fill="#39d353"/>
<rect x="842" y="84" width="13" height="13" rx="3" ry="3" fill="#26a641"/>
<rect x="842" y="100" width="13" height="13" rx="3" ry="3" fill="#006d32"/>
<rect x="842" y="116" width="13" height="13" rx="3" ry="3" fill="#0e4429"/>
<rect x="858" y="20" width="13" height="13" rx="3" ry="3" fill="#0e4429"/>
<rect x="858" y="36" width="13" height="13" rx="3" ry="3" fill="#006d32"/>
<rect x="858" y="52" width="13" height="13" rx="3" ry="3" fill="#39d353"/>
<rect x="858" y="68" width="13" height="13" rx="3" ry="3" fill="#161b22"/>
<text x="369.7" y="152" fill="#39d353" font-size="12" font-weight="bold">+4779</text>
<text x="410.7" y="152" fill="#c9d1d9" font-size="12">contributions</text>
</svg>