<svg xmlns="http://www.w3.org/2000/svg" width="772" height="138" style="background:#0D1117;font-family:'Segoe UI',Arial,sans-serif;" shape-rendering="geometricPrecision">
<text x="44" y="15" fill="#c9d1d9" font-size="10">Jul</text><text x="100" y="15" fill="#c9d1d9" font-size="10">Aug</text><text x="156" y="15" fill="#c9d1d9" font-size="10">Sep</text><text x="226" y="15" fill="#c9d1d9" font-size="10">Oct</text><text x="282" y="15" fill="#c9d1d9" font-size="10">Nov</text><text x="338" y="15" fill="#c9d1d9" font-size="10">Dec</text><text x="408" y="15" fill="#c9d1d9" font-size="10">Jan</text><text x="464" y="15" fill="#c9d1d9" font-size="10">Feb</text><text x="520" y="15" fill="#c9d1d9" font-size="10">Mar</text><text x="590" y="15" fill="#c9d1d9" font-size="10">Apr</text><text x="646" y="15" fill="#c9d1d9" font-size="10">May</text><text x="702" y="15" fill="#c9d1d9" font-size="10">Jun</text><text x="5" y="38" fill="#c9d1d9" font-size="10">Mon</text><text x="5" y="66" fill="#c9d1d9" font-size="10">Wed</text><text x="5" y="94" fill="#c9d1d9" font-size="10">Fri</text><rect x="30" y="20" width="11" height="11" rx="2" ry="2" fill="#161b22"/><rect x="30" y="34" width="11" height="11" rx="2" ry="2" fill="#161b22"/><rect x="30" y="48" width="11" height="11" rx="2" ry="2" fill="#161b22"/><rect x="30" y="62" width="11" height="11" rx="2" ry="2" fill="#161b22"/><rect x="30" y="76" width="11" height="11" rx="2" ry="2" fill="#161b22"/><rect x="30" y="90" width="11" height="11" rx="2" ry="2" fill="#161b22"/><rect x="30" y="104" width="11" height="11" rx="2" ry="2" fill="#161b22"/><rect x="44" y="20" width="11" height="11" rx="2" ry="2" fill="#161b22"/><rect x="44" y="34" width="11" height="11" rx="2" ry="2" fill="#161b22"/><rect x="44" y="48" width="11" height="11" rx="2" ry="2" fill="#161b22"/><rect x="44" y="62" width="11" height="11" rx="2" ry="2" fill="#161b22"/><rect x="44" y="76" width="11" height="11" rx="2" ry="2" fill="#161b22"/><rect x="44" y="90" width="11" height="11" rx="2" ry="2" fill="#161b22"/><rect x="44" y="104" width="11" height="11" rx="2" ry="2" fill="#161b22"/><rect x="58" y="20" width="11" height="11" rx="2" ry="2" fill="#161b22"/><rect x="58" y="34" width="11" height="11" rx="2" ry="2" fill="#161b22"/><rect x="58" y="48" width="11" height="11" rx="2" ry="2" fill="#161b22"/><rect x="58" y="62" width="11" height="11" rx="2" ry="2" fill="#161b22"/><rect x="58" y="76" width="11" height="11" rx="2" ry="2" fill="#161b22"/><rect x="58" y="90" width="11" height="11" rx="2" ry="2" fill="#161b22"/><rect x="58" y="104" width="11" height="11" rx="2" ry="2" fill="#161b22"/><rect x="72" y="20" width="11" height="11" rx="2" ry="2" fill="#161b22"/><rect x="72" y="34" width="11" height="11" rx="2" ry="2" fill="#161b22"/><rect x="72" y="48" width="11" height="11" rx="2" ry="2" fill="#161b22"/><rect x="72" y="62" width="11" height="11" rx="2" ry="2" fill="#161b22"/><rect x="72" y="76" width="11" height="11" rx="2" ry="2" fill="#161b22"/><rect x="72" y="90" width="11" height="11" rx="2" ry="2" fill="#161b22"/><rect x="72" y="104" width="11" height="11" rx="2" ry="2" fill="#161b22"/><rect x="86" y="20" width="11" height="11" rx="2" ry="2" fill="#161b22"/><rect x="86" y="34" width="11" height="11" rx="2" ry="2" fill="#161b22"/><rect x="86" y="48" width="11" height="11" rx="2" ry="2" fill="#161b22"/><rect x="86" y="62" width="11" height="11" rx="2" ry="2" fill="#161b22"/><rect x="86" y="76" width="11" height="11" rx="2" ry="2" fill="#161b22"/><rect x="86" y="90" width="11" height="11" rx="2" ry="2" fill="#161b22"/><rect x="86" y="104" width="11" height="11" rx="2" ry="2" fill="#161b22"/><rect x="100" y="20" width="11" height="11" rx="2" ry="2" fill="#161b22"/><rect x="100" y="34" width="11" height="11" rx="2" ry="2" fill="#161b22"/><rect x="100" y="48" width="11" height="11" rx="2" ry="2" fill="#161b22"/><rect x="100" y="62" width="11" height="11" rx="2" ry="2" fill="#161b22"/><rect x="100" y="76" width="11" height="11" rx="2" ry="2" fill="#161b22"/><rect x="100" y="90" width="11" height="11" rx="2" ry="2" fill="#161b22"/><rect x="100" y="104" width="11" height="11" rx="2" ry="2" fill="#161b22"/><rect x="114" y="20" width="11" height="11" rx="2" ry="2" fill="#161b22"/><rect x="114" y="34" width="11" height="11" rx="2" ry="2" fill="#161b22"/><rect x="114" y="48" width="11" height="11" rx="2" ry="2" fill="#161b22"/><rect x="114" y="62" width="11" height="11" rx="2" ry="2" fill="#161b22"/><rect x="114" y="76" width="11" height="11" rx="2" ry="2" fill="#161b22"/><rect x="114" y="90" width="11" height="11" rx="2" ry="2" fill="#161b22"/><rect x="114" y="104" width="11" height="11" rx="2" ry="2" fill="#161b22"/><rect x="128" y="20" width="11" height="11" rx="2" ry="2" fill="#161b22"/><rect x="128" y="34" width="11" height="11" rx="2" ry="2" fill="#161b22"/><rect x="128" y="48" width="11" height="11" rx="2" ry="2" fill="#161b22"/><rect x="128" y="62" width="11" height="11" rx="2" ry="2" fill="#161b22"/><rect x="128" y="76" width="11" height="11" rx="2" ry="2" fill="#161b22"/><rect x="128" y="90" width="11" height="11" rx="2" ry="2" fill="#161b22"/><rect x="128" y="104" width="11" height="11" rx="2" ry="2" fill="#161b22"/><rect x="142" y="20" width="11" height="11" rx="2" ry="2" fill="#161b22"/><rect x="142" y="34" width="11" height="11" rx="2" ry="2" fill="#161b22"/><rect x="142" y="48" width="11" height="11" rx="2" ry="2" fill="#161b22"/><rect x="142" y="62" width="11" height="11" rx="2" ry="2" fill="#161b22"/><rect x="142" y="76" width="11" height="11" rx="2" ry="2" fill="#161b22"/><rect x="142" y="90" width="11" height="11" rx="2" ry="2" fill="#161b22"/><rect x="142" y="104" width="11" height="11" rx="2" ry="2" fill="#161b22"/><rect x="156" y="20" width="11" height="11" rx="2" ry="2" fill="#161b22"/><rect x="156" y="34" width="11" height="11" rx="2" ry="2" fill="#161b22"/><rect x="156" y="48" width="11" height="11" rx="2" ry="2" fill="#161b22"/><rect x="156" y="62" width="11" height="11" rx="2" ry="2" fill="#161b22"/><rect x="156" y="76" width="11" height="11" rx="2" ry="2" fill="#161b22"/><rect x="156" y="90" width="11" height="11" rx="2" ry="2" fill="#161b22"/><rect x="156" y="104" width="11" height="11" rx="2" ry="2" fill="#161b22"/><rect x="170" y="20" width="11" height="11" rx="2" ry="2" fill="#161b22"/><rect x="170" y="34" width="11" height="11" rx="2" ry="2" fill="#161b22"/><rect x="170" y="48" width="11" height="11" rx="2" ry="2" fill="#161b22"/><rect x="170" y="62" width="11" height="11" rx="2" ry="2" fill="#161b22"/><rect x="170" y="76" width="11" height="11" rx="2" ry="2" fill="#161b22"/><rect x="170" y="90" width="11" height="11" rx="2" ry="2" fill="#161b22"/><rect x="170" y="104" width="11" height="11" rx="2" ry="2" fill="#161b22"/><rect x="184" y="20" width="11" height="11" rx="2" ry="2" fill="#161b22"/><rect x="184" y="34" width="11" height="11" rx="2" ry="2" fill="#161b22"/><rect x="184" y="48" width="11" height="11" rx="2" ry="2" fill="#161b22"/><rect x="184" y="62" width="11" height="11" rx="2" ry="2" fill="#161b22"/><rect x="184" y="76" width="11" height="11" rx="2" ry="2" fill="#161b22"/><rect x="184" y="90" width="11" height="11" rx="2" ry="2" fill="#161b22"/><rect x="184" y="104" width="11" height="11" rx="2" ry="2" fill="#161b22"/><rect x="198" y="20" width="11" height="11" rx="2" ry="2" fill="#161b22"/><rect x="198" y="34" width="11" height="11" rx="2" ry="2" fill="#161b22"/><rect x="198" y="48" width="11" height="11" rx="2" ry="2" fill="#161b22"/><rect x="198" y="62" width="11" height="11" rx="2" ry="2" fill="#161b22"/><rect x="198" y="76" width="11" height="11" rx="2" ry="2" fill="#161b22"/><rect x="198" y="90" width="11" height="11" rx="2" ry="2" fill="#161b22"/><rect x="198" y="104" width="11" height="11" rx="2" ry="2" fill="#161b22"/><rect x="212" y="20" width="11" height="11" rx="2" ry="2" fill="#161b22"/><rect x="212" y="34" width="11" height="11" rx="2" ry="2" fill="#161b22"/><rect x="212" y="48" width="11" height="11" rx="2" ry="2" fill="#161b22"/><rect x="212" y="62" width="11" height="11" rx="2" ry="2" fill="#161b22"/><rect x="212" y="76" width="11" height="11" rx="2" ry="2" fill="#161b22"/><rect x="212" y="90" width="11" height="11" rx="2" ry="2" fill="#161b22"/><rect x="212" y="104" width="11" height="11" rx="2" ry="2" fill="#161b22"/><rect x="226" y="20" width="11" height="11" rx="2" ry="2" fill="#161b22"/><rect x="226" y="34" width="11" height="11" rx="2" ry="2" fill="#161b22"/><rect x="226" y="48" width="11" height="11" rx="2" ry="2" fill="#161b22"/><rect x="226" y="62" width="11" height="11" rx="2" ry="2" fill="#161b22"/><rect x="226" y="76" width="11" height="11" rx="2" ry="2" fill="#161b22"/><rect x="226" y="90" width="11" height="11" rx="2" ry="2" fill="#161b22"/><rect x="226" y="104" width="11" height="11" rx="2" ry="2" fill="#161b22"/><rect x="240" y="20" width="11" height="11" rx="2" ry="2" fill="#161b22"/><rect x="240" y="34" width="11" height="11" rx="2" ry="2" fill="#161b22"/><rect x="240" y="48" width="11" height="11" rx="2" ry="2" fill="#161b22"/><rect x="240" y="62" width="11" height="11" rx="2" ry="2" fill="#161b22"/><rect x="240" y="76" width="11" height="11" rx="2" ry="2" fill="#161b22"/><rect x="240" y="90" width="11" height="11" rx="2" ry="2" fill="#161b22"/><rect x="240" y="104" width="11" height="11" rx="2" ry="2" fill="#161b22"/><rect x="254" y="20" width="11" height="11" rx="2" ry="2" fill="#161b22"/><rect x="254" y="34" width="11" height="11" rx="2" ry="2" fill="#161b22"/><rect x="254" y="48" width="11" height="11" rx="2" ry="2" fill="#161b22"/><rect x="254" y="62" width="11" height="11" rx="2" ry="2" fill="#161b22"/><rect x="254" y="76" width="11" height="11" rx="2" ry="2" fill="#161b22"/><rect x="254" y="90" width="11" height="11" rx="2" ry="2" fill="#161b22"/><rect x="254" y="104" width="11" height="11" rx="2" ry="2" fill="#161b22"/><rect x="268" y="20" width="11" height="11" rx="2" ry="2" fill="#161b22"/><rect x="268" y="34" width="11" height="11" rx="2" ry="2" fill="#161b22"/><rect x="268" y="48" width="11" height="11" rx="2" ry="2" fill="#161b22"/><rect x="268" y="62" width="11" height="11" rx="2" ry="2" fill="#161b22"/><rect x="268" y="76" width="11" height="11" rx="2" ry="2" fill="#161b22"/><rect x="268" y="90" width="11" height="11" rx="2" ry="2" fill="#161b22"/><rect x="268" y="104" width="11" height="11" rx="2" ry="2" fill="#161b22"/><rect x="282" y="20" width="11" height="11" rx="2" ry="2" fill="#161b22"/><rect x="282" y="34" width="11" height="11" rx="2" ry="2" fill="#161b22"/><rect x="282" y="48" width="11" height="11" rx="2" ry="2" fill="#161b22"/><rect x="282" y="62" width="11" height="11" rx="2" ry="2" fill="#161b22"/><rect x="282" y="76" width="11" height="11" rx="2" ry="2" fill="#161b22"/><rect x="282" y="90" width="11" height="11" rx="2" ry="2" fill="#161b22"/><rect x="282" y="104" width="11" height="11" rx="2" ry="2" fill="#161b22"/><rect x="296" y="20" width="11" height="11" rx="2" ry="2" fill="#161b22"/><rect x="296" y="34" width="11" height="11" rx="2" ry="2" fill="#161b22"/><rect x="296" y="48" width="11" height="11" rx="2" ry="2" fill="#161b22"/><rect x="296" y="62" width="11" height="11" rx="2" ry="2" fill="#161b22"/><rect x="296" y="76" width="11" height="11" rx="2" ry="2" fill="#161b22"/><rect x="296" y="90" width="11" height="11" rx="2" ry="2" fill="#161b22"/><rect x="296" y="104" width="11" height="11" rx="2" ry="2" fill="#161b22"/><rect x="310" y="20" width="11" height="11" rx="2" ry="2" fill="#161b22"/><rect x="310" y="34" width="11" height="11" rx="2" ry="2" fill="#161b22"/><rect x="310" y="48" width="11" height="11" rx="2" ry="2" fill="#161b22"/><rect x="310" y="62" width="11" height="11" rx="2" ry="2" fill="#161b22"/><rect x="310" y="76" width="11" height="11" rx="2" ry="2" fill="#161b22"/><rect x="310" y="90" width="11" height="11" rx="2" ry="2" fill="#161b22"/><rect x="310" y="104" width="11" height="11" rx="2" ry="2" fill="#161b22"/><rect x="324" y="20" width="11" height="11" rx="2" ry="2" fill="#161b22"/><rect x="324" y="34" width="11" height="11" rx="2" ry="2" fill="#161b22"/><rect x="324" y="48" width="11" height="11" rx="2" ry="2" fill="#161b22"/><rect x="324" y="62" width="11" height="11" rx="2" ry="2" fill="#161b22"/><rect x="324" y="76" width="11" height="11" rx="2" ry="2" fill="#161b22"/><rect x="324" y="90" width="11" height="11" rx="2" ry="2" fill="#161b22"/><rect x="324" y="104" width="11" height="11" rx="2" ry="2" fill="#161b22"/><rect x="338" y="20" width="11" height="11" rx="2" ry="2" fill="#161b22"/><rect x="338" y="34" width="11" height="11" rx="2" ry="2" fill="#161b22"/><rect x="338" y="48" width="11" height="11" rx="2" ry="2" fill="#161b22"/><rect x="338" y="62" width="11" height="11" rx="2" ry="2" fill="#161b22"/><rect x="338" y="76" width="11" height="11" rx="2" ry="2" fill="#161b22"/><rect x="338" y="90" width="11" height="11" rx="2" ry="2" fill="#161b22"/><rect x="338" y="104" width="11" height="11" rx="2" ry="2" fill="#161b22"/><rect x="352" y="20" width="11" height="11" rx="2" ry="2" fill="#161b22"/><rect x="352" y="34" width="11" height="11" rx="2" ry="2" fill="#161b22"/><rect x="352" y="48" width="11" height="11" rx="2" ry="2" fill="#161b22"/><rect x="352" y="62" width="11" height="11" rx="2" ry="2" fill="#161b22"/><rect x="352" y="76" width="11" height="11" rx="2" ry="2" fill="#161b22"/><rect x="352" y="90" width="11" height="11" rx="2" ry="2" fill="#161b22"/><rect x="352" y="104" width="11" height="11" rx="2" ry="2" fill="#161b22"/><rect x="366" y="20" width="11" height="11" rx="2" ry="2" fill="#161b22"/><rect x="366" y="34" width="11" height="11" rx="2" ry="2" fill="#161b22"/><rect x="366" y="48" width="11" height="11" rx="2" ry="2" fill="#161b22"/><rect x="366" y="62" width="11" height="11" rx="2" ry="2" fill="#161b22"/><rect x="366" y="76" width="11" height="11" rx="2" ry="2" fill="#161b22"/><rect x="366" y="90" width="11" height="11" rx="2" ry="2" fill="#161b22"/><rect x="366" y="104" width="11" height="11" rx="2" ry="2" fill="#161b22"/><rect x="380" y="20" width="11" height="11" rx="2" ry="2" fill="#161b22"/><rect x="380" y="34" width="11" height="11" rx="2" ry="2" fill="#161b22"/><rect x="380" y="48" width="11" height="11" rx="2" ry="2" fill="#161b22"/><rect x="380" y="62" width="11" height="11" rx="2" ry="2" fill="#161b22"/><rect x="380" y="76" width="11" height="11" rx="2" ry="2" fill="#161b22"/><rect x="380" y="90" width="11" height="11" rx="2" ry="2" fill="#161b22"/><rect x="380" y="104" width="11" height="11" rx="2" ry="2" fill="#161b22"/><rect x="394" y="20" width="11" height="11" rx="2" ry="2" fill="#161b22"/><rect x="394" y="34" width="11" height="11" rx="2" ry="2" fill="#161b22"/><rect x="394" y="48" width="11" height="11" rx="2" ry="2" fill="#161b22"/><rect x="394" y="62" width="11" height="11" rx="2" ry="2" fill="#161b22"/><rect x="394" y="76" width="11" height="11" rx="2" ry="2" fill="#161b22"/><rect x="394" y="90" width="11" height="11" rx="2" ry="2" fill="#161b22"/><rect x="394" y="104" width="11" height="11" rx="2" ry="2" fill="#161b22"/><rect x="408" y="20" width="11" height="11" rx="2" ry="2" fill="#161b22"/><rect x="408" y="34" width="11" height="11" rx="2" ry="2" fill="#0e4429"/><rect x="408" y="48" width="11" height="11" rx="2" ry="2" fill="#161b22"/><rect x="408" y="62" width="11" height="11" rx="2" ry="2" fill="#161b22"/><rect x="408" y="76" width="11" height="11" rx="2" ry="2" fill="#161b22"/><rect x="408" y="90" width="11" height="11" rx="2" ry="2" fill="#006d32"/><rect x="408" y="104" width="11" height="11" rx="2" ry="2" fill="#0e4429"/><rect x="422" y="20" width="11" height="11" rx="2" ry="2" fill="#161b22"/><rect x="422" y="34" width="11" height="11" rx="2" ry="2" fill="#0e4429"/><rect x="422" y="48" width="11" height="11" rx="2" ry="2" fill="#161b22"/><rect x="422" y="62" width="11" height="11" rx="2" ry="2" fill="#161b22"/><rect x="422" y="76" width="11" height="11" rx="2" ry="2" fill="#161b22"/><rect x="422" y="90" width="11" height="11" rx="2" ry="2" fill="#0e4429"/><rect x="422" y="104" width="11" height="11" rx="2" ry="2" fill="#161b22"/><rect x="436" y="20" width="11" height="11" rx="2" ry="2" fill="#0e4429"/><rect x="436" y="34" width="11" height="11" rx="2" ry="2" fill="#0e4429"/><rect x="436" y="48" width="11" height="11" rx="2" ry="2" fill="#0e4429"/><rect x="436" y="62" width="11" height="11" rx="2" ry="2" fill="#161b22"/><rect x="436" y="76" width="11" height="11" rx="2" ry="2" fill="#0e4429"/><rect x="436" y="90" width="11" height="11" rx="2" ry="2" fill="#161b22"/><rect x="436" y="104" width="11" height="11" rx="2" ry="2" fill="#006d32"/><rect x="450" y="20" width="11" height="11" rx="2" ry="2" fill="#161b22"/><rect x="450" y="34" width="11" height="11" rx="2" ry="2" fill="#161b22"/><rect x="450" y="48" width="11" height="11" rx="2" ry="2" fill="#0e4429"/><rect x="450" y="62" width="11" height="11" rx="2" ry="2" fill="#161b22"/><rect x="450" y="76" width="11" height="11" rx="2" ry="2" fill="#161b22"/><rect x="450" y="90" width="11" height="11" rx="2" ry="2" fill="#006d32"/><rect x="450" y="104" width="11" height="11" rx="2" ry="2" fill="#0e4429"/><rect x="464" y="20" width="11" height="11" rx="2" ry="2" fill="#0e4429"/><rect x="464" y="34" width="11" height="11" rx="2" ry="2" fill="#161b22"/><rect x="464" y="48" width="11" height="11" rx="2" ry="2" fill="#161b22"/><rect x="464" y="62" width="11" height="11" rx="2" ry="2" fill="#006d32"/><rect x="464" y="76" width="11" height="11" rx="2" ry="2" fill="#161b22"/><rect x="464" y="90" width="11" height="11" rx="2" ry="2" fill="#161b22"/><rect x="464" y="104" width="11" height="11" rx="2" ry="2" fill="#161b22"/><rect x="478" y="20" width="11" height="11" rx="2" ry="2" fill="#161b22"/><rect x="478" y="34" width="11" height="11" rx="2" ry="2" fill="#0e4429"/><rect x="478" y="48" width="11" height="11" rx="2" ry="2" fill="#0e4429"/><rect x="478" y="62" width="11" height="11" rx="2" ry="2" fill="#0e4429"/><rect x="478" y="76" width="11" height="11" rx="2" ry="2" fill="#161b22"/><rect x="478" y="90" width="11" height="11" rx="2" ry="2" fill="#006d32"/><rect x="478" y="104" width="11" height="11" rx="2" ry="2" fill="#0e4429"/><rect x="492" y="20" width="11" height="11" rx="2" ry="2" fill="#0e4429"/><rect x="492" y="34" width="11" height="11" rx="2" ry="2" fill="#0e4429"/><rect x="492" y="48" width="11" height="11" rx="2" ry="2" fill="#161b22"/><rect x="492" y="62" width="11" height="11" rx="2" ry="2" fill="#006d32"/><rect x="492" y="76" width="11" height="11" rx="2" ry="2" fill="#0e4429"/><rect x="492" y="90" width="11" height="11" rx="2" ry="2" fill="#0e4429"/><rect x="492" y="104" width="11" height="11" rx="2" ry="2" fill="#161b22"/><rect x="506" y="20" width="11" height="11" rx="2" ry="2" fill="#161b22"/><rect x="506" y="34" width="11" height="11" rx="2" ry="2" fill="#161b22"/><rect x="506" y="48" width="11" height="11" rx="2" ry="2" fill="#161b22"/><rect x="506" y="62" width="11" height="11" rx="2" ry="2" fill="#161b22"/><rect x="506" y="76" width="11" height="11" rx="2" ry="2" fill="#161b22"/><rect x="506" y="90" width="11" height="11" rx="2" ry="2" fill="#161b22"/><rect x="506" y="104" width="11" height="11" rx="2" ry="2" fill="#161b22"/><rect x="520" y="20" width="11" height="11" rx="2" ry="2" fill="#006d32"/><rect x="520" y="34" width="11" height="11" rx="2" ry="2" fill="#161b22"/><rect x="520" y="48" width="11" height="11" rx="2" ry="2" fill="#161b22"/><rect x="520" y="62" width="11" height="11" rx="2" ry="2" fill="#0e4429"/><rect x="520" y="76" width="11" height="11" rx="2" ry="2" fill="#0e4429"/><rect x="520" y="90" width="11" height="11" rx="2" ry="2" fill="#161b22"/><rect x="520" y="104" width="11" height="11" rx="2" ry="2" fill="#006d32"/><rect x="534" y="20" width="11" height="11" rx="2" ry="2" fill="#161b22"/><rect x="534" y="34" width="11" height="11" rx="2" ry="2" fill="#0e4429"/><rect x="534" y="48" width="11" height="11" rx="2" ry="2" fill="#161b22"/><rect x="534" y="62" width="11" height="11" rx="2" ry="2" fill="#0e4429"/><rect x="534" y="76" width="11" height="11" rx="2" ry="2" fill="#161b22"/><rect x="534" y="90" width="11" height="11" rx="2" ry="2" fill="#161b22"/><rect x="534" y="104" width="11" height="11" rx="2" ry="2" fill="#006d32"/><rect x="548" y="20" width="11" height="11" rx="2" ry="2" fill="#0e4429"/><rect x="548" y="34" width="11" height="11" rx="2" ry="2" fill="#0e4429"/><rect x="548" y="48" width="11" height="11" rx="2" ry="2" fill="#161b22"/><rect x="548" y="62" width="11" height="11" rx="2" ry="2" fill="#006d32"/><rect x="548" y="76" width="11" height="11" rx="2" ry="2" fill="#0e4429"/><rect x="548" y="90" width="11" height="11" rx="2" ry="2" fill="#161b22"/><rect x="548" y="104" width="11" height="11" rx="2" ry="2" fill="#161b22"/><rect x="562" y="20" width="11" height="11" rx="2" ry="2" fill="#161b22"/><rect x="562" y="34" width="11" height="11" rx="2" ry="2" fill="#161b22"/><rect x="562" y="48" width="11" height="11" rx="2" ry="2" fill="#0e4429"/><rect x="562" y="62" width="11" height="11" rx="2" ry="2" fill="#161b22"/><rect x="562" y="76" width="11" height="11" rx="2" ry="2" fill="#0e4429"/><rect x="562" y="90" width="11" height="11" rx="2" ry="2" fill="#161b22"/><rect x="562" y="104" width="11" height="11" rx="2" ry="2" fill="#161b22"/><rect x="576" y="20" width="11" height="11" rx="2" ry="2" fill="#0e4429"/><rect x="576" y="34" width="11" height="11" rx="2" ry="2" fill="#161b22"/><rect x="576" y="48" width="11" height="11" rx="2" ry="2" fill="#161b22"/><rect x="576" y="62" width="11" height="11" rx="2" ry="2" fill="#161b22"/><rect x="576" y="76" width="11" height="11" rx="2" ry="2" fill="#0e4429"/><rect x="576" y="90" width="11" height="11" rx="2" ry="2" fill="#161b22"/><rect x="576" y="104" width="11" height="11" rx="2" ry="2" fill="#0e4429"/><rect x="590" y="20" width="11" height="11" rx="2" ry="2" fill="#161b22"/><rect x="590" y="34" width="11" height="11" rx="2" ry="2" fill="#0e4429"/><rect x="590" y="48" width="11" height="11" rx="2" ry="2" fill="#0e4429"/><rect x="590" y="62" width="11" height="11" rx="2" ry="2" fill="#006d32"/><rect x="590" y="76" width="11" height="11" rx="2" ry="2" fill="#0e4429"/><rect x="590" y="90" width="11" height="11" rx="2" ry="2" fill="#161b22"/><rect x="590" y="104" width="11" height="11" rx="2" ry="2" fill="#161b22"/><rect x="604" y="20" width="11" height="11" rx="2" ry="2" fill="#0e4429"/><rect x="604" y="34" width="11" height="11" rx="2" ry="2" fill="#0e4429"/><rect x="604" y="48" width="11" height="11" rx="2" ry="2" fill="#0e4429"/><rect x="604" y="62" width="11" height="11" rx="2" ry="2" fill="#161b22"/><rect x="604" y="76" width="11" height="11" rx="2" ry="2" fill="#161b22"/><rect x="604" y="90" width="11" height="11" rx="2" ry="2" fill="#161b22"/><rect x="604" y="104" width="11" height="11" rx="2" ry="2" fill="#161b22"/><rect x="618" y="20" width="11" height="11" rx="2" ry="2" fill="#161b22"/><rect x="618" y="34" width="11" height="11" rx="2" ry="2" fill="#006d32"/><rect x="618" y="48" width="11" height="11" rx="2" ry="2" fill="#161b22"/><rect x="618" y="62" width="11" height="11" rx="2" ry="2" fill="#0e4429"/><rect x="618" y="76" width="11" height="11" rx="2" ry="2" fill="#161b22"/><rect x="618" y="90" width="11" height="11" rx="2" ry="2" fill="#161b22"/><rect x="618" y="104" width="11" height="11" rx="2" ry="2" fill="#161b22"/><rect x="632" y="20" width="11" height="11" rx="2" ry="2" fill="#0e4429"/><rect x="632" y="34" width="11" height="11" rx="2" ry="2" fill="#0e4429"/><rect x="632" y="48" width="11" height="11" rx="2" ry="2" fill="#161b22"/><rect x="632" y="62" width="11" height="11" rx="2" ry="2" fill="#0e4429"/><rect x="632" y="76" width="11" height="11" rx="2" ry="2" fill="#006d32"/><rect x="632" y="90" width="11" height="11" rx="2" ry="2" fill="#0e4429"/><rect x="632" y="104" width="11" height="11" rx="2" ry="2" fill="#0e4429"/><rect x="646" y="20" width="11" height="11" rx="2" ry="2" fill="#161b22"/><rect x="646" y="34" width="11" height="11" rx="2" ry="2" fill="#006d32"/><rect x="646" y="48" width="11" height="11" rx="2" ry="2" fill="#006d32"/><rect x="646" y="62" width="11" height="11" rx="2" ry="2" fill="#161b22"/><rect x="646" y="76" width="11" height="11" rx="2" ry="2" fill="#0e4429"/><rect x="646" y="90" width="11" height="11" rx="2" ry="2" fill="#161b22"/><rect x="646" y="104" width="11" height="11" rx="2" ry="2" fill="#006d32"/><rect x="660" y="20" width="11" height="11" rx="2" ry="2" fill="#161b22"/><rect x="660" y="34" width="11" height="11" rx="2" ry="2" fill="#0e4429"/><rect x="660" y="48" width="11" height="11" rx="2" ry="2" fill="#0e4429"/><rect x="660" y="62" width="11" height="11" rx="2" ry="2" fill="#161b22"/><rect x="660" y="76" width="11" height="11" rx="2" ry="2" fill="#161b22"/><rect x="660" y="90" width="11" height="11" rx="2" ry="2" fill="#006d32"/><rect x="660" y="104" width="11" height="11" rx="2" ry="2" fill="#0e4429"/><rect x="674" y="20" width="11" height="11" rx="2" ry="2" fill="#0e4429"/><rect x="674" y="34" width="11" height="11" rx="2" ry="2" fill="#0e4429"/><rect x="674" y="48" width="11" height="11" rx="2" ry="2" fill="#0e4429"/><rect x="674" y="62" width="11" height="11" rx="2" ry="2" fill="#161b22"/><rect x="674" y="76" width="11" height="11" rx="2" ry="2" fill="#161b22"/><rect x="674" y="90" width="11" height="11" rx="2" ry="2" fill="#0e4429"/><rect x="674" y="104" width="11" height="11" rx="2" ry="2" fill="#161b22"/><rect x="688" y="20" width="11" height="11" rx="2" ry="2" fill="#0e4429"/><rect x="688" y="34" width="11" height="11" rx="2" ry="2" fill="#0e4429"/><rect x="688" y="48" width="11" height="11" rx="2" ry="2" fill="#161b22"/><rect x="688" y="62" width="11" height="11" rx="2" ry="2" fill="#161b22"/><rect x="688" y="76" width="11" height="11" rx="2" ry="2" fill="#161b22"/><rect x="688" y="90" width="11" height="11" rx="2" ry="2" fill="#0e4429"/><rect x="688" y="104" width="11" height="11" rx="2" ry="2" fill="#39d353"/><rect x="702" y="20" width="11" height="11" rx="2" ry="2" fill="#39d353"/><rect x="702" y="34" width="11" height="11" rx="2" ry="2" fill="#0e4429"/><rect x="702" y="48" width="11" height="11" rx="2" ry="2" fill="#39d353"/><rect x="702" y="62" width="11" height="11" rx="2" ry="2" fill="#39d353"/><rect x="702" y="76" width="11" height="11" rx="2" ry="2" fill="#26a641"/><rect x="702" y="90" width="11" height="11" rx="2" ry="2" fill="#0e4429"/><rect x="702" y="104" width="11" height="11" rx="2" ry="2" fill="#006d32"/><rect x="716" y="20" width="11" height="11" rx="2" ry="2" fill="#006d32"/><rect x="716" y="34" width="11" height="11" rx="2" ry="2" fill="#161b22"/><rect x="716" y="48" width="11" height="11" rx="2" ry="2" fill="#0e4429"/><rect x="716" y="62" width="11" height="11" rx="2" ry="2" fill="#0e4429"/><rect x="716" y="76" width="11" height="11" rx="2" ry="2" fill="#0e4429"/><rect x="716" y="90" width="11" height="11" rx="2" ry="2" fill="#39d353"/><rect x="716" y="104" width="11" height="11" rx="2" ry="2" fill="#39d353"/><rect x="730" y="20" width="11" height="11" rx="2" ry="2" fill="#26a641"/><rect x="730" y="34" width="11" height="11" rx="2" ry="2" fill="#39d353"/><rect x="730" y="48" width="11" height="11" rx="2" ry="2" fill="#39d353"/><rect x="730" y="62" width="11" height="11" rx="2" ry="2" fill="#26a641"/><rect x="730" y="76" width="11" height="11" rx="2" ry="2" fill="#39d353"/><rect x="730" y="90" width="11" height="11" rx="2" ry="2" fill="#39d353"/><rect x="730" y="104" width="11" height="11" rx="2" ry="2" fill="#39d353"/><rect x="744" y="20" width="11" height="11" rx="2" ry="2" fill="#39d353"/><rect x="744" y="34" width="11" height="11" rx="2" ry="2" fill="#26a641"/><rect x="744" y="48" width="11" height="11" rx="2" ry="2" fill="#39d353"/><rect x="744" y="62" width="11" height="11" rx="2" ry="2" fill="#39d353"/><rect x="744" y="76" width="11" height="11" rx="2" ry="2" fill="#26a641"/><rect x="744" y="90" width="11" height="11" rx="2" ry="2" fill="#006d32"/><rect x="744" y="104" width="11" height="11" rx="2" ry="2" fill="#0e4429"/><rect x="758" y="20" width="11" height="11" rx="2" ry="2" fill="#0e4429"/><rect x="758" y="34" width="11" height="11" rx="2" ry="2" fill="#006d32"/><rect x="758" y="48" width="11" height="11" rx="2" ry="2" fill="#39d353"/><rect x="758" y="62" width="11" height="11" rx="2" ry="2" fill="#39d353"/><text x="386" y="133" fill="#39d353" font-size="11" text-anchor="middle">+4816 contributions</text></svg>