<svg xmlns="http://www.w3.org/2000/svg" width="888" height="164" style="background:#0D111700;font-family: -apple-system, BlinkMacSystemFont, 'Segoe UI', Roboto, 'Helvetica Neue', Arial, sans-serif;" shape-rendering="geometricPrecision">
<text x="440" y="17" fill="#fff" font-size="15">Jan</text>
<text x="504" y="17" fill="#fff" font-size="15">Feb</text>
<text x="568" y="17" fill="#fff" font-size="15">Mar</text>
<text x="648" y="17" fill="#fff" font-size="15">Apr</text>
<text x="712" y="17" fill="#fff" font-size="15">May</text>
<text x="776" y="17" fill="#fff" font-size="15">Jun</text>
<text x="40" y="17" fill="#fff" font-size="15">Jul</text>
<text x="856" y="17" fill="#fff" font-size="15">Jul</text>
<text x="88" y="17" fill="#fff" font-size="15">Aug</text>
<text x="152" y="17" fill="#fff" font-size="15">Sep</text>
<text x="232" y="17" fill="#fff" font-size="15">Oct</text>
<text x="296" y="17" fill="#fff" font-size="15">Nov</text>
<text x="360" y="17" fill="#fff" font-size="15">Dec</text>
<text x="4" y="46" fill="#fff" font-size="15" dominant-baseline="middle">Mon</text>
<text x="4" y="78" fill="#fff" font-size="15" dominant-baseline="middle">Wed</text>
<text x="4" y="110" fill="#fff" font-size="15" dominant-baseline="middle">Fri</text>
<rect x="40" y="22" width="13" height="13" rx="2" ry="2" fill="#1c7293"/>
<rect x="40" y="38" width="13" height="13" rx="2" ry="2" fill="#ffd700"/>
<rect x="40" y="54" width="13" height="13" rx="2" ry="2" fill="#113f67"/>
<rect x="40" y="70" width="13" height="13" rx="2" ry="2" fill="#113f67"/>
<rect x="40" y="86" width="13" height="13" rx="2" ry="2" fill="#00bfff"/>
<rect x="40" y="102" width="13" height="13" rx="2" ry="2" fill="#00bfff"/>
<rect x="40" y="118" width="13" height="13" rx="2" ry="2" fill="#1c7293"/>
<rect x="56" y="22" width="13" height="13" rx="2" ry="2" fill="#1a1a2e"/>
<rect x="56" y="38" width="13" height="13" rx="2" ry="2" fill="#00bfff"/>
<rect x="56" y="54" width="13" height="13" rx="2" ry="2" fill="#113f67"/>
<rect x="56" y="70" width="13" height="13" rx="2" ry="2" fill="#1c7293"/>
<rect x="56" y="86" width="13" height="13" rx="2" ry="2" fill="#1a1a2e"/>
<rect x="56" y="102" width="13" height="13" rx="2" ry="2" fill="#00bfff"/>
<rect x="56" y="118" width="13" height="13" rx="2" ry="2" fill="#1a1a2e"/>
<rect x="72" y="22" width="13" height="13" rx="2" ry="2" fill="#00bfff"/>
<rect x="72" y="38" width="13" height="13" rx="2" ry="2" fill="#113f67"/>
<rect x="72" y="54" width="13" height="13" rx="2" ry="2" fill="#ffd700"/>
<rect x="72" y="70" width="13" height="13" rx="2" ry="2" fill="#113f67"/>
<rect x="72" y="86" width="13" height="13" rx="2" ry="2" fill="#113f67"/>
<rect x="72" y="102" width="13" height="13" rx="2" ry="2" fill="#1c7293"/>
<rect x="72" y="118" width="13" height="13" rx="2" ry="2" fill="#00bfff"/>
<rect x="88" y="22" width="13" height="13" rx="2" ry="2" fill="#1c7293"/>
<rect x="88" y="38" width="13" height="13" rx="2" ry="2" fill="#1c7293"/>
<rect x="88" y="54" width="13" height="13" rx="2" ry="2" fill="#113f67"/>
<rect x="88" y="70" width="13" height="13" rx="2" ry="2" fill="#00bfff"/>
<rect x="88" y="86" width="13" height="13" rx="2" ry="2" fill="#1a1a2e"/>
<rect x="88" y="102" width="13" height="13" rx="2" ry="2" fill="#1a1a2e"/>
<rect x="88" y="118" width="13" height="13" rx="2" ry="2" fill="#113f67"/>
<rect x="104" y="22" width="13" height="13" rx="2" ry="2" fill="#1a1a2e"/>
<rect x="104" y="38" width="13" height="13" rx="2" ry="2" fill="#ffd700"/>
<rect x="104" y="54" width="13" height="13" rx="2" ry="2" fill="#113f67"/>
<rect x="104" y="70" width="13" height="13" rx="2" ry="2" fill="#00bfff"/>
<rect x="104" y="86" width="13" height="13" rx="2" ry="2" fill="#00bfff"/>
<rect x="104" y="102" width="13" height="13" rx="2" ry="2" fill="#00bfff"/>
<rect x="104" y="118" width="13" height="13" rx="2" ry="2" fill="#00bfff"/>
<rect x="120" y="22" width="13" height="13" rx="2" ry="2" fill="#113f67"/>
<rect x="120" y="38" width="13" height="13" rx="2" ry="2" fill="#00bfff"/>
<rect x="120" y="54" width="13" height="13" rx="2" ry="2" fill="#113f67"/>
<rect x="120" y="70" width="13" height="13" rx="2" ry="2" fill="#00bfff"/>
<rect x="120" y="86" width="13" height="13" rx="2" ry="2" fill="#1c7293"/>
<rect x="120" y="102" width="13" height="13" rx="2" ry="2" fill="#00bfff"/>
<rect x="120" y="118" width="13" height="13" rx="2" ry="2" fill="#00bfff"/>
<rect x="136" y="22" width="13" height="13" rx="2" ry="2" fill="#1a1a2e"/>
<rect x="136" y="38" width="13" height="13" rx="2" ry="2" fill="#113f67"/>
<rect x="136" y="54" width="13" height="13" rx="2" ry="2" fill="#113f67"/>
<rect x="136" y="70" width="13" height="13" rx="2" ry="2" fill="#1a1a2e"/>
<rect x="136" y="86" width="13" height="13" rx="2" ry="2" fill="#113f67"/>
<rect x="136" y="102" width="13" height="13" rx="2" ry="2" fill="#113f67"/>
<rect x="136" y="118" width="13" height="13" rx="2" ry="2" fill="#113f67"/>
<rect x="152" y="22" width="13" height="13" rx="2" ry="2" fill="#00bfff"/>
<rect x="152" y="38" width="13" height="13" rx="2" ry="2" fill="#ffd700"/>
<rect x="152" y="54" width="13" height="13" rx="2" ry="2" fill="#113f67"/>
<rect x="152" y="70" width="13" height="13" rx="2" ry="2" fill="#00bfff"/>
<rect x="152" y="86" width="13" height="13" rx="2" ry="2" fill="#1a1a2e"/>
<rect x="152" y="102" width="13" height="13" rx="2" ry="2" fill="#00bfff"/>
<rect x="152" y="118" width="13" height="13" rx="2" ry="2" fill="#1a1a2e"/>
<rect x="168" y="22" width="13" height="13" rx="2" ry="2" fill="#1c7293"/>
<rect x="168" y="38" width="13" height="13" rx="2" ry="2" fill="#113f67"/>
<rect x="168" y="54" width="13" height="13" rx="2" ry="2" fill="#00bfff"/>
<rect x="168" y="70" width="13" height="13" rx="2" ry="2" fill="#1c7293"/>
<rect x="168" y="86" width="13" height="13" rx="2" ry="2" fill="#00bfff"/>
<rect x="168" y="102" width="13" height="13" rx="2" ry="2" fill="#113f67"/>
<rect x="168" y="118" width="13" height="13" rx="2" ry="2" fill="#1c7293"/>
<rect x="184" y="22" width="13" height="13" rx="2" ry="2" fill="#ffd700"/>
<rect x="184" y="38" width="13" height="13" rx="2" ry="2" fill="#113f67"/>
<rect x="184" y="54" width="13" height="13" rx="2" ry="2" fill="#ffd700"/>
<rect x="184" y="70" width="13" height="13" rx="2" ry="2" fill="#113f67"/>
<rect x="184" y="86" width="13" height="13" rx="2" ry="2" fill="#1c7293"/>
<rect x="184" y="102" width="13" height="13" rx="2" ry="2" fill="#00bfff"/>
<rect x="184" y="118" width="13" height="13" rx="2" ry="2" fill="#1c7293"/>
<rect x="200" y="22" width="13" height="13" rx="2" ry="2" fill="#ffd700"/>
<rect x="200" y="38" width="13" height="13" rx="2" ry="2" fill="#1a1a2e"/>
<rect x="200" y="54" width="13" height="13" rx="2" ry="2" fill="#00bfff"/>
<rect x="200" y="70" width="13" height="13" rx="2" ry="2" fill="#00bfff"/>
<rect x="200" y="86" width="13" height="13" rx="2" ry="2" fill="#00bfff"/>
<rect x="200" y="102" width="13" height="13" rx="2" ry="2" fill="#1c7293"/>
<rect x="200" y="118" width="13" height="13" rx="2" ry="2" fill="#00bfff"/>
<rect x="216" y="22" width="13" height="13" rx="2" ry="2" fill="#1c7293"/>
<rect x="216" y="38" width="13" height="13" rx="2" ry="2" fill="#1c7293"/>
<rect x="216" y="54" width="13" height="13" rx="2" ry="2" fill="#1c7293"/>
<rect x="216" y="70" width="13" height="13" rx="2" ry="2" fill="#00bfff"/>
<rect x="216" y="86" width="13" height="13" rx="2" ry="2" fill="#00bfff"/>
<rect x="216" y="102" width="13" height="13" rx="2" ry="2" fill="#00bfff"/>
<rect x="216" y="118" width="13" height="13" rx="2" ry="2" fill="#1c7293"/>
<rect x="232" y="22" width="13" height="13" rx="2" ry="2" fill="#00bfff"/>
<rect x="232" y="38" width="13" height="13" rx="2" ry="2" fill="#1a1a2e"/>
<rect x="232" y="54" width="13" height="13" rx="2" ry="2" fill="#113f67"/>
<rect x="232" y="70" width="13" height="13" rx="2" ry="2" fill="#113f67"/>
<rect x="232" y="86" width="13" height="13" rx="2" ry="2" fill="#1c7293"/>
<rect x="232" y="102" width="13" height="13" rx="2" ry="2" fill="#113f67"/>
<rect x="232" y="118" width="13" height="13" rx="2" ry="2" fill="#00bfff"/>
<rect x="248" y="22" width="13" height="13" rx="2" ry="2" fill="#ffd700"/>
<rect x="248" y="38" width="13" height="13" rx="2" ry="2" fill="#1a1a2e"/>
<rect x="248" y="54" width="13" height="13" rx="2" ry="2" fill="#00bfff"/>
<rect x="248" y="70" width="13" height="13" rx="2" ry="2" fill="#113f67"/>
<rect x="248" y="86" width="13" height="13" rx="2" ry="2" fill="#113f67"/>
<rect x="248" y="102" width="13" height="13" rx="2" ry="2" fill="#00bfff"/>
<rect x="248" y="118" width="13" height="13" rx="2" ry="2" fill="#113f67"/>
<rect x="264" y="22" width="13" height="13" rx="2" ry="2" fill="#00bfff"/>
<rect x="264" y="38" width="13" height="13" rx="2" ry="2" fill="#00bfff"/>
<rect x="264" y="54" width="13" height="13" rx="2" ry="2" fill="#00bfff"/>
<rect x="264" y="70" width="13" height="13" rx="2" ry="2" fill="#ffd700"/>
<rect x="264" y="86" width="13" height="13" rx="2" ry="2" fill="#00bfff"/>
<rect x="264" y="102" width="13" height="13" rx="2" ry="2" fill="#00bfff"/>
<rect x="264" y="118" width="13" height="13" rx="2" ry="2" fill="#00bfff"/>
<rect x="280" y="22" width="13" height="13" rx="2" ry="2" fill="#ffd700"/>
<rect x="280" y="38" width="13" height="13" rx="2" ry="2" fill="#113f67"/>
<rect x="280" y="54" width="13" height="13" rx="2" ry="2" fill="#1a1a2e"/>
<rect x="280" y="70" width="13" height="13" rx="2" ry="2" fill="#ffd700"/>
<rect x="280" y="86" width="13" height="13" rx="2" ry="2" fill="#1c7293"/>
<rect x="280" y="102" width="13" height="13" rx="2" ry="2" fill="#ffd700"/>
<rect x="280" y="118" width="13" height="13" rx="2" ry="2" fill="#ffd700"/>
<rect x="296" y="22" width="13" height="13" rx="2" ry="2" fill="#00bfff"/>
<rect x="296" y="38" width="13" height="13" rx="2" ry="2" fill="#ffd700"/>
<rect x="296" y="54" width="13" height="13" rx="2" ry="2" fill="#00bfff"/>
<rect x="296" y="70" width="13" height="13" rx="2" ry="2" fill="#113f67"/>
<rect x="296" y="86" width="13" height="13" rx="2" ry="2" fill="#00bfff"/>
<rect x="296" y="102" width="13" height="13" rx="2" ry="2" fill="#113f67"/>
<rect x="296" y="118" width="13" height="13" rx="2" ry="2" fill="#00bfff"/>
<rect x="312" y="22" width="13" height="13" rx="2" ry="2" fill="#113f67"/>
<rect x="312" y="38" width="13" height="13" rx="2" ry="2" fill="#00bfff"/>
<rect x="312" y="54" width="13" height="13" rx="2" ry="2" fill="#00bfff"/>
<rect x="312" y="70" width="13" height="13" rx="2" ry="2" fill="#00bfff"/>
<rect x="312" y="86" width="13" height="13" rx="2" ry="2" fill="#ffd700"/>
<rect x="312" y="102" width="13" height="13" rx="2" ry="2" fill="#00bfff"/>
<rect x="312" y="118" width="13" height="13" rx="2" ry="2" fill="#00bfff"/>
<rect x="328" y="22" width="13" height="13" rx="2" ry="2" fill="#00bfff"/>
<rect x="328" y="38" width="13" height="13" rx="2" ry="2" fill="#ffd700"/>
<rect x="328" y="54" width="13" height="13" rx="2" ry="2" fill="#00bfff"/>
<rect x="328" y="70" width="13" height="13" rx="2" ry="2" fill="#1c7293"/>
<rect x="328" y="86" width="13" height="13" rx="2" ry="2" fill="#1a1a2e"/>
<rect x="328" y="102" width="13" height="13" rx="2" ry="2" fill="#00bfff"/>
<rect x="328" y="118" width="13" height="13" rx="2" ry="2" fill="#00bfff"/>
<rect x="344" y="22" width="13" height="13" rx="2" ry="2" fill="#00bfff"/>
<rect x="344" y="38" width="13" height="13" rx="2" ry="2" fill="#113f67"/>
<rect x="344" y="54" width="13" height="13" rx="2" ry="2" fill="#ffd700"/>
<rect x="344" y="70" width="13" height="13" rx="2" ry="2" fill="#113f67"/>
<rect x="344" y="86" width="13" height="13" rx="2" ry="2" fill="#1a1a2e"/>
<rect x="344" y="102" width="13" height="13" rx="2" ry="2" fill="#1a1a2e"/>
<rect x="344" y="118" width="13" height="13" rx="2" ry="2" fill="#1a1a2e"/>
<rect x="360" y="22" width="13" height="13" rx="2" ry="2" fill="#00bfff"/>
<rect x="360" y="38" width="13" height="13" rx="2" ry="2" fill="#ffd700"/>
<rect x="360" y="54" width="13" height="13" rx="2" ry="2" fill="#00bfff"/>
<rect x="360" y="70" width="13" height="13" rx="2" ry="2" fill="#113f67"/>
<rect x="360" y="86" width="13" height="13" rx="2" ry="2" fill="#ffd700"/>
<rect x="360" y="102" width="13" height="13" rx="2" ry="2" fill="#1a1a2e"/>
<rect x="360" y="118" width="13" height="13" rx="2" ry="2" fill="#113f67"/>
<rect x="376" y="22" width="13" height="13" rx="2" ry="2" fill="#00bfff"/>
<rect x="376" y="38" width="13" height="13" rx="2" ry="2" fill="#113f67"/>
<rect x="376" y="54" width="13" height="13" rx="2" ry="2" fill="#113f67"/>
<rect x="376" y="70" width="13" height="13" rx="2" ry="2" fill="#00bfff"/>
<rect x="376" y="86" width="13" height="13" rx="2" ry="2" fill="#ffd700"/>
<rect x="376" y="102" width="13" height="13" rx="2" ry="2" fill="#1a1a2e"/>
<rect x="376" y="118" width="13" height="13" rx="2" ry="2" fill="#ffd700"/>
<rect x="392" y="22" width="13" height="13" rx="2" ry="2" fill="#113f67"/>
<rect x="392" y="38" width="13" height="13" rx="2" ry="2" fill="#00bfff"/>
<rect x="392" y="54" width="13" height="13" rx="2" ry="2" fill="#ffd700"/>
<rect x="392" y="70" width="13" height="13" rx="2" ry="2" fill="#113f67"/>
<rect x="392" y="86" width="13" height="13" rx="2" ry="2" fill="#00bfff"/>
<rect x="392" y="102" width="13" height="13" rx="2" ry="2" fill="#1c7293"/>
<rect x="392" y="118" width="13" height="13" rx="2" ry="2" fill="#113f67"/>
<rect x="408" y="22" width="13" height="13" rx="2" ry="2" fill="#1c7293"/>
<rect x="408" y="38" width="13" height="13" rx="2" ry="2" fill="#1a1a2e"/>
<rect x="408" y="54" width="13" height="13" rx="2" ry="2" fill="#1c7293"/>
<rect x="408" y="70" width="13" height="13" rx="2" ry="2" fill="#00bfff"/>
<rect x="408" y="86" width="13" height="13" rx="2" ry="2" fill="#1c7293"/>
<rect x="408" y="102" width="13" height="13" rx="2" ry="2" fill="#00bfff"/>
<rect x="408" y="118" width="13" height="13" rx="2" ry="2" fill="#00bfff"/>
<rect x="424" y="22" width="13" height="13" rx="2" ry="2" fill="#00bfff"/>
<rect x="424" y="38" width="13" height="13" rx="2" ry="2" fill="#00bfff"/>
<rect x="424" y="54" width="13" height="13" rx="2" ry="2" fill="#00bfff"/>
<rect x="424" y="70" width="13" height="13" rx="2" ry="2" fill="#00bfff"/>
<rect x="424" y="86" width="13" height="13" rx="2" ry="2" fill="#113f67"/>
<rect x="424" y="102" width="13" height="13" rx="2" ry="2" fill="#00bfff"/>
<rect x="424" y="118" width="13" height="13" rx="2" ry="2" fill="#113f67"/>
<rect x="440" y="22" width="13" height="13" rx="2" ry="2" fill="#113f67"/>
<rect x="440" y="38" width="13" height="13" rx="2" ry="2" fill="#113f67"/>
<rect x="440" y="54" width="13" height="13" rx="2" ry="2" fill="#1a1a2e"/>
<rect x="440" y="70" width="13" height="13" rx="2" ry="2" fill="#1a1a2e"/>
<rect x="440" y="86" width="13" height="13" rx="2" ry="2" fill="#1a1a2e"/>
<rect x="440" y="102" width="13" height="13" rx="2" ry="2" fill="#1c7293"/>
<rect x="440" y="118" width="13" height="13" rx="2" ry="2" fill="#113f67"/>
<rect x="456" y="22" width="13" height="13" rx="2" ry="2" fill="#1a1a2e"/>
<rect x="456" y="38" width="13" height="13" rx="2" ry="2" fill="#113f67"/>
<rect x="456" y="54" width="13" height="13" rx="2" ry="2" fill="#1a1a2e"/>
<rect x="456" y="70" width="13" height="13" rx="2" ry="2" fill="#1a1a2e"/>
<rect x="456" y="86" width="13" height="13" rx="2" ry="2" fill="#1a1a2e"/>
<rect x="456" y="102" width="13" height="13" rx="2" ry="2" fill="#113f67"/>
<rect x="456" y="118" width="13" height="13" rx="2" ry="2" fill="#1a1a2e"/>
<rect x="472" y="22" width="13" height="13" rx="2" ry="2" fill="#113f67"/>
<rect x="472" y="38" width="13" height="13" rx="2" ry="2" fill="#113f67"/>
<rect x="472" y="54" width="13" height="13" rx="2" ry="2" fill="#113f67"/>
<rect x="472" y="70" width="13" height="13" rx="2" ry="2" fill="#1a1a2e"/>
<rect x="472" y="86" width="13" height="13" rx="2" ry="2" fill="#113f67"/>
<rect x="472" y="102" width="13" height="13" rx="2" ry="2" fill="#1a1a2e"/>
<rect x="472" y="118" width="13" height="13" rx="2" ry="2" fill="#1c7293"/>
<rect x="488" y="22" width="13" height="13" rx="2" ry="2" fill="#1a1a2e"/>
<rect x="488" y="38" width="13" height="13" rx="2" ry="2" fill="#1a1a2e"/>
<rect x="488" y="54" width="13" height="13" rx="2" ry="2" fill="#113f67"/>
<rect x="488" y="70" width="13" height="13" rx="2" ry="2" fill="#1a1a2e"/>
<rect x="488" y="86" width="13" height="13" rx="2" ry="2" fill="#1a1a2e"/>
<rect x="488" y="102" width="13" height="13" rx="2" ry="2" fill="#1c7293"/>
<rect x="488" y="118" width="13" height="13" rx="2" ry="2" fill="#113f67"/>
<rect x="504" y="22" width="13" height="13" rx="2" ry="2" fill="#113f67"/>
<rect x="504" y="38" width="13" height="13" rx="2" ry="2" fill="#1a1a2e"/>
<rect x="504" y="54" width="13" height="13" rx="2" ry="2" fill="#1a1a2e"/>
<rect x="504" y="70" width="13" height="13" rx="2" ry="2" fill="#1c7293"/>
<rect x="504" y="86" width="13" height="13" rx="2" ry="2" fill="#1a1a2e"/>
<rect x="504" y="102" width="13" height="13" rx="2" ry="2" fill="#1a1a2e"/>
<rect x="504" y="118" width="13" height="13" rx="2" ry="2" fill="#1a1a2e"/>
<rect x="520" y="22" width="13" height="13" rx="2" ry="2" fill="#1a1a2e"/>
<rect x="520" y="38" width="13" height="13" rx="2" ry="2" fill="#113f67"/>
<rect x="520" y="54" width="13" height="13" rx="2" ry="2" fill="#113f67"/>
<rect x="520" y="70" width="13" height="13" rx="2" ry="2" fill="#113f67"/>
<rect x="520" y="86" width="13" height="13" rx="2" ry="2" fill="#1a1a2e"/>
<rect x="520" y="102" width="13" height="13" rx="2" ry="2" fill="#1c7293"/>
<rect x="520" y="118" width="13" height="13" rx="2" ry="2" fill="#113f67"/>
<rect x="536" y="22" width="13" height="13" rx="2" ry="2" fill="#113f67"/>
<rect x="536" y="38" width="13" height="13" rx="2" ry="2" fill="#113f67"/>
<rect x="536" y="54" width="13" height="13" rx="2" ry="2" fill="#1a1a2e"/>
<rect x="536" y="70" width="13" height="13" rx="2" ry="2" fill="#1c7293"/>
<rect x="536" y="86" width="13" height="13" rx="2" ry="2" fill="#113f67"/>
<rect x="536" y="102" width="13" height="13" rx="2" ry="2" fill="#113f67"/>
<rect x="536" y="118" width="13" height="13" rx="2" ry="2" fill="#1a1a2e"/>
<rect x="552" y="22" width="13" height="13" rx="2" ry="2" fill="#1a1a2e"/>
<rect x="552" y="38" width="13" height="13" rx="2" ry="2" fill="#1a1a2e"/>
<rect x="552" y="54" width="13" height="13" rx="2" ry="2" fill="#1a1a2e"/>
<rect x="552" y="70" width="13" height="13" rx="2" ry="2" fill="#1a1a2e"/>
<rect x="552" y="86" width="13" height="13" rx="2" ry="2" fill="#1a1a2e"/>
<rect x="552" y="102" width="13" height="13" rx="2" ry="2" fill="#1a1a2e"/>
<rect x="552" y="118" width="13" height="13" rx="2" ry="2" fill="#1a1a2e"/>
<rect x="568" y="22" width="13" height="13" rx="2" ry="2" fill="#1c7293"/>
<rect x="568" y="38" width="13" height="13" rx="2" ry="2" fill="#1a1a2e"/>
<rect x="568" y="54" width="13" height="13" rx="2" ry="2" fill="#1a1a2e"/>
<rect x="568" y="70" width="13" height="13" rx="2" ry="2" fill="#113f67"/>
<rect x="568" y="86" width="13" height="13" rx="2" ry="2" fill="#113f67"/>
<rect x="568" y="102" width="13" height="13" rx="2" ry="2" fill="#1a1a2e"/>
<rect x="568" y="118" width="13" height="13" rx="2" ry="2" fill="#1c7293"/>
<rect x="584" y="22" width="13" height="13" rx="2" ry="2" fill="#1a1a2e"/>
<rect x="584" y="38" width="13" height="13" rx="2" ry="2" fill="#113f67"/>
<rect x="584" y="54" width="13" height="13" rx="2" ry="2" fill="#1a1a2e"/>
<rect x="584" y="70" width="13" height="13" rx="2" ry="2" fill="#113f67"/>
<rect x="584" y="86" width="13" height="13" rx="2" ry="2" fill="#1a1a2e"/>
<rect x="584" y="102" width="13" height="13" rx="2" ry="2" fill="#1a1a2e"/>
<rect x="584" y="118" width="13" height="13" rx="2" ry="2" fill="#1c7293"/>
<rect x="600" y="22" width="13" height="13" rx="2" ry="2" fill="#113f67"/>
<rect x="600" y="38" width="13" height="13" rx="2" ry="2" fill="#113f67"/>
<rect x="600" y="54" width="13" height="13" rx="2" ry="2" fill="#1a1a2e"/>
<rect x="600" y="70" width="13" height="13" rx="2" ry="2" fill="#1c7293"/>
<rect x="600" y="86" width="13" height="13" rx="2" ry="2" fill="#113f67"/>
<rect x="600" y="102" width="13" height="13" rx="2" ry="2" fill="#1a1a2e"/>
<rect x="600" y="118" width="13" height="13" rx="2" ry="2" fill="#1a1a2e"/>
<rect x="616" y="22" width="13" height="13" rx="2" ry="2" fill="#1a1a2e"/>
<rect x="616" y="38" width="13" height="13" rx="2" ry="2" fill="#1a1a2e"/>
<rect x="616" y="54" width="13" height="13" rx="2" ry="2" fill="#113f67"/>
<rect x="616" y="70" width="13" height="13" rx="2" ry="2" fill="#1a1a2e"/>
<rect x="616" y="86" width="13" height="13" rx="2" ry="2" fill="#113f67"/>
<rect x="616" y="102" width="13" height="13" rx="2" ry="2" fill="#1a1a2e"/>
<rect x="616" y="118" width="13" height="13" rx="2" ry="2" fill="#1a1a2e"/>
<rect x="632" y="22" width="13" height="13" rx="2" ry="2" fill="#113f67"/>
<rect x="632" y="38" width="13" height="13" rx="2" ry="2" fill="#1a1a2e"/>
<rect x="632" y="54" width="13" height="13" rx="2" ry="2" fill="#1a1a2e"/>
<rect x="632" y="70" width="13" height="13" rx="2" ry="2" fill="#1a1a2e"/>
<rect x="632" y="86" width="13" height="13" rx="2" ry="2" fill="#113f67"/>
<rect x="632" y="102" width="13" height="13" rx="2" ry="2" fill="#1a1a2e"/>
<rect x="632" y="118" width="13" height="13" rx="2" ry="2" fill="#113f67"/>
<rect x="648" y="22" width="13" height="13" rx="2" ry="2" fill="#1a1a2e"/>
<rect x="648" y="38" width="13" height="13" rx="2" ry="2" fill="#113f67"/>
<rect x="648" y="54" width="13" height="13" rx="2" ry="2" fill="#113f67"/>
<rect x="648" y="70" width="13" height="13" rx="2" ry="2" fill="#1c7293"/>
<rect x="648" y="86" width="13" height="13" rx="2" ry="2" fill="#113f67"/>
<rect x="648" y="102" width="13" height="13" rx="2" ry="2" fill="#1a1a2e"/>
<rect x="648" y="118" width="13" height="13" rx="2" ry="2" fill="#1a1a2e"/>
<rect x="664" y="22" width="13" height="13" rx="2" ry="2" fill="#113f67"/>
<rect x="664" y="38" width="13" height="13" rx="2" ry="2" fill="#113f67"/>
<rect x="664" y="54" width="13" height="13" rx="2" ry="2" fill="#113f67"/>
<rect x="664" y="70" width="13" height="13" rx="2" ry="2" fill="#1a1a2e"/>
<rect x="664" y="86" width="13" height="13" rx="2" ry="2" fill="#1a1a2e"/>
<rect x="664" y="102" width="13" height="13" rx="2" ry="2" fill="#1a1a2e"/>
<rect x="664" y="118" width="13" height="13" rx="2" ry="2" fill="#1a1a2e"/>
<rect x="680" y="22" width="13" height="13" rx="2" ry="2" fill="#1a1a2e"/>
<rect x="680" y="38" width="13" height="13" rx="2" ry="2" fill="#1c7293"/>
<rect x="680" y="54" width="13" height="13" rx="2" ry="2" fill="#1a1a2e"/>
<rect x="680" y="70" width="13" height="13" rx="2" ry="2" fill="#113f67"/>
<rect x="680" y="86" width="13" height="13" rx="2" ry="2" fill="#1a1a2e"/>
<rect x="680" y="102" width="13" height="13" rx="2" ry="2" fill="#1a1a2e"/>
<rect x="680" y="118" width="13" height="13" rx="2" ry="2" fill="#1a1a2e"/>
<rect x="696" y="22" width="13" height="13" rx="2" ry="2" fill="#113f67"/>
<rect x="696" y="38" width="13" height="13" rx="2" ry="2" fill="#113f67"/>
<rect x="696" y="54" width="13" height="13" rx="2" ry="2" fill="#1a1a2e"/>
<rect x="696" y="70" width="13" height="13" rx="2" ry="2" fill="#113f67"/>
<rect x="696" y="86" width="13" height="13" rx="2" ry="2" fill="#1c7293"/>
<rect x="696" y="102" width="13" height="13" rx="2" ry="2" fill="#113f67"/>
<rect x="696" y="118" width="13" height="13" rx="2" ry="2" fill="#113f67"/>
<rect x="712" y="22" width="13" height="13" rx="2" ry="2" fill="#1a1a2e"/>
<rect x="712" y="38" width="13" height="13" rx="2" ry="2" fill="#1c7293"/>
<rect x="712" y="54" width="13" height="13" rx="2" ry="2" fill="#1c7293"/>
<rect x="712" y="70" width="13" height="13" rx="2" ry="2" fill="#1a1a2e"/>
<rect x="712" y="86" width="13" height="13" rx="2" ry="2" fill="#113f67"/>
<rect x="712" y="102" width="13" height="13" rx="2" ry="2" fill="#1a1a2e"/>
<rect x="712" y="118" width="13" height="13" rx="2" ry="2" fill="#1c7293"/>
<rect x="728" y="22" width="13" height="13" rx="2" ry="2" fill="#1a1a2e"/>
<rect x="728" y="38" width="13" height="13" rx="2" ry="2" fill="#113f67"/>
<rect x="728" y="54" width="13" height="13" rx="2" ry="2" fill="#113f67"/>
<rect x="728" y="70" width="13" height="13" rx="2" ry="2" fill="#1a1a2e"/>
<rect x="728" y="86" width="13" height="13" rx="2" ry="2" fill="#1a1a2e"/>
<rect x="728" y="102" width="13" height="13" rx="2" ry="2" fill="#1c7293"/>
<rect x="728" y="118" width="13" height="13" rx="2" ry="2" fill="#113f67"/>
<rect x="744" y="22" width="13" height="13" rx="2" ry="2" fill="#113f67"/>
<rect x="744" y="38" width="13" height="13" rx="2" ry="2" fill="#113f67"/>
<rect x="744" y="54" width="13" height="13" rx="2" ry="2" fill="#113f67"/>
<rect x="744" y="70" width="13" height="13" rx="2" ry="2" fill="#1a1a2e"/>
<rect x="744" y="86" width="13" height="13" rx="2" ry="2" fill="#1a1a2e"/>
<rect x="744" y="102" width="13" height="13" rx="2" ry="2" fill="#113f67"/>
<rect x="744" y="118" width="13" height="13" rx="2" ry="2" fill="#1a1a2e"/>
<rect x="760" y="22" width="13" height="13" rx="2" ry="2" fill="#113f67"/>
<rect x="760" y="38" width="13" height="13" rx="2" ry="2" fill="#113f67"/>
<rect x="760" y="54" width="13" height="13" rx="2" ry="2" fill="#1a1a2e"/>
<rect x="760" y="70" width="13" height="13" rx="2" ry="2" fill="#1a1a2e"/>
<rect x="760" y="86" width="13" height="13" rx="2" ry="2" fill="#1a1a2e"/>
<rect x="760" y="102" width="13" height="13" rx="2" ry="2" fill="#113f67"/>
<rect x="760" y="118" width="13" height="13" rx="2" ry="2" fill="#ffd700"/>
<rect x="776" y="22" width="13" height="13" rx="2" ry="2" fill="#ffd700"/>
<rect x="776" y="38" width="13" height="13" rx="2" ry="2" fill="#113f67"/>
<rect x="776" y="54" width="13" height="13" rx="2" ry="2" fill="#ffd700"/>
<rect x="776" y="70" width="13" height="13" rx="2" ry="2" fill="#ffd700"/>
<rect x="776" y="86" width="13" height="13" rx="2" ry="2" fill="#00bfff"/>
<rect x="776" y="102" width="13" height="13" rx="2" ry="2" fill="#113f67"/>
<rect x="776" y="118" width="13" height="13" rx="2" ry="2" fill="#1c7293"/>
<rect x="792" y="22" width="13" height="13" rx="2" ry="2" fill="#1c7293"/>
<rect x="792" y="38" width="13" height="13" rx="2" ry="2" fill="#1a1a2e"/>
<rect x="792" y="54" width="13" height="13" rx="2" ry="2" fill="#113f67"/>
<rect x="792" y="70" width="13" height="13" rx="2" ry="2" fill="#113f67"/>
<rect x="792" y="86" width="13" height="13" rx="2" ry="2" fill="#113f67"/>
<rect x="792" y="102" width="13" height="13" rx="2" ry="2" fill="#ffd700"/>
<rect x="792" y="118" width="13" height="13" rx="2" ry="2" fill="#ffd700"/>
<rect x="808" y="22" width="13" height="13" rx="2" ry="2" fill="#00bfff"/>
<rect x="808" y="38" width="13" height="13" rx="2" ry="2" fill="#ffd700"/>
<rect x="808" y="54" width="13" height="13" rx="2" ry="2" fill="#ffd700"/>
<rect x="808" y="70" width="13" height="13" rx="2" ry="2" fill="#00bfff"/>
<rect x="808" y="86" width="13" height="13" rx="2" ry="2" fill="#ffd700"/>
<rect x="808" y="102" width="13" height="13" rx="2" ry="2" fill="#ffd700"/>
<rect x="808" y="118" width="13" height="13" rx="2" ry="2" fill="#ffd700"/>
<rect x="824" y="22" width="13" height="13" rx="2" ry="2" fill="#ffd700"/>
<rect x="824" y="38" width="13" height="13" rx="2" ry="2" fill="#00bfff"/>
<rect x="824" y="54" width="13" height="13" rx="2" ry="2" fill="#ffd700"/>
<rect x="824" y="70" width="13" height="13" rx="2" ry="2" fill="#ffd700"/>
<rect x="824" y="86" width="13" height="13" rx="2" ry="2" fill="#00bfff"/>
<rect x="824" y="102" width="13" height="13" rx="2" ry="2" fill="#1c7293"/>
<rect x="824" y="118" width="13" height="13" rx="2" ry="2" fill="#113f67"/>
<rect x="840" y="22" width="13" height="13" rx="2" ry="2" fill="#113f67"/>
<rect x="840" y="38" width="13" height="13" rx="2" ry="2" fill="#1c7293"/>
<rect x="840" y="54" width="13" height="13" rx="2" ry="2" fill="#ffd700"/>
<rect x="840" y="70" width="13" height="13" rx="2" ry="2" fill="#ffd700"/>
<rect x="840" y="86" width="13" height="13" rx="2" ry="2" fill="#00bfff"/>
<rect x="840" y="102" width="13" height="13" rx="2" ry="2" fill="#00bfff"/>
<rect x="840" y="118" width="13" height="13" rx="2" ry="2" fill="#ffd700"/>
<rect x="856" y="22" width="13" height="13" rx="2" ry="2" fill="#ffd700"/>
<rect x="856" y="38" width="13" height="13" rx="2" ry="2" fill="#ffd700"/>
<rect x="856" y="54" width="13" height="13" rx="2" ry="2" fill="#ffd700"/>
<rect x="856" y="70" width="13" height="13" rx="2" ry="2" fill="#00bfff"/>
<rect x="856" y="86" width="13" height="13" rx="2" ry="2" fill="#1c7293"/>
<rect x="856" y="102" width="13" height="13" rx="2" ry="2" fill="#ffd700"/>
<rect x="856" y="118" width="13" height="13" rx="2" ry="2" fill="#ffd700"/>
<rect x="872" y="22" width="13" height="13" rx="2" ry="2" fill="#ffd700"/>
<rect x="872" y="38" width="13" height="13" rx="2" ry="2" fill="#ffd700"/>
<rect x="872" y="54" width="13" height="13" rx="2" ry="2" fill="#1c7293"/>
<rect x="872" y="70" width="13" height="13" rx="2" ry="2" fill="#ffd700"/>
<rect x="872" y="86" width="13" height="13" rx="2" ry="2" fill="#ffd700"/>
<rect x="872" y="102" width="13" height="13" rx="2" ry="2" fill="#1a1a2e"/>
<text x="376.7" y="152" fill="#ffd700" font-size="12" font-weight="bold">+6937</text>
<text x="417.7" y="152" fill="#fff" font-size="12">contributions</text>
</svg>