<svg xmlns="http://www.w3.org/2000/svg" width="883" height="162" style="background:#0D1117;font-family:'Segoe UI',Arial,sans-serif;" shape-rendering="geometricPrecision">
<text x="115" y="15" fill="#c9d1d9" font-size="12">Feb</text><text x="179" y="15" fill="#c9d1d9" font-size="12">Mar</text><text x="259" y="15" fill="#c9d1d9" font-size="12">Apr</text><text x="323" y="15" fill="#c9d1d9" font-size="12">May</text><text x="387" y="15" fill="#c9d1d9" font-size="12">Jun</text><text x="467" y="15" fill="#c9d1d9" font-size="12">Jul</text><text x="531" y="15" fill="#c9d1d9" font-size="12">Aug</text><text x="611" y="15" fill="#c9d1d9" font-size="12">Sep</text><text x="675" y="15" fill="#c9d1d9" font-size="12">Oct</text><text x="739" y="15" fill="#c9d1d9" font-size="12">Nov</text><text x="819" y="15" fill="#c9d1d9" font-size="12">Dec</text><text x="5" y="45" fill="#c9d1d9" font-size="12">Mon</text><text x="5" y="77" fill="#c9d1d9" font-size="12">Wed</text><text x="5" y="109" fill="#c9d1d9" font-size="12">Fri</text><rect x="35" y="25" width="13" height="13" rx="2" ry="2" fill="#161b22"/><rect x="35" y="41" width="13" height="13" rx="2" ry="2" fill="#161b22"/><rect x="35" y="57" width="13" height="13" rx="2" ry="2" fill="#161b22"/><rect x="35" y="73" width="13" height="13" rx="2" ry="2" fill="#161b22"/><rect x="51" y="25" width="13" height="13" rx="2" ry="2" fill="#161b22"/><rect x="51" y="41" width="13" height="13" rx="2" ry="2" fill="#0e4429"/><rect x="51" y="57" width="13" height="13" rx="2" ry="2" fill="#161b22"/><rect x="51" y="73" width="13" height="13" rx="2" ry="2" fill="#161b22"/><rect x="51" y="89" width="13" height="13" rx="2" ry="2" fill="#161b22"/><rect x="51" y="105" width="13" height="13" rx="2" ry="2" fill="#006d32"/><rect x="51" y="121" width="13" height="13" rx="2" ry="2" fill="#0e4429"/><rect x="67" y="25" width="13" height="13" rx="2" ry="2" fill="#161b22"/><rect x="67" y="41" width="13" height="13" rx="2" ry="2" fill="#0e4429"/><rect x="67" y="57" width="13" height="13" rx="2" ry="2" fill="#161b22"/><rect x="67" y="73" width="13" height="13" rx="2" ry="2" fill="#161b22"/><rect x="67" y="89" width="13" height="13" rx="2" ry="2" fill="#161b22"/><rect x="67" y="105" width="13" height="13" rx="2" ry="2" fill="#0e4429"/><rect x="67" y="121" width="13" height="13" rx="2" ry="2" fill="#161b22"/><rect x="83" y="25" width="13" height="13" rx="2" ry="2" fill="#0e4429"/><rect x="83" y="41" width="13" height="13" rx="2" ry="2" fill="#0e4429"/><rect x="83" y="57" width="13" height="13" rx="2" ry="2" fill="#0e4429"/><rect x="83" y="73" width="13" height="13" rx="2" ry="2" fill="#161b22"/><rect x="83" y="89" width="13" height="13" rx="2" ry="2" fill="#0e4429"/><rect x="83" y="105" width="13" height="13" rx="2" ry="2" fill="#161b22"/><rect x="83" y="121" width="13" height="13" rx="2" ry="2" fill="#006d32"/><rect x="99" y="25" width="13" height="13" rx="2" ry="2" fill="#161b22"/><rect x="99" y="41" width="13" height="13" rx="2" ry="2" fill="#161b22"/><rect x="99" y="57" width="13" height="13" rx="2" ry="2" fill="#0e4429"/><rect x="99" y="73" width="13" height="13" rx="2" ry="2" fill="#161b22"/><rect x="99" y="89" width="13" height="13" rx="2" ry="2" fill="#161b22"/><rect x="99" y="105" width="13" height="13" rx="2" ry="2" fill="#006d32"/><rect x="99" y="121" width="13" height="13" rx="2" ry="2" fill="#0e4429"/><rect x="115" y="25" width="13" height="13" rx="2" ry="2" fill="#0e4429"/><rect x="115" y="41" width="13" height="13" rx="2" ry="2" fill="#161b22"/><rect x="115" y="57" width="13" height="13" rx="2" ry="2" fill="#161b22"/><rect x="115" y="73" width="13" height="13" rx="2" ry="2" fill="#006d32"/><rect x="115" y="89" width="13" height="13" rx="2" ry="2" fill="#161b22"/><rect x="115" y="105" width="13" height="13" rx="2" ry="2" fill="#161b22"/><rect x="115" y="121" width="13" height="13" rx="2" ry="2" fill="#161b22"/><rect x="131" y="25" width="13" height="13" rx="2" ry="2" fill="#161b22"/><rect x="131" y="41" width="13" height="13" rx="2" ry="2" fill="#0e4429"/><rect x="131" y="57" width="13" height="13" rx="2" ry="2" fill="#0e4429"/><rect x="131" y="73" width="13" height="13" rx="2" ry="2" fill="#0e4429"/><rect x="131" y="89" width="13" height="13" rx="2" ry="2" fill="#161b22"/><rect x="131" y="105" width="13" height="13" rx="2" ry="2" fill="#006d32"/><rect x="131" y="121" width="13" height="13" rx="2" ry="2" fill="#0e4429"/><rect x="147" y="25" width="13" height="13" rx="2" ry="2" fill="#0e4429"/><rect x="147" y="41" width="13" height="13" rx="2" ry="2" fill="#0e4429"/><rect x="147" y="57" width="13" height="13" rx="2" ry="2" fill="#161b22"/><rect x="147" y="73" width="13" height="13" rx="2" ry="2" fill="#006d32"/><rect x="147" y="89" width="13" height="13" rx="2" ry="2" fill="#0e4429"/><rect x="147" y="105" width="13" height="13" rx="2" ry="2" fill="#0e4429"/><rect x="147" y="121" width="13" height="13" rx="2" ry="2" fill="#161b22"/><rect x="163" y="25" width="13" height="13" rx="2" ry="2" fill="#161b22"/><rect x="163" y="41" width="13" height="13" rx="2" ry="2" fill="#161b22"/><rect x="163" y="57" width="13" height="13" rx="2" ry="2" fill="#161b22"/><rect x="163" y="73" width="13" height="13" rx="2" ry="2" fill="#161b22"/><rect x="163" y="89" width="13" height="13" rx="2" ry="2" fill="#161b22"/><rect x="163" y="105" width="13" height="13" rx="2" ry="2" fill="#161b22"/><rect x="163" y="121" width="13" height="13" rx="2" ry="2" fill="#161b22"/><rect x="179" y="25" width="13" height="13" rx="2" ry="2" fill="#006d32"/><rect x="179" y="41" width="13" height="13" rx="2" ry="2" fill="#161b22"/><rect x="179" y="57" width="13" height="13" rx="2" ry="2" fill="#161b22"/><rect x="179" y="73" width="13" height="13" rx="2" ry="2" fill="#0e4429"/><rect x="179" y="89" width="13" height="13" rx="2" ry="2" fill="#0e4429"/><rect x="179" y="105" width="13" height="13" rx="2" ry="2" fill="#161b22"/><rect x="179" y="121" width="13" height="13" rx="2" ry="2" fill="#006d32"/><rect x="195" y="25" width="13" height="13" rx="2" ry="2" fill="#161b22"/><rect x="195" y="41" width="13" height="13" rx="2" ry="2" fill="#0e4429"/><rect x="195" y="57" width="13" height="13" rx="2" ry="2" fill="#161b22"/><rect x="195" y="73" width="13" height="13" rx="2" ry="2" fill="#0e4429"/><rect x="195" y="89" width="13" height="13" rx="2" ry="2" fill="#161b22"/><rect x="195" y="105" width="13" height="13" rx="2" ry="2" fill="#161b22"/><rect x="195" y="121" width="13" height="13" rx="2" ry="2" fill="#006d32"/><rect x="211" y="25" width="13" height="13" rx="2" ry="2" fill="#0e4429"/><rect x="211" y="41" width="13" height="13" rx="2" ry="2" fill="#0e4429"/><rect x="211" y="57" width="13" height="13" rx="2" ry="2" fill="#161b22"/><rect x="211" y="73" width="13" height="13" rx="2" ry="2" fill="#006d32"/><rect x="211" y="89" width="13" height="13" rx="2" ry="2" fill="#0e4429"/><rect x="211" y="105" width="13" height="13" rx="2" ry="2" fill="#161b22"/><rect x="211" y="121" width="13" height="13" rx="2" ry="2" fill="#161b22"/><rect x="227" y="25" width="13" height="13" rx="2" ry="2" fill="#161b22"/><rect x="227" y="41" width="13" height="13" rx="2" ry="2" fill="#161b22"/><rect x="227" y="57" width="13" height="13" rx="2" ry="2" fill="#0e4429"/><rect x="227" y="73" width="13" height="13" rx="2" ry="2" fill="#161b22"/><rect x="227" y="89" width="13" height="13" rx="2" ry="2" fill="#0e4429"/><rect x="227" y="105" width="13" height="13" rx="2" ry="2" fill="#161b22"/><rect x="227" y="121" width="13" height="13" rx="2" ry="2" fill="#161b22"/><rect x="243" y="25" width="13" height="13" rx="2" ry="2" fill="#0e4429"/><rect x="243" y="41" width="13" height="13" rx="2" ry="2" fill="#161b22"/><rect x="243" y="57" width="13" height="13" rx="2" ry="2" fill="#161b22"/><rect x="243" y="73" width="13" height="13" rx="2" ry="2" fill="#161b22"/><rect x="243" y="89" width="13" height="13" rx="2" ry="2" fill="#0e4429"/><rect x="243" y="105" width="13" height="13" rx="2" ry="2" fill="#161b22"/><rect x="243" y="121" width="13" height="13" rx="2" ry="2" fill="#0e4429"/><rect x="259" y="25" width="13" height="13" rx="2" ry="2" fill="#161b22"/><rect x="259" y="41" width="13" height="13" rx="2" ry="2" fill="#0e4429"/><rect x="259" y="57" width="13" height="13" rx="2" ry="2" fill="#0e4429"/><rect x="259" y="73" width="13" height="13" rx="2" ry="2" fill="#006d32"/><rect x="259" y="89" width="13" height="13" rx="2" ry="2" fill="#0e4429"/><rect x="259" y="105" width="13" height="13" rx="2" ry="2" fill="#161b22"/><rect x="259" y="121" width="13" height="13" rx="2" ry="2" fill="#161b22"/><rect x="275" y="25" width="13" height="13" rx="2" ry="2" fill="#0e4429"/><rect x="275" y="41" width="13" height="13" rx="2" ry="2" fill="#0e4429"/><rect x="275" y="57" width="13" height="13" rx="2" ry="2" fill="#0e4429"/><rect x="275" y="73" width="13" height="13" rx="2" ry="2" fill="#161b22"/><rect x="275" y="89" width="13" height="13" rx="2" ry="2" fill="#161b22"/><rect x="275" y="105" width="13" height="13" rx="2" ry="2" fill="#161b22"/><rect x="275" y="121" width="13" height="13" rx="2" ry="2" fill="#161b22"/><rect x="291" y="25" width="13" height="13" rx="2" ry="2" fill="#161b22"/><rect x="291" y="41" width="13" height="13" rx="2" ry="2" fill="#006d32"/><rect x="291" y="57" width="13" height="13" rx="2" ry="2" fill="#161b22"/><rect x="291" y="73" width="13" height="13" rx="2" ry="2" fill="#0e4429"/><rect x="291" y="89" width="13" height="13" rx="2" ry="2" fill="#161b22"/><rect x="291" y="105" width="13" height="13" rx="2" ry="2" fill="#161b22"/><rect x="291" y="121" width="13" height="13" rx="2" ry="2" fill="#161b22"/><rect x="307" y="25" width="13" height="13" rx="2" ry="2" fill="#0e4429"/><rect x="307" y="41" width="13" height="13" rx="2" ry="2" fill="#0e4429"/><rect x="307" y="57" width="13" height="13" rx="2" ry="2" fill="#161b22"/><rect x="307" y="73" width="13" height="13" rx="2" ry="2" fill="#0e4429"/><rect x="307" y="89" width="13" height="13" rx="2" ry="2" fill="#006d32"/><rect x="307" y="105" width="13" height="13" rx="2" ry="2" fill="#0e4429"/><rect x="307" y="121" width="13" height="13" rx="2" ry="2" fill="#0e4429"/><rect x="323" y="25" width="13" height="13" rx="2" ry="2" fill="#161b22"/><rect x="323" y="41" width="13" height="13" rx="2" ry="2" fill="#006d32"/><rect x="323" y="57" width="13" height="13" rx="2" ry="2" fill="#006d32"/><rect x="323" y="73" width="13" height="13" rx="2" ry="2" fill="#161b22"/><rect x="323" y="89" width="13" height="13" rx="2" ry="2" fill="#0e4429"/><rect x="323" y="105" width="13" height="13" rx="2" ry="2" fill="#161b22"/><rect x="323" y="121" width="13" height="13" rx="2" ry="2" fill="#006d32"/><rect x="339" y="25" width="13" height="13" rx="2" ry="2" fill="#161b22"/><rect x="339" y="41" width="13" height="13" rx="2" ry="2" fill="#0e4429"/><rect x="339" y="57" width="13" height="13" rx="2" ry="2" fill="#0e4429"/><rect x="339" y="73" width="13" height="13" rx="2" ry="2" fill="#161b22"/><rect x="339" y="89" width="13" height="13" rx="2" ry="2" fill="#161b22"/><rect x="339" y="105" width="13" height="13" rx="2" ry="2" fill="#006d32"/><rect x="339" y="121" width="13" height="13" rx="2" ry="2" fill="#0e4429"/><rect x="355" y="25" width="13" height="13" rx="2" ry="2" fill="#0e4429"/><rect x="355" y="41" width="13" height="13" rx="2" ry="2" fill="#0e4429"/><rect x="355" y="57" width="13" height="13" rx="2" ry="2" fill="#0e4429"/><rect x="355" y="73" width="13" height="13" rx="2" ry="2" fill="#161b22"/><rect x="355" y="89" width="13" height="13" rx="2" ry="2" fill="#161b22"/><rect x="355" y="105" width="13" height="13" rx="2" ry="2" fill="#0e4429"/><rect x="355" y="121" width="13" height="13" rx="2" ry="2" fill="#161b22"/><rect x="371" y="25" width="13" height="13" rx="2" ry="2" fill="#0e4429"/><rect x="371" y="41" width="13" height="13" rx="2" ry="2" fill="#0e4429"/><rect x="371" y="57" width="13" height="13" rx="2" ry="2" fill="#161b22"/><rect x="371" y="73" width="13" height="13" rx="2" ry="2" fill="#161b22"/><rect x="371" y="89" width="13" height="13" rx="2" ry="2" fill="#161b22"/><rect x="371" y="105" width="13" height="13" rx="2" ry="2" fill="#0e4429"/><rect x="371" y="121" width="13" height="13" rx="2" ry="2" fill="#39d353"/><rect x="387" y="25" width="13" height="13" rx="2" ry="2" fill="#39d353"/><rect x="387" y="41" width="13" height="13" rx="2" ry="2" fill="#0e4429"/><rect x="387" y="57" width="13" height="13" rx="2" ry="2" fill="#39d353"/><rect x="387" y="73" width="13" height="13" rx="2" ry="2" fill="#39d353"/><rect x="387" y="89" width="13" height="13" rx="2" ry="2" fill="#26a641"/><rect x="387" y="105" width="13" height="13" rx="2" ry="2" fill="#0e4429"/><rect x="387" y="121" width="13" height="13" rx="2" ry="2" fill="#006d32"/><rect x="403" y="25" width="13" height="13" rx="2" ry="2" fill="#006d32"/><rect x="403" y="41" width="13" height="13" rx="2" ry="2" fill="#161b22"/><rect x="403" y="57" width="13" height="13" rx="2" ry="2" fill="#0e4429"/><rect x="403" y="73" width="13" height="13" rx="2" ry="2" fill="#0e4429"/><rect x="403" y="89" width="13" height="13" rx="2" ry="2" fill="#0e4429"/><rect x="403" y="105" width="13" height="13" rx="2" ry="2" fill="#39d353"/><rect x="403" y="121" width="13" height="13" rx="2" ry="2" fill="#39d353"/><rect x="419" y="25" width="13" height="13" rx="2" ry="2" fill="#26a641"/><rect x="419" y="41" width="13" height="13" rx="2" ry="2" fill="#39d353"/><rect x="419" y="57" width="13" height="13" rx="2" ry="2" fill="#39d353"/><rect x="419" y="73" width="13" height="13" rx="2" ry="2" fill="#26a641"/><rect x="419" y="89" width="13" height="13" rx="2" ry="2" fill="#39d353"/><rect x="419" y="105" width="13" height="13" rx="2" ry="2" fill="#39d353"/><rect x="419" y="121" width="13" height="13" rx="2" ry="2" fill="#39d353"/><rect x="435" y="25" width="13" height="13" rx="2" ry="2" fill="#39d353"/><rect x="435" y="41" width="13" height="13" rx="2" ry="2" fill="#26a641"/><rect x="435" y="57" width="13" height="13" rx="2" ry="2" fill="#39d353"/><rect x="435" y="73" width="13" height="13" rx="2" ry="2" fill="#39d353"/><rect x="435" y="89" width="13" height="13" rx="2" ry="2" fill="#26a641"/><rect x="435" y="105" width="13" height="13" rx="2" ry="2" fill="#006d32"/><rect x="435" y="121" width="13" height="13" rx="2" ry="2" fill="#0e4429"/><rect x="451" y="25" width="13" height="13" rx="2" ry="2" fill="#0e4429"/><rect x="451" y="41" width="13" height="13" rx="2" ry="2" fill="#006d32"/><rect x="451" y="57" width="13" height="13" rx="2" ry="2" fill="#39d353"/><rect x="451" y="73" width="13" height="13" rx="2" ry="2" fill="#39d353"/><rect x="451" y="89" width="13" height="13" rx="2" ry="2" fill="#161b22"/><rect x="451" y="105" width="13" height="13" rx="2" ry="2" fill="#161b22"/><rect x="451" y="121" width="13" height="13" rx="2" ry="2" fill="#161b22"/><rect x="467" y="25" width="13" height="13" rx="2" ry="2" fill="#161b22"/><rect x="467" y="41" width="13" height="13" rx="2" ry="2" fill="#161b22"/><rect x="467" y="57" width="13" height="13" rx="2" ry="2" fill="#161b22"/><rect x="467" y="73" width="13" height="13" rx="2" ry="2" fill="#161b22"/><rect x="467" y="89" width="13" height="13" rx="2" ry="2" fill="#161b22"/><rect x="467" y="105" width="13" height="13" rx="2" ry="2" fill="#161b22"/><rect x="467" y="121" width="13" height="13" rx="2" ry="2" fill="#161b22"/><rect x="483" y="25" width="13" height="13" rx="2" ry="2" fill="#161b22"/><rect x="483" y="41" width="13" height="13" rx="2" ry="2" fill="#161b22"/><rect x="483" y="57" width="13" height="13" rx="2" ry="2" fill="#161b22"/><rect x="483" y="73" width="13" height="13" rx="2" ry="2" fill="#161b22"/><rect x="483" y="89" width="13" height="13" rx="2" ry="2" fill="#161b22"/><rect x="483" y="105" width="13" height="13" rx="2" ry="2" fill="#161b22"/><rect x="483" y="121" width="13" height="13" rx="2" ry="2" fill="#161b22"/><rect x="499" y="25" width="13" height="13" rx="2" ry="2" fill="#161b22"/><rect x="499" y="41" width="13" height="13" rx="2" ry="2" fill="#161b22"/><rect x="499" y="57" width="13" height="13" rx="2" ry="2" fill="#161b22"/><rect x="499" y="73" width="13" height="13" rx="2" ry="2" fill="#161b22"/><rect x="499" y="89" width="13" height="13" rx="2" ry="2" fill="#161b22"/><rect x="499" y="105" width="13" height="13" rx="2" ry="2" fill="#161b22"/><rect x="499" y="121" width="13" height="13" rx="2" ry="2" fill="#161b22"/><rect x="515" y="25" width="13" height="13" rx="2" ry="2" fill="#161b22"/><rect x="515" y="41" width="13" height="13" rx="2" ry="2" fill="#161b22"/><rect x="515" y="57" width="13" height="13" rx="2" ry="2" fill="#161b22"/><rect x="515" y="73" width="13" height="13" rx="2" ry="2" fill="#161b22"/><rect x="515" y="89" width="13" height="13" rx="2" ry="2" fill="#161b22"/><rect x="515" y="105" width="13" height="13" rx="2" ry="2" fill="#161b22"/><rect x="515" y="121" width="13" height="13" rx="2" ry="2" fill="#161b22"/><rect x="531" y="25" width="13" height="13" rx="2" ry="2" fill="#161b22"/><rect x="531" y="41" width="13" height="13" rx="2" ry="2" fill="#161b22"/><rect x="531" y="57" width="13" height="13" rx="2" ry="2" fill="#161b22"/><rect x="531" y="73" width="13" height="13" rx="2" ry="2" fill="#161b22"/><rect x="531" y="89" width="13" height="13" rx="2" ry="2" fill="#161b22"/><rect x="531" y="105" width="13" height="13" rx="2" ry="2" fill="#161b22"/><rect x="531" y="121" width="13" height="13" rx="2" ry="2" fill="#161b22"/><rect x="547" y="25" width="13" height="13" rx="2" ry="2" fill="#161b22"/><rect x="547" y="41" width="13" height="13" rx="2" ry="2" fill="#161b22"/><rect x="547" y="57" width="13" height="13" rx="2" ry="2" fill="#161b22"/><rect x="547" y="73" width="13" height="13" rx="2" ry="2" fill="#161b22"/><rect x="547" y="89" width="13" height="13" rx="2" ry="2" fill="#161b22"/><rect x="547" y="105" width="13" height="13" rx="2" ry="2" fill="#161b22"/><rect x="547" y="121" width="13" height="13" rx="2" ry="2" fill="#161b22"/><rect x="563" y="25" width="13" height="13" rx="2" ry="2" fill="#161b22"/><rect x="563" y="41" width="13" height="13" rx="2" ry="2" fill="#161b22"/><rect x="563" y="57" width="13" height="13" rx="2" ry="2" fill="#161b22"/><rect x="563" y="73" width="13" height="13" rx="2" ry="2" fill="#161b22"/><rect x="563" y="89" width="13" height="13" rx="2" ry="2" fill="#161b22"/><rect x="563" y="105" width="13" height="13" rx="2" ry="2" fill="#161b22"/><rect x="563" y="121" width="13" height="13" rx="2" ry="2" fill="#161b22"/><rect x="579" y="25" width="13" height="13" rx="2" ry="2" fill="#161b22"/><rect x="579" y="41" width="13" height="13" rx="2" ry="2" fill="#161b22"/><rect x="579" y="57" width="13" height="13" rx="2" ry="2" fill="#161b22"/><rect x="579" y="73" width="13" height="13" rx="2" ry="2" fill="#161b22"/><rect x="579" y="89" width="13" height="13" rx="2" ry="2" fill="#161b22"/><rect x="579" y="105" width="13" height="13" rx="2" ry="2" fill="#161b22"/><rect x="579" y="121" width="13" height="13" rx="2" ry="2" fill="#161b22"/><rect x="595" y="25" width="13" height="13" rx="2" ry="2" fill="#161b22"/><rect x="595" y="41" width="13" height="13" rx="2" ry="2" fill="#161b22"/><rect x="595" y="57" width="13" height="13" rx="2" ry="2" fill="#161b22"/><rect x="595" y="73" width="13" height="13" rx="2" ry="2" fill="#161b22"/><rect x="595" y="89" width="13" height="13" rx="2" ry="2" fill="#161b22"/><rect x="595" y="105" width="13" height="13" rx="2" ry="2" fill="#161b22"/><rect x="595" y="121" width="13" height="13" rx="2" ry="2" fill="#161b22"/><rect x="611" y="25" width="13" height="13" rx="2" ry="2" fill="#161b22"/><rect x="611" y="41" width="13" height="13" rx="2" ry="2" fill="#161b22"/><rect x="611" y="57" width="13" height="13" rx="2" ry="2" fill="#161b22"/><rect x="611" y="73" width="13" height="13" rx="2" ry="2" fill="#161b22"/><rect x="611" y="89" width="13" height="13" rx="2" ry="2" fill="#161b22"/><rect x="611" y="105" width="13" height="13" rx="2" ry="2" fill="#161b22"/><rect x="611" y="121" width="13" height="13" rx="2" ry="2" fill="#161b22"/><rect x="627" y="25" width="13" height="13" rx="2" ry="2" fill="#161b22"/><rect x="627" y="41" width="13" height="13" rx="2" ry="2" fill="#161b22"/><rect x="627" y="57" width="13" height="13" rx="2" ry="2" fill="#161b22"/><rect x="627" y="73" width="13" height="13" rx="2" ry="2" fill="#161b22"/><rect x="627" y="89" width="13" height="13" rx="2" ry="2" fill="#161b22"/><rect x="627" y="105" width="13" height="13" rx="2" ry="2" fill="#161b22"/><rect x="627" y="121" width="13" height="13" rx="2" ry="2" fill="#161b22"/><rect x="643" y="25" width="13" height="13" rx="2" ry="2" fill="#161b22"/><rect x="643" y="41" width="13" height="13" rx="2" ry="2" fill="#161b22"/><rect x="643" y="57" width="13" height="13" rx="2" ry="2" fill="#161b22"/><rect x="643" y="73" width="13" height="13" rx="2" ry="2" fill="#161b22"/><rect x="643" y="89" width="13" height="13" rx="2" ry="2" fill="#161b22"/><rect x="643" y="105" width="13" height="13" rx="2" ry="2" fill="#161b22"/><rect x="643" y="121" width="13" height="13" rx="2" ry="2" fill="#161b22"/><rect x="659" y="25" width="13" height="13" rx="2" ry="2" fill="#161b22"/><rect x="659" y="41" width="13" height="13" rx="2" ry="2" fill="#161b22"/><rect x="659" y="57" width="13" height="13" rx="2" ry="2" fill="#161b22"/><rect x="659" y="73" width="13" height="13" rx="2" ry="2" fill="#161b22"/><rect x="659" y="89" width="13" height="13" rx="2" ry="2" fill="#161b22"/><rect x="659" y="105" width="13" height="13" rx="2" ry="2" fill="#161b22"/><rect x="659" y="121" width="13" height="13" rx="2" ry="2" fill="#161b22"/><rect x="675" y="25" width="13" height="13" rx="2" ry="2" fill="#161b22"/><rect x="675" y="41" width="13" height="13" rx="2" ry="2" fill="#161b22"/><rect x="675" y="57" width="13" height="13" rx="2" ry="2" fill="#161b22"/><rect x="675" y="73" width="13" height="13" rx="2" ry="2" fill="#161b22"/><rect x="675" y="89" width="13" height="13" rx="2" ry="2" fill="#161b22"/><rect x="675" y="105" width="13" height="13" rx="2" ry="2" fill="#161b22"/><rect x="675" y="121" width="13" height="13" rx="2" ry="2" fill="#161b22"/><rect x="691" y="25" width="13" height="13" rx="2" ry="2" fill="#161b22"/><rect x="691" y="41" width="13" height="13" rx="2" ry="2" fill="#161b22"/><rect x="691" y="57" width="13" height="13" rx="2" ry="2" fill="#161b22"/><rect x="691" y="73" width="13" height="13" rx="2" ry="2" fill="#161b22"/><rect x="691" y="89" width="13" height="13" rx="2" ry="2" fill="#161b22"/><rect x="691" y="105" width="13" height="13" rx="2" ry="2" fill="#161b22"/><rect x="691" y="121" width="13" height="13" rx="2" ry="2" fill="#161b22"/><rect x="707" y="25" width="13" height="13" rx="2" ry="2" fill="#161b22"/><rect x="707" y="41" width="13" height="13" rx="2" ry="2" fill="#161b22"/><rect x="707" y="57" width="13" height="13" rx="2" ry="2" fill="#161b22"/><rect x="707" y="73" width="13" height="13" rx="2" ry="2" fill="#161b22"/><rect x="707" y="89" width="13" height="13" rx="2" ry="2" fill="#161b22"/><rect x="707" y="105" width="13" height="13" rx="2" ry="2" fill="#161b22"/><rect x="707" y="121" width="13" height="13" rx="2" ry="2" fill="#161b22"/><rect x="723" y="25" width="13" height="13" rx="2" ry="2" fill="#161b22"/><rect x="723" y="41" width="13" height="13" rx="2" ry="2" fill="#161b22"/><rect x="723" y="57" width="13" height="13" rx="2" ry="2" fill="#161b22"/><rect x="723" y="73" width="13" height="13" rx="2" ry="2" fill="#161b22"/><rect x="723" y="89" width="13" height="13" rx="2" ry="2" fill="#161b22"/><rect x="723" y="105" width="13" height="13" rx="2" ry="2" fill="#161b22"/><rect x="723" y="121" width="13" height="13" rx="2" ry="2" fill="#161b22"/><rect x="739" y="25" width="13" height="13" rx="2" ry="2" fill="#161b22"/><rect x="739" y="41" width="13" height="13" rx="2" ry="2" fill="#161b22"/><rect x="739" y="57" width="13" height="13" rx="2" ry="2" fill="#161b22"/><rect x="739" y="73" width="13" height="13" rx="2" ry="2" fill="#161b22"/><rect x="739" y="89" width="13" height="13" rx="2" ry="2" fill="#161b22"/><rect x="739" y="105" width="13" height="13" rx="2" ry="2" fill="#161b22"/><rect x="739" y="121" width="13" height="13" rx="2" ry="2" fill="#161b22"/><rect x="755" y="25" width="13" height="13" rx="2" ry="2" fill="#161b22"/><rect x="755" y="41" width="13" height="13" rx="2" ry="2" fill="#161b22"/><rect x="755" y="57" width="13" height="13" rx="2" ry="2" fill="#161b22"/><rect x="755" y="73" width="13" height="13" rx="2" ry="2" fill="#161b22"/><rect x="755" y="89" width="13" height="13" rx="2" ry="2" fill="#161b22"/><rect x="755" y="105" width="13" height="13" rx="2" ry="2" fill="#161b22"/><rect x="755" y="121" width="13" height="13" rx="2" ry="2" fill="#161b22"/><rect x="771" y="25" width="13" height="13" rx="2" ry="2" fill="#161b22"/><rect x="771" y="41" width="13" height="13" rx="2" ry="2" fill="#161b22"/><rect x="771" y="57" width="13" height="13" rx="2" ry="2" fill="#161b22"/><rect x="771" y="73" width="13" height="13" rx="2" ry="2" fill="#161b22"/><rect x="771" y="89" width="13" height="13" rx="2" ry="2" fill="#161b22"/><rect x="771" y="105" width="13" height="13" rx="2" ry="2" fill="#161b22"/><rect x="771" y="121" width="13" height="13" rx="2" ry="2" fill="#161b22"/><rect x="787" y="25" width="13" height="13" rx="2" ry="2" fill="#161b22"/><rect x="787" y="41" width="13" height="13" rx="2" ry="2" fill="#161b22"/><rect x="787" y="57" width="13" height="13" rx="2" ry="2" fill="#161b22"/><rect x="787" y="73" width="13" height="13" rx="2" ry="2" fill="#161b22"/><rect x="787" y="89" width="13" height="13" rx="2" ry="2" fill="#161b22"/><rect x="787" y="105" width="13" height="13" rx="2" ry="2" fill="#161b22"/><rect x="787" y="121" width="13" height="13" rx="2" ry="2" fill="#161b22"/><rect x="803" y="25" width="13" height="13" rx="2" ry="2" fill="#161b22"/><rect x="803" y="41" width="13" height="13" rx="2" ry="2" fill="#161b22"/><rect x="803" y="57" width="13" height="13" rx="2" ry="2" fill="#161b22"/><rect x="803" y="73" width="13" height="13" rx="2" ry="2" fill="#161b22"/><rect x="803" y="89" width="13" height="13" rx="2" ry="2" fill="#161b22"/><rect x="803" y="105" width="13" height="13" rx="2" ry="2" fill="#161b22"/><rect x="803" y="121" width="13" height="13" rx="2" ry="2" fill="#161b22"/><rect x="819" y="25" width="13" height="13" rx="2" ry="2" fill="#161b22"/><rect x="819" y="41" width="13" height="13" rx="2" ry="2" fill="#161b22"/><rect x="819" y="57" width="13" height="13" rx="2" ry="2" fill="#161b22"/><rect x="819" y="73" width="13" height="13" rx="2" ry="2" fill="#161b22"/><rect x="819" y="89" width="13" height="13" rx="2" ry="2" fill="#161b22"/><rect x="819" y="105" width="13" height="13" rx="2" ry="2" fill="#161b22"/><rect x="819" y="121" width="13" height="13" rx="2" ry="2" fill="#161b22"/><rect x="835" y="25" width="13" height="13" rx="2" ry="2" fill="#161b22"/><rect x="835" y="41" width="13" height="13" rx="2" ry="2" fill="#161b22"/><rect x="835" y="57" width="13" height="13" rx="2" ry="2" fill="#161b22"/><rect x="835" y="73" width="13" height="13" rx="2" ry="2" fill="#161b22"/><rect x="835" y="89" width="13" height="13" rx="2" ry="2" fill="#161b22"/><rect x="835" y="105" width="13" height="13" rx="2" ry="2" fill="#161b22"/><rect x="835" y="121" width="13" height="13" rx="2" ry="2" fill="#161b22"/><rect x="851" y="25" width="13" height="13" rx="2" ry="2" fill="#161b22"/><rect x="851" y="41" width="13" height="13" rx="2" ry="2" fill="#161b22"/><rect x="851" y="57" width="13" height="13" rx="2" ry="2" fill="#161b22"/><rect x="851" y="73" width="13" height="13" rx="2" ry="2" fill="#161b22"/><rect x="851" y="89" width="13" height="13" rx="2" ry="2" fill="#161b22"/><rect x="851" y="105" width="13" height="13" rx="2" ry="2" fill="#161b22"/><rect x="851" y="121" width="13" height="13" rx="2" ry="2" fill="#161b22"/><rect x="867" y="25" width="13" height="13" rx="2" ry="2" fill="#161b22"/><rect x="867" y="41" width="13" height="13" rx="2" ry="2" fill="#161b22"/><rect x="867" y="57" width="13" height="13" rx="2" ry="2" fill="#161b22"/><rect x="867" y="73" width="13" height="13" rx="2" ry="2" fill="#161b22"/><text x="441.5" y="157" fill="#39d353" font-size="11" text-anchor="middle">+4817 contributions</text></svg>