<svg xmlns="http://www.w3.org/2000/svg" width="888" height="100" style="background:#0D1117;font-family:-apple-system,BlinkMacSystemFont,'Segoe UI',Roboto,Helvetica,Arial,sans-serif;" shape-rendering="geometricPrecision">
<text x="24" y="17" fill="#c9d1d9" font-size="15">Jul</text>
<text x="104" y="17" fill="#c9d1d9" font-size="15">Aug</text>
<text x="168" y="17" fill="#c9d1d9" font-size="15">Sep</text>
<text x="248" y="17" fill="#c9d1d9" font-size="15">Oct</text>
<text x="312" y="17" fill="#c9d1d9" font-size="15">Nov</text>
<text x="376" y="17" fill="#c9d1d9" font-size="15">Dec</text>
<text x="456" y="17" fill="#c9d1d9" font-size="15">Jan</text>
<text x="520" y="17" fill="#c9d1d9" font-size="15">Feb</text>
<text x="584" y="17" fill="#c9d1d9" font-size="15">Mar</text>
<text x="664" y="17" fill="#c9d1d9" font-size="15">Apr</text>
<text x="728" y="17" fill="#c9d1d9" font-size="15">May</text>
<text x="792" y="17" fill="#c9d1d9" font-size="15">Jun</text>
<text x="4" y="30" fill="#c9d1d9" font-size="15" dominant-baseline="middle">Mon</text>
<text x="4" y="46" fill="#c9d1d9" font-size="15" dominant-baseline="middle">Wed</text>
<text x="4" y="62" fill="#c9d1d9" font-size="15" dominant-baseline="middle">Fri</text>
<rect x="40" y="22" width="13" height="13" rx="3" ry="3" fill="#161b22"/>
<rect x="40" y="38" width="13" height="13" rx="3" ry="3" fill="#161b22"/>
<rect x="40" y="54" width="13" height="13" rx="3" ry="3" fill="#161b22"/>
<rect x="56" y="22" width="13" height="13" rx="3" ry="3" fill="#161b22"/>
<rect x="56" y="38" width="13" height="13" rx="3" ry="3" fill="#161b22"/>
<rect x="56" y="54" width="13" height="13" rx="3" ry="3" fill="#161b22"/>
<rect x="72" y="22" width="13" height="13" rx="3" ry="3" fill="#161b22"/>
<rect x="72" y="38" width="13" height="13" rx="3" ry="3" fill="#161b22"/>
<rect x="72" y="54" width="13" height="13" rx="3" ry="3" fill="#161b22"/>
<rect x="88" y="22" width="13" height="13" rx="3" ry="3" fill="#161b22"/>
<rect x="88" y="38" width="13" height="13" rx="3" ry="3" fill="#161b22"/>
<rect x="88" y="54" width="13" height="13" rx="3" ry="3" fill="#161b22"/>
<rect x="104" y="22" width="13" height="13" rx="3" ry="3" fill="#161b22"/>
<rect x="104" y="38" width="13" height="13" rx="3" ry="3" fill="#161b22"/>
<rect x="104" y="54" width="13" height="13" rx="3" ry="3" fill="#161b22"/>
<rect x="120" y="22" width="13" height="13" rx="3" ry="3" fill="#161b22"/>
<rect x="120" y="38" width="13" height="13" rx="3" ry="3" fill="#161b22"/>
<rect x="120" y="54" width="13" height="13" rx="3" ry="3" fill="#161b22"/>
<rect x="136" y="22" width="13" height="13" rx="3" ry="3" fill="#161b22"/>
<rect x="136" y="38" width="13" height="13" rx="3" ry="3" fill="#161b22"/>
<rect x="136" y="54" width="13" height="13" rx="3" ry="3" fill="#161b22"/>
<rect x="152" y="22" width="13" height="13" rx="3" ry="3" fill="#161b22"/>
<rect x="152" y="38" width="13" height="13" rx="3" ry="3" fill="#161b22"/>
<rect x="152" y="54" width="13" height="13" rx="3" ry="3" fill="#161b22"/>
<rect x="168" y="22" width="13" height="13" rx="3" ry="3" fill="#161b22"/>
<rect x="168" y="38" width="13" height="13" rx="3" ry="3" fill="#161b22"/>
<rect x="168" y="54" width="13" height="13" rx="3" ry="3" fill="#161b22"/>
<rect x="184" y="22" width="13" height="13" rx="3" ry="3" fill="#161b22"/>
<rect x="184" y="38" width="13" height="13" rx="3" ry="3" fill="#161b22"/>
<rect x="184" y="54" width="13" height="13" rx="3" ry="3" fill="#161b22"/>
<rect x="200" y="22" width="13" height="13" rx="3" ry="3" fill="#161b22"/>
<rect x="200" y="38" width="13" height="13" rx="3" ry="3" fill="#161b22"/>
<rect x="200" y="54" width="13" height="13" rx="3" ry="3" fill="#161b22"/>
<rect x="216" y="22" width="13" height="13" rx="3" ry="3" fill="#161b22"/>
<rect x="216" y="38" width="13" height="13" rx="3" ry="3" fill="#161b22"/>
<rect x="216" y="54" width="13" height="13" rx="3" ry="3" fill="#161b22"/>
<rect x="232" y="22" width="13" height="13" rx="3" ry="3" fill="#161b22"/>
<rect x="232" y="38" width="13" height="13" rx="3" ry="3" fill="#161b22"/>
<rect x="232" y="54" width="13" height="13" rx="3" ry="3" fill="#161b22"/>
<rect x="248" y="22" width="13" height="13" rx="3" ry="3" fill="#161b22"/>
<rect x="248" y="38" width="13" height="13" rx="3" ry="3" fill="#161b22"/>
<rect x="248" y="54" width="13" height="13" rx="3" ry="3" fill="#161b22"/>
<rect x="264" y="22" width="13" height="13" rx="3" ry="3" fill="#161b22"/>
<rect x="264" y="38" width="13" height="13" rx="3" ry="3" fill="#161b22"/>
<rect x="264" y="54" width="13" height="13" rx="3" ry="3" fill="#161b22"/>
<rect x="280" y="22" width="13" height="13" rx="3" ry="3" fill="#161b22"/>
<rect x="280" y="38" width="13" height="13" rx="3" ry="3" fill="#161b22"/>
<rect x="280" y="54" width="13" height="13" rx="3" ry="3" fill="#161b22"/>
<rect x="296" y="22" width="13" height="13" rx="3" ry="3" fill="#161b22"/>
<rect x="296" y="38" width="13" height="13" rx="3" ry="3" fill="#161b22"/>
<rect x="296" y="54" width="13" height="13" rx="3" ry="3" fill="#161b22"/>
<rect x="312" y="22" width="13" height="13" rx="3" ry="3" fill="#161b22"/>
<rect x="312" y="38" width="13" height="13" rx="3" ry="3" fill="#161b22"/>
<rect x="312" y="54" width="13" height="13" rx="3" ry="3" fill="#161b22"/>
<rect x="328" y="22" width="13" height="13" rx="3" ry="3" fill="#161b22"/>
<rect x="328" y="38" width="13" height="13" rx="3" ry="3" fill="#161b22"/>
<rect x="328" y="54" width="13" height="13" rx="3" ry="3" fill="#161b22"/>
<rect x="344" y="22" width="13" height="13" rx="3" ry="3" fill="#161b22"/>
<rect x="344" y="38" width="13" height="13" rx="3" ry="3" fill="#161b22"/>
<rect x="344" y="54" width="13" height="13" rx="3" ry="3" fill="#161b22"/>
<rect x="360" y="22" width="13" height="13" rx="3" ry="3" fill="#161b22"/>
<rect x="360" y="38" width="13" height="13" rx="3" ry="3" fill="#161b22"/>
<rect x="360" y="54" width="13" height="13" rx="3" ry="3" fill="#161b22"/>
<rect x="376" y="22" width="13" height="13" rx="3" ry="3" fill="#161b22"/>
<rect x="376" y="38" width="13" height="13" rx="3" ry="3" fill="#161b22"/>
<rect x="376" y="54" width="13" height="13" rx="3" ry="3" fill="#161b22"/>
<rect x="392" y="22" width="13" height="13" rx="3" ry="3" fill="#161b22"/>
<rect x="392" y="38" width="13" height="13" rx="3" ry="3" fill="#161b22"/>
<rect x="392" y="54" width="13" height="13" rx="3" ry="3" fill="#161b22"/>
<rect x="408" y="22" width="13" height="13" rx="3" ry="3" fill="#161b22"/>
<rect x="408" y="38" width="13" height="13" rx="3" ry="3" fill="#161b22"/>
<rect x="408" y="54" width="13" height="13" rx="3" ry="3" fill="#161b22"/>
<rect x="424" y="22" width="13" height="13" rx="3" ry="3" fill="#161b22"/>
<rect x="424" y="38" width="13" height="13" rx="3" ry="3" fill="#161b22"/>
<rect x="424" y="54" width="13" height="13" rx="3" ry="3" fill="#161b22"/>
<rect x="440" y="22" width="13" height="13" rx="3" ry="3" fill="#161b22"/>
<rect x="440" y="38" width="13" height="13" rx="3" ry="3" fill="#161b22"/>
<rect x="440" y="54" width="13" height="13" rx="3" ry="3" fill="#161b22"/>
<rect x="456" y="22" width="13" height="13" rx="3" ry="3" fill="#161b22"/>
<rect x="456" y="38" width="13" height="13" rx="3" ry="3" fill="#161b22"/>
<rect x="456" y="54" width="13" height="13" rx="3" ry="3" fill="#161b22"/>
<rect x="472" y="22" width="13" height="13" rx="3" ry="3" fill="#0e4429"/>
<rect x="472" y="38" width="13" height="13" rx="3" ry="3" fill="#161b22"/>
<rect x="472" y="54" width="13" height="13" rx="3" ry="3" fill="#006d32"/>
<rect x="488" y="22" width="13" height="13" rx="3" ry="3" fill="#0e4429"/>
<rect x="488" y="38" width="13" height="13" rx="3" ry="3" fill="#161b22"/>
<rect x="488" y="54" width="13" height="13" rx="3" ry="3" fill="#0e4429"/>
<rect x="504" y="22" width="13" height="13" rx="3" ry="3" fill="#0e4429"/>
<rect x="504" y="38" width="13" height="13" rx="3" ry="3" fill="#161b22"/>
<rect x="504" y="54" width="13" height="13" rx="3" ry="3" fill="#161b22"/>
<rect x="520" y="22" width="13" height="13" rx="3" ry="3" fill="#161b22"/>
<rect x="520" y="38" width="13" height="13" rx="3" ry="3" fill="#161b22"/>
<rect x="520" y="54" width="13" height="13" rx="3" ry="3" fill="#006d32"/>
<rect x="536" y="22" width="13" height="13" rx="3" ry="3" fill="#161b22"/>
<rect x="536" y="38" width="13" height="13" rx="3" ry="3" fill="#006d32"/>
<rect x="536" y="54" width="13" height="13" rx="3" ry="3" fill="#161b22"/>
<rect x="552" y="22" width="13" height="13" rx="3" ry="3" fill="#0e4429"/>
<rect x="552" y="38" width="13" height="13" rx="3" ry="3" fill="#0e4429"/>
<rect x="552" y="54" width="13" height="13" rx="3" ry="3" fill="#006d32"/>
<rect x="568" y="22" width="13" height="13" rx="3" ry="3" fill="#0e4429"/>
<rect x="568" y="38" width="13" height="13" rx="3" ry="3" fill="#006d32"/>
<rect x="568" y="54" width="13" height="13" rx="3" ry="3" fill="#0e4429"/>
<rect x="584" y="22" width="13" height="13" rx="3" ry="3" fill="#161b22"/>
<rect x="584" y="38" width="13" height="13" rx="3" ry="3" fill="#161b22"/>
<rect x="584" y="54" width="13" height="13" rx="3" ry="3" fill="#161b22"/>
<rect x="600" y="22" width="13" height="13" rx="3" ry="3" fill="#161b22"/>
<rect x="600" y="38" width="13" height="13" rx="3" ry="3" fill="#0e4429"/>
<rect x="600" y="54" width="13" height="13" rx="3" ry="3" fill="#161b22"/>
<rect x="616" y="22" width="13" height="13" rx="3" ry="3" fill="#0e4429"/>
<rect x="616" y="38" width="13" height="13" rx="3" ry="3" fill="#0e4429"/>
<rect x="616" y="54" width="13" height="13" rx="3" ry="3" fill="#161b22"/>
<rect x="632" y="22" width="13" height="13" rx="3" ry="3" fill="#0e4429"/>
<rect x="632" y="38" width="13" height="13" rx="3" ry="3" fill="#006d32"/>
<rect x="632" y="54" width="13" height="13" rx="3" ry="3" fill="#161b22"/>
<rect x="648" y="22" width="13" height="13" rx="3" ry="3" fill="#161b22"/>
<rect x="648" y="38" width="13" height="13" rx="3" ry="3" fill="#161b22"/>
<rect x="648" y="54" width="13" height="13" rx="3" ry="3" fill="#161b22"/>
<rect x="664" y="22" width="13" height="13" rx="3" ry="3" fill="#161b22"/>
<rect x="664" y="38" width="13" height="13" rx="3" ry="3" fill="#161b22"/>
<rect x="664" y="54" width="13" height="13" rx="3" ry="3" fill="#161b22"/>
<rect x="680" y="22" width="13" height="13" rx="3" ry="3" fill="#0e4429"/>
<rect x="680" y="38" width="13" height="13" rx="3" ry="3" fill="#006d32"/>
<rect x="680" y="54" width="13" height="13" rx="3" ry="3" fill="#161b22"/>
<rect x="696" y="22" width="13" height="13" rx="3" ry="3" fill="#0e4429"/>
<rect x="696" y="38" width="13" height="13" rx="3" ry="3" fill="#161b22"/>
<rect x="696" y="54" width="13" height="13" rx="3" ry="3" fill="#161b22"/>
<rect x="712" y="22" width="13" height="13" rx="3" ry="3" fill="#006d32"/>
<rect x="712" y="38" width="13" height="13" rx="3" ry="3" fill="#0e4429"/>
<rect x="712" y="54" width="13" height="13" rx="3" ry="3" fill="#161b22"/>
<rect x="728" y="22" width="13" height="13" rx="3" ry="3" fill="#0e4429"/>
<rect x="728" y="38" width="13" height="13" rx="3" ry="3" fill="#0e4429"/>
<rect x="728" y="54" width="13" height="13" rx="3" ry="3" fill="#0e4429"/>
<rect x="744" y="22" width="13" height="13" rx="3" ry="3" fill="#006d32"/>
<rect x="744" y="38" width="13" height="13" rx="3" ry="3" fill="#161b22"/>
<rect x="744" y="54" width="13" height="13" rx="3" ry="3" fill="#161b22"/>
<rect x="760" y="22" width="13" height="13" rx="3" ry="3" fill="#0e4429"/>
<rect x="760" y="38" width="13" height="13" rx="3" ry="3" fill="#161b22"/>
<rect x="760" y="54" width="13" height="13" rx="3" ry="3" fill="#006d32"/>
<rect x="776" y="22" width="13" height="13" rx="3" ry="3" fill="#0e4429"/>
<rect x="776" y="38" width="13" height="13" rx="3" ry="3" fill="#161b22"/>
<rect x="776" y="54" width="13" height="13" rx="3" ry="3" fill="#0e4429"/>
<rect x="792" y="22" width="13" height="13" rx="3" ry="3" fill="#0e4429"/>
<rect x="792" y="38" width="13" height="13" rx="3" ry="3" fill="#161b22"/>
<rect x="792" y="54" width="13" height="13" rx="3" ry="3" fill="#0e4429"/>
<rect x="808" y="22" width="13" height="13" rx="3" ry="3" fill="#0e4429"/>
<rect x="808" y="38" width="13" height="13" rx="3" ry="3" fill="#39d353"/>
<rect x="808" y="54" width="13" height="13" rx="3" ry="3" fill="#0e4429"/>
<rect x="824" y="22" width="13" height="13" rx="3" ry="3" fill="#161b22"/>
<rect x="824" y="38" width="13" height="13" rx="3" ry="3" fill="#0e4429"/>
<rect x="824" y="54" width="13" height="13" rx="3" ry="3" fill="#39d353"/>
<rect x="840" y="22" width="13" height="13" rx="3" ry="3" fill="#39d353"/>
<rect x="840" y="38" width="13" height="13" rx="3" ry="3" fill="#26a641"/>
<rect x="840" y="54" width="13" height="13" rx="3" ry="3" fill="#39d353"/>
<rect x="856" y="22" width="13" height="13" rx="3" ry="3" fill="#26a641"/>
<rect x="856" y="38" width="13" height="13" rx="3" ry="3" fill="#39d353"/>
<rect x="856" y="54" width="13" height="13" rx="3" ry="3" fill="#006d32"/>
<rect x="872" y="22" width="13" height="13" rx="3" ry="3" fill="#006d32"/>
<rect x="872" y="38" width="13" height="13" rx="3" ry="3" fill="#39d353"/>
<text x="376.7" y="88" fill="#39d353" font-size="12" font-weight="bold">+4815</text>
<text x="417.7" y="88" fill="#c9d1d9" font-size="12">contributions</text>
</svg>