<svg xmlns="http://www.w3.org/2000/svg" width="874" height="152" style="background:#0d1117;font-family:sans-serif;" shape-rendering="geometricPrecision">
<text x="42" y="12" fill="#c9d1d9" font-size="10">Jul</text>
<text x="106" y="12" fill="#c9d1d9" font-size="10">Aug</text>
<text x="170" y="12" fill="#c9d1d9" font-size="10">Sep</text>
<text x="250" y="12" fill="#c9d1d9" font-size="10">Oct</text>
<text x="314" y="12" fill="#c9d1d9" font-size="10">Nov</text>
<text x="378" y="12" fill="#c9d1d9" font-size="10">Dec</text>
<text x="458" y="12" fill="#c9d1d9" font-size="10">Jan</text>
<text x="522" y="12" fill="#c9d1d9" font-size="10">Feb</text>
<text x="586" y="12" fill="#c9d1d9" font-size="10">Mar</text>
<text x="666" y="12" fill="#c9d1d9" font-size="10">Apr</text>
<text x="730" y="12" fill="#c9d1d9" font-size="10">May</text>
<text x="794" y="12" fill="#c9d1d9" font-size="10">Jun</text>
<text x="2" y="34.666666666666664" fill="#c9d1d9" font-size="10">Mon</text>
<text x="2" y="66.66666666666667" fill="#c9d1d9" font-size="10">Wed</text>
<text x="2" y="98.66666666666667" fill="#c9d1d9" font-size="10">Fri</text>
<rect x="26" y="10" width="13" height="13" rx="3" ry="3" fill="#161b22"/>
<rect x="26" y="26" width="13" height="13" rx="3" ry="3" fill="#161b22"/>
<rect x="26" y="42" width="13" height="13" rx="3" ry="3" fill="#161b22"/>
<rect x="26" y="58" width="13" height="13" rx="3" ry="3" fill="#161b22"/>
<rect x="26" y="74" width="13" height="13" rx="3" ry="3" fill="#161b22"/>
<rect x="26" y="90" width="13" height="13" rx="3" ry="3" fill="#161b22"/>
<rect x="26" y="106" width="13" height="13" rx="3" ry="3" fill="#161b22"/>
<rect x="42" y="10" width="13" height="13" rx="3" ry="3" fill="#161b22"/>
<rect x="42" y="26" width="13" height="13" rx="3" ry="3" fill="#161b22"/>
<rect x="42" y="42" width="13" height="13" rx="3" ry="3" fill="#161b22"/>
<rect x="42" y="58" width="13" height="13" rx="3" ry="3" fill="#161b22"/>
<rect x="42" y="74" width="13" height="13" rx="3" ry="3" fill="#161b22"/>
<rect x="42" y="90" width="13" height="13" rx="3" ry="3" fill="#161b22"/>
<rect x="42" y="106" width="13" height="13" rx="3" ry="3" fill="#161b22"/>
<rect x="58" y="10" width="13" height="13" rx="3" ry="3" fill="#161b22"/>
<rect x="58" y="26" width="13" height="13" rx="3" ry="3" fill="#161b22"/>
<rect x="58" y="42" width="13" height="13" rx="3" ry="3" fill="#161b22"/>
<rect x="58" y="58" width="13" height="13" rx="3" ry="3" fill="#161b22"/>
<rect x="58" y="74" width="13" height="13" rx="3" ry="3" fill="#161b22"/>
<rect x="58" y="90" width="13" height="13" rx="3" ry="3" fill="#161b22"/>
<rect x="58" y="106" width="13" height="13" rx="3" ry="3" fill="#161b22"/>
<rect x="74" y="10" width="13" height="13" rx="3" ry="3" fill="#161b22"/>
<rect x="74" y="26" width="13" height="13" rx="3" ry="3" fill="#161b22"/>
<rect x="74" y="42" width="13" height="13" rx="3" ry="3" fill="#161b22"/>
<rect x="74" y="58" width="13" height="13" rx="3" ry="3" fill="#161b22"/>
<rect x="74" y="74" width="13" height="13" rx="3" ry="3" fill="#161b22"/>
<rect x="74" y="90" width="13" height="13" rx="3" ry="3" fill="#161b22"/>
<rect x="74" y="106" width="13" height="13" rx="3" ry="3" fill="#161b22"/>
<rect x="90" y="10" width="13" height="13" rx="3" ry="3" fill="#161b22"/>
<rect x="90" y="26" width="13" height="13" rx="3" ry="3" fill="#161b22"/>
<rect x="90" y="42" width="13" height="13" rx="3" ry="3" fill="#161b22"/>
<rect x="90" y="58" width="13" height="13" rx="3" ry="3" fill="#161b22"/>
<rect x="90" y="74" width="13" height="13" rx="3" ry="3" fill="#161b22"/>
<rect x="90" y="90" width="13" height="13" rx="3" ry="3" fill="#161b22"/>
<rect x="90" y="106" width="13" height="13" rx="3" ry="3" fill="#161b22"/>
<rect x="106" y="10" width="13" height="13" rx="3" ry="3" fill="#161b22"/>
<rect x="106" y="26" width="13" height="13" rx="3" ry="3" fill="#161b22"/>
<rect x="106" y="42" width="13" height="13" rx="3" ry="3" fill="#161b22"/>
<rect x="106" y="58" width="13" height="13" rx="3" ry="3" fill="#161b22"/>
<rect x="106" y="74" width="13" height="13" rx="3" ry="3" fill="#161b22"/>
<rect x="106" y="90" width="13" height="13" rx="3" ry="3" fill="#161b22"/>
<rect x="106" y="106" width="13" height="13" rx="3" ry="3" fill="#161b22"/>
<rect x="122" y="10" width="13" height="13" rx="3" ry="3" fill="#161b22"/>
<rect x="122" y="26" width="13" height="13" rx="3" ry="3" fill="#161b22"/>
<rect x="122" y="42" width="13" height="13" rx="3" ry="3" fill="#161b22"/>
<rect x="122" y="58" width="13" height="13" rx="3" ry="3" fill="#161b22"/>
<rect x="122" y="74" width="13" height="13" rx="3" ry="3" fill="#161b22"/>
<rect x="122" y="90" width="13" height="13" rx="3" ry="3" fill="#161b22"/>
<rect x="122" y="106" width="13" height="13" rx="3" ry="3" fill="#161b22"/>
<rect x="138" y="10" width="13" height="13" rx="3" ry="3" fill="#161b22"/>
<rect x="138" y="26" width="13" height="13" rx="3" ry="3" fill="#161b22"/>
<rect x="138" y="42" width="13" height="13" rx="3" ry="3" fill="#161b22"/>
<rect x="138" y="58" width="13" height="13" rx="3" ry="3" fill="#161b22"/>
<rect x="138" y="74" width="13" height="13" rx="3" ry="3" fill="#161b22"/>
<rect x="138" y="90" width="13" height="13" rx="3" ry="3" fill="#161b22"/>
<rect x="138" y="106" width="13" height="13" rx="3" ry="3" fill="#161b22"/>
<rect x="154" y="10" width="13" height="13" rx="3" ry="3" fill="#161b22"/>
<rect x="154" y="26" width="13" height="13" rx="3" ry="3" fill="#161b22"/>
<rect x="154" y="42" width="13" height="13" rx="3" ry="3" fill="#161b22"/>
<rect x="154" y="58" width="13" height="13" rx="3" ry="3" fill="#161b22"/>
<rect x="154" y="74" width="13" height="13" rx="3" ry="3" fill="#161b22"/>
<rect x="154" y="90" width="13" height="13" rx="3" ry="3" fill="#161b22"/>
<rect x="154" y="106" width="13" height="13" rx="3" ry="3" fill="#161b22"/>
<rect x="170" y="10" width="13" height="13" rx="3" ry="3" fill="#161b22"/>
<rect x="170" y="26" width="13" height="13" rx="3" ry="3" fill="#161b22"/>
<rect x="170" y="42" width="13" height="13" rx="3" ry="3" fill="#161b22"/>
<rect x="170" y="58" width="13" height="13" rx="3" ry="3" fill="#161b22"/>
<rect x="170" y="74" width="13" height="13" rx="3" ry="3" fill="#161b22"/>
<rect x="170" y="90" width="13" height="13" rx="3" ry="3" fill="#161b22"/>
<rect x="170" y="106" width="13" height="13" rx="3" ry="3" fill="#161b22"/>
<rect x="186" y="10" width="13" height="13" rx="3" ry="3" fill="#161b22"/>
<rect x="186" y="26" width="13" height="13" rx="3" ry="3" fill="#161b22"/>
<rect x="186" y="42" width="13" height="13" rx="3" ry="3" fill="#161b22"/>
<rect x="186" y="58" width="13" height="13" rx="3" ry="3" fill="#161b22"/>
<rect x="186" y="74" width="13" height="13" rx="3" ry="3" fill="#161b22"/>
<rect x="186" y="90" width="13" height="13" rx="3" ry="3" fill="#161b22"/>
<rect x="186" y="106" width="13" height="13" rx="3" ry="3" fill="#161b22"/>
<rect x="202" y="10" width="13" height="13" rx="3" ry="3" fill="#161b22"/>
<rect x="202" y="26" width="13" height="13" rx="3" ry="3" fill="#161b22"/>
<rect x="202" y="42" width="13" height="13" rx="3" ry="3" fill="#161b22"/>
<rect x="202" y="58" width="13" height="13" rx="3" ry="3" fill="#161b22"/>
<rect x="202" y="74" width="13" height="13" rx="3" ry="3" fill="#161b22"/>
<rect x="202" y="90" width="13" height="13" rx="3" ry="3" fill="#161b22"/>
<rect x="202" y="106" width="13" height="13" rx="3" ry="3" fill="#161b22"/>
<rect x="218" y="10" width="13" height="13" rx="3" ry="3" fill="#161b22"/>
<rect x="218" y="26" width="13" height="13" rx="3" ry="3" fill="#161b22"/>
<rect x="218" y="42" width="13" height="13" rx="3" ry="3" fill="#161b22"/>
<rect x="218" y="58" width="13" height="13" rx="3" ry="3" fill="#161b22"/>
<rect x="218" y="74" width="13" height="13" rx="3" ry="3" fill="#161b22"/>
<rect x="218" y="90" width="13" height="13" rx="3" ry="3" fill="#161b22"/>
<rect x="218" y="106" width="13" height="13" rx="3" ry="3" fill="#161b22"/>
<rect x="234" y="10" width="13" height="13" rx="3" ry="3" fill="#161b22"/>
<rect x="234" y="26" width="13" height="13" rx="3" ry="3" fill="#161b22"/>
<rect x="234" y="42" width="13" height="13" rx="3" ry="3" fill="#161b22"/>
<rect x="234" y="58" width="13" height="13" rx="3" ry="3" fill="#161b22"/>
<rect x="234" y="74" width="13" height="13" rx="3" ry="3" fill="#161b22"/>
<rect x="234" y="90" width="13" height="13" rx="3" ry="3" fill="#161b22"/>
<rect x="234" y="106" width="13" height="13" rx="3" ry="3" fill="#161b22"/>
<rect x="250" y="10" width="13" height="13" rx="3" ry="3" fill="#161b22"/>
<rect x="250" y="26" width="13" height="13" rx="3" ry="3" fill="#161b22"/>
<rect x="250" y="42" width="13" height="13" rx="3" ry="3" fill="#161b22"/>
<rect x="250" y="58" width="13" height="13" rx="3" ry="3" fill="#161b22"/>
<rect x="250" y="74" width="13" height="13" rx="3" ry="3" fill="#161b22"/>
<rect x="250" y="90" width="13" height="13" rx="3" ry="3" fill="#161b22"/>
<rect x="250" y="106" width="13" height="13" rx="3" ry="3" fill="#161b22"/>
<rect x="266" y="10" width="13" height="13" rx="3" ry="3" fill="#161b22"/>
<rect x="266" y="26" width="13" height="13" rx="3" ry="3" fill="#161b22"/>
<rect x="266" y="42" width="13" height="13" rx="3" ry="3" fill="#161b22"/>
<rect x="266" y="58" width="13" height="13" rx="3" ry="3" fill="#161b22"/>
<rect x="266" y="74" width="13" height="13" rx="3" ry="3" fill="#161b22"/>
<rect x="266" y="90" width="13" height="13" rx="3" ry="3" fill="#161b22"/>
<rect x="266" y="106" width="13" height="13" rx="3" ry="3" fill="#161b22"/>
<rect x="282" y="10" width="13" height="13" rx="3" ry="3" fill="#161b22"/>
<rect x="282" y="26" width="13" height="13" rx="3" ry="3" fill="#161b22"/>
<rect x="282" y="42" width="13" height="13" rx="3" ry="3" fill="#161b22"/>
<rect x="282" y="58" width="13" height="13" rx="3" ry="3" fill="#161b22"/>
<rect x="282" y="74" width="13" height="13" rx="3" ry="3" fill="#161b22"/>
<rect x="282" y="90" width="13" height="13" rx="3" ry="3" fill="#161b22"/>
<rect x="282" y="106" width="13" height="13" rx="3" ry="3" fill="#161b22"/>
<rect x="298" y="10" width="13" height="13" rx="3" ry="3" fill="#161b22"/>
<rect x="298" y="26" width="13" height="13" rx="3" ry="3" fill="#161b22"/>
<rect x="298" y="42" width="13" height="13" rx="3" ry="3" fill="#161b22"/>
<rect x="298" y="58" width="13" height="13" rx="3" ry="3" fill="#161b22"/>
<rect x="298" y="74" width="13" height="13" rx="3" ry="3" fill="#161b22"/>
<rect x="298" y="90" width="13" height="13" rx="3" ry="3" fill="#161b22"/>
<rect x="298" y="106" width="13" height="13" rx="3" ry="3" fill="#161b22"/>
<rect x="314" y="10" width="13" height="13" rx="3" ry="3" fill="#161b22"/>
<rect x="314" y="26" width="13" height="13" rx="3" ry="3" fill="#161b22"/>
<rect x="314" y="42" width="13" height="13" rx="3" ry="3" fill="#161b22"/>
<rect x="314" y="58" width="13" height="13" rx="3" ry="3" fill="#161b22"/>
<rect x="314" y="74" width="13" height="13" rx="3" ry="3" fill="#161b22"/>
<rect x="314" y="90" width="13" height="13" rx="3" ry="3" fill="#161b22"/>
<rect x="314" y="106" width="13" height="13" rx="3" ry="3" fill="#161b22"/>
<rect x="330" y="10" width="13" height="13" rx="3" ry="3" fill="#161b22"/>
<rect x="330" y="26" width="13" height="13" rx="3" ry="3" fill="#161b22"/>
<rect x="330" y="42" width="13" height="13" rx="3" ry="3" fill="#161b22"/>
<rect x="330" y="58" width="13" height="13" rx="3" ry="3" fill="#161b22"/>
<rect x="330" y="74" width="13" height="13" rx="3" ry="3" fill="#161b22"/>
<rect x="330" y="90" width="13" height="13" rx="3" ry="3" fill="#161b22"/>
<rect x="330" y="106" width="13" height="13" rx="3" ry="3" fill="#161b22"/>
<rect x="346" y="10" width="13" height="13" rx="3" ry="3" fill="#161b22"/>
<rect x="346" y="26" width="13" height="13" rx="3" ry="3" fill="#161b22"/>
<rect x="346" y="42" width="13" height="13" rx="3" ry="3" fill="#161b22"/>
<rect x="346" y="58" width="13" height="13" rx="3" ry="3" fill="#161b22"/>
<rect x="346" y="74" width="13" height="13" rx="3" ry="3" fill="#161b22"/>
<rect x="346" y="90" width="13" height="13" rx="3" ry="3" fill="#161b22"/>
<rect x="346" y="106" width="13" height="13" rx="3" ry="3" fill="#161b22"/>
<rect x="362" y="10" width="13" height="13" rx="3" ry="3" fill="#161b22"/>
<rect x="362" y="26" width="13" height="13" rx="3" ry="3" fill="#161b22"/>
<rect x="362" y="42" width="13" height="13" rx="3" ry="3" fill="#161b22"/>
<rect x="362" y="58" width="13" height="13" rx="3" ry="3" fill="#161b22"/>
<rect x="362" y="74" width="13" height="13" rx="3" ry="3" fill="#161b22"/>
<rect x="362" y="90" width="13" height="13" rx="3" ry="3" fill="#161b22"/>
<rect x="362" y="106" width="13" height="13" rx="3" ry="3" fill="#161b22"/>
<rect x="378" y="10" width="13" height="13" rx="3" ry="3" fill="#161b22"/>
<rect x="378" y="26" width="13" height="13" rx="3" ry="3" fill="#161b22"/>
<rect x="378" y="42" width="13" height="13" rx="3" ry="3" fill="#161b22"/>
<rect x="378" y="58" width="13" height="13" rx="3" ry="3" fill="#161b22"/>
<rect x="378" y="74" width="13" height="13" rx="3" ry="3" fill="#161b22"/>
<rect x="378" y="90" width="13" height="13" rx="3" ry="3" fill="#161b22"/>
<rect x="378" y="106" width="13" height="13" rx="3" ry="3" fill="#161b22"/>
<rect x="394" y="10" width="13" height="13" rx="3" ry="3" fill="#161b22"/>
<rect x="394" y="26" width="13" height="13" rx="3" ry="3" fill="#161b22"/>
<rect x="394" y="42" width="13" height="13" rx="3" ry="3" fill="#161b22"/>
<rect x="394" y="58" width="13" height="13" rx="3" ry="3" fill="#161b22"/>
<rect x="394" y="74" width="13" height="13" rx="3" ry="3" fill="#161b22"/>
<rect x="394" y="90" width="13" height="13" rx="3" ry="3" fill="#161b22"/>
<rect x="394" y="106" width="13" height="13" rx="3" ry="3" fill="#161b22"/>
<rect x="410" y="10" width="13" height="13" rx="3" ry="3" fill="#161b22"/>
<rect x="410" y="26" width="13" height="13" rx="3" ry="3" fill="#161b22"/>
<rect x="410" y="42" width="13" height="13" rx="3" ry="3" fill="#161b22"/>
<rect x="410" y="58" width="13" height="13" rx="3" ry="3" fill="#161b22"/>
<rect x="410" y="74" width="13" height="13" rx="3" ry="3" fill="#161b22"/>
<rect x="410" y="90" width="13" height="13" rx="3" ry="3" fill="#161b22"/>
<rect x="410" y="106" width="13" height="13" rx="3" ry="3" fill="#161b22"/>
<rect x="426" y="10" width="13" height="13" rx="3" ry="3" fill="#161b22"/>
<rect x="426" y="26" width="13" height="13" rx="3" ry="3" fill="#161b22"/>
<rect x="426" y="42" width="13" height="13" rx="3" ry="3" fill="#161b22"/>
<rect x="426" y="58" width="13" height="13" rx="3" ry="3" fill="#161b22"/>
<rect x="426" y="74" width="13" height="13" rx="3" ry="3" fill="#161b22"/>
<rect x="426" y="90" width="13" height="13" rx="3" ry="3" fill="#161b22"/>
<rect x="426" y="106" width="13" height="13" rx="3" ry="3" fill="#161b22"/>
<rect x="442" y="10" width="13" height="13" rx="3" ry="3" fill="#161b22"/>
<rect x="442" y="26" width="13" height="13" rx="3" ry="3" fill="#161b22"/>
<rect x="442" y="42" width="13" height="13" rx="3" ry="3" fill="#161b22"/>
<rect x="442" y="58" width="13" height="13" rx="3" ry="3" fill="#161b22"/>
<rect x="442" y="74" width="13" height="13" rx="3" ry="3" fill="#161b22"/>
<rect x="442" y="90" width="13" height="13" rx="3" ry="3" fill="#161b22"/>
<rect x="442" y="106" width="13" height="13" rx="3" ry="3" fill="#161b22"/>
<rect x="458" y="10" width="13" height="13" rx="3" ry="3" fill="#161b22"/>
<rect x="458" y="26" width="13" height="13" rx="3" ry="3" fill="#0e4429"/>
<rect x="458" y="42" width="13" height="13" rx="3" ry="3" fill="#161b22"/>
<rect x="458" y="58" width="13" height="13" rx="3" ry="3" fill="#161b22"/>
<rect x="458" y="74" width="13" height="13" rx="3" ry="3" fill="#161b22"/>
<rect x="458" y="90" width="13" height="13" rx="3" ry="3" fill="#006d32"/>
<rect x="458" y="106" width="13" height="13" rx="3" ry="3" fill="#0e4429"/>
<rect x="474" y="10" width="13" height="13" rx="3" ry="3" fill="#161b22"/>
<rect x="474" y="26" width="13" height="13" rx="3" ry="3" fill="#0e4429"/>
<rect x="474" y="42" width="13" height="13" rx="3" ry="3" fill="#161b22"/>
<rect x="474" y="58" width="13" height="13" rx="3" ry="3" fill="#161b22"/>
<rect x="474" y="74" width="13" height="13" rx="3" ry="3" fill="#161b22"/>
<rect x="474" y="90" width="13" height="13" rx="3" ry="3" fill="#0e4429"/>
<rect x="474" y="106" width="13" height="13" rx="3" ry="3" fill="#161b22"/>
<rect x="490" y="10" width="13" height="13" rx="3" ry="3" fill="#0e4429"/>
<rect x="490" y="26" width="13" height="13" rx="3" ry="3" fill="#0e4429"/>
<rect x="490" y="42" width="13" height="13" rx="3" ry="3" fill="#0e4429"/>
<rect x="490" y="58" width="13" height="13" rx="3" ry="3" fill="#161b22"/>
<rect x="490" y="74" width="13" height="13" rx="3" ry="3" fill="#0e4429"/>
<rect x="490" y="90" width="13" height="13" rx="3" ry="3" fill="#161b22"/>
<rect x="490" y="106" width="13" height="13" rx="3" ry="3" fill="#006d32"/>
<rect x="506" y="10" width="13" height="13" rx="3" ry="3" fill="#161b22"/>
<rect x="506" y="26" width="13" height="13" rx="3" ry="3" fill="#161b22"/>
<rect x="506" y="42" width="13" height="13" rx="3" ry="3" fill="#0e4429"/>
<rect x="506" y="58" width="13" height="13" rx="3" ry="3" fill="#161b22"/>
<rect x="506" y="74" width="13" height="13" rx="3" ry="3" fill="#161b22"/>
<rect x="506" y="90" width="13" height="13" rx="3" ry="3" fill="#006d32"/>
<rect x="506" y="106" width="13" height="13" rx="3" ry="3" fill="#0e4429"/>
<rect x="522" y="10" width="13" height="13" rx="3" ry="3" fill="#0e4429"/>
<rect x="522" y="26" width="13" height="13" rx="3" ry="3" fill="#161b22"/>
<rect x="522" y="42" width="13" height="13" rx="3" ry="3" fill="#161b22"/>
<rect x="522" y="58" width="13" height="13" rx="3" ry="3" fill="#006d32"/>
<rect x="522" y="74" width="13" height="13" rx="3" ry="3" fill="#161b22"/>
<rect x="522" y="90" width="13" height="13" rx="3" ry="3" fill="#161b22"/>
<rect x="522" y="106" width="13" height="13" rx="3" ry="3" fill="#161b22"/>
<rect x="538" y="10" width="13" height="13" rx="3" ry="3" fill="#161b22"/>
<rect x="538" y="26" width="13" height="13" rx="3" ry="3" fill="#0e4429"/>
<rect x="538" y="42" width="13" height="13" rx="3" ry="3" fill="#0e4429"/>
<rect x="538" y="58" width="13" height="13" rx="3" ry="3" fill="#0e4429"/>
<rect x="538" y="74" width="13" height="13" rx="3" ry="3" fill="#161b22"/>
<rect x="538" y="90" width="13" height="13" rx="3" ry="3" fill="#006d32"/>
<rect x="538" y="106" width="13" height="13" rx="3" ry="3" fill="#0e4429"/>
<rect x="554" y="10" width="13" height="13" rx="3" ry="3" fill="#0e4429"/>
<rect x="554" y="26" width="13" height="13" rx="3" ry="3" fill="#0e4429"/>
<rect x="554" y="42" width="13" height="13" rx="3" ry="3" fill="#161b22"/>
<rect x="554" y="58" width="13" height="13" rx="3" ry="3" fill="#006d32"/>
<rect x="554" y="74" width="13" height="13" rx="3" ry="3" fill="#0e4429"/>
<rect x="554" y="90" width="13" height="13" rx="3" ry="3" fill="#0e4429"/>
<rect x="554" y="106" width="13" height="13" rx="3" ry="3" fill="#161b22"/>
<rect x="570" y="10" width="13" height="13" rx="3" ry="3" fill="#161b22"/>
<rect x="570" y="26" width="13" height="13" rx="3" ry="3" fill="#161b22"/>
<rect x="570" y="42" width="13" height="13" rx="3" ry="3" fill="#161b22"/>
<rect x="570" y="58" width="13" height="13" rx="3" ry="3" fill="#161b22"/>
<rect x="570" y="74" width="13" height="13" rx="3" ry="3" fill="#161b22"/>
<rect x="570" y="90" width="13" height="13" rx="3" ry="3" fill="#161b22"/>
<rect x="570" y="106" width="13" height="13" rx="3" ry="3" fill="#161b22"/>
<rect x="586" y="10" width="13" height="13" rx="3" ry="3" fill="#006d32"/>
<rect x="586" y="26" width="13" height="13" rx="3" ry="3" fill="#161b22"/>
<rect x="586" y="42" width="13" height="13" rx="3" ry="3" fill="#161b22"/>
<rect x="586" y="58" width="13" height="13" rx="3" ry="3" fill="#0e4429"/>
<rect x="586" y="74" width="13" height="13" rx="3" ry="3" fill="#0e4429"/>
<rect x="586" y="90" width="13" height="13" rx="3" ry="3" fill="#161b22"/>
<rect x="586" y="106" width="13" height="13" rx="3" ry="3" fill="#006d32"/>
<rect x="602" y="10" width="13" height="13" rx="3" ry="3" fill="#161b22"/>
<rect x="602" y="26" width="13" height="13" rx="3" ry="3" fill="#0e4429"/>
<rect x="602" y="42" width="13" height="13" rx="3" ry="3" fill="#161b22"/>
<rect x="602" y="58" width="13" height="13" rx="3" ry="3" fill="#0e4429"/>
<rect x="602" y="74" width="13" height="13" rx="3" ry="3" fill="#161b22"/>
<rect x="602" y="90" width="13" height="13" rx="3" ry="3" fill="#161b22"/>
<rect x="602" y="106" width="13" height="13" rx="3" ry="3" fill="#006d32"/>
<rect x="618" y="10" width="13" height="13" rx="3" ry="3" fill="#0e4429"/>
<rect x="618" y="26" width="13" height="13" rx="3" ry="3" fill="#0e4429"/>
<rect x="618" y="42" width="13" height="13" rx="3" ry="3" fill="#161b22"/>
<rect x="618" y="58" width="13" height="13" rx="3" ry="3" fill="#006d32"/>
<rect x="618" y="74" width="13" height="13" rx="3" ry="3" fill="#0e4429"/>
<rect x="618" y="90" width="13" height="13" rx="3" ry="3" fill="#161b22"/>
<rect x="618" y="106" width="13" height="13" rx="3" ry="3" fill="#161b22"/>
<rect x="634" y="10" width="13" height="13" rx="3" ry="3" fill="#161b22"/>
<rect x="634" y="26" width="13" height="13" rx="3" ry="3" fill="#161b22"/>
<rect x="634" y="42" width="13" height="13" rx="3" ry="3" fill="#0e4429"/>
<rect x="634" y="58" width="13" height="13" rx="3" ry="3" fill="#161b22"/>
<rect x="634" y="74" width="13" height="13" rx="3" ry="3" fill="#0e4429"/>
<rect x="634" y="90" width="13" height="13" rx="3" ry="3" fill="#161b22"/>
<rect x="634" y="106" width="13" height="13" rx="3" ry="3" fill="#161b22"/>
<rect x="650" y="10" width="13" height="13" rx="3" ry="3" fill="#0e4429"/>
<rect x="650" y="26" width="13" height="13" rx="3" ry="3" fill="#161b22"/>
<rect x="650" y="42" width="13" height="13" rx="3" ry="3" fill="#161b22"/>
<rect x="650" y="58" width="13" height="13" rx="3" ry="3" fill="#161b22"/>
<rect x="650" y="74" width="13" height="13" rx="3" ry="3" fill="#0e4429"/>
<rect x="650" y="90" width="13" height="13" rx="3" ry="3" fill="#161b22"/>
<rect x="650" y="106" width="13" height="13" rx="3" ry="3" fill="#0e4429"/>
<rect x="666" y="10" width="13" height="13" rx="3" ry="3" fill="#161b22"/>
<rect x="666" y="26" width="13" height="13" rx="3" ry="3" fill="#0e4429"/>
<rect x="666" y="42" width="13" height="13" rx="3" ry="3" fill="#0e4429"/>
<rect x="666" y="58" width="13" height="13" rx="3" ry="3" fill="#006d32"/>
<rect x="666" y="74" width="13" height="13" rx="3" ry="3" fill="#0e4429"/>
<rect x="666" y="90" width="13" height="13" rx="3" ry="3" fill="#161b22"/>
<rect x="666" y="106" width="13" height="13" rx="3" ry="3" fill="#161b22"/>
<rect x="682" y="10" width="13" height="13" rx="3" ry="3" fill="#0e4429"/>
<rect x="682" y="26" width="13" height="13" rx="3" ry="3" fill="#0e4429"/>
<rect x="682" y="42" width="13" height="13" rx="3" ry="3" fill="#0e4429"/>
<rect x="682" y="58" width="13" height="13" rx="3" ry="3" fill="#161b22"/>
<rect x="682" y="74" width="13" height="13" rx="3" ry="3" fill="#161b22"/>
<rect x="682" y="90" width="13" height="13" rx="3" ry="3" fill="#161b22"/>
<rect x="682" y="106" width="13" height="13" rx="3" ry="3" fill="#161b22"/>
<rect x="698" y="10" width="13" height="13" rx="3" ry="3" fill="#161b22"/>
<rect x="698" y="26" width="13" height="13" rx="3" ry="3" fill="#006d32"/>
<rect x="698" y="42" width="13" height="13" rx="3" ry="3" fill="#161b22"/>
<rect x="698" y="58" width="13" height="13" rx="3" ry="3" fill="#0e4429"/>
<rect x="698" y="74" width="13" height="13" rx="3" ry="3" fill="#161b22"/>
<rect x="698" y="90" width="13" height="13" rx="3" ry="3" fill="#161b22"/>
<rect x="698" y="106" width="13" height="13" rx="3" ry="3" fill="#161b22"/>
<rect x="714" y="10" width="13" height="13" rx="3" ry="3" fill="#0e4429"/>
<rect x="714" y="26" width="13" height="13" rx="3" ry="3" fill="#0e4429"/>
<rect x="714" y="42" width="13" height="13" rx="3" ry="3" fill="#161b22"/>
<rect x="714" y="58" width="13" height="13" rx="3" ry="3" fill="#0e4429"/>
<rect x="714" y="74" width="13" height="13" rx="3" ry="3" fill="#006d32"/>
<rect x="714" y="90" width="13" height="13" rx="3" ry="3" fill="#0e4429"/>
<rect x="714" y="106" width="13" height="13" rx="3" ry="3" fill="#0e4429"/>
<rect x="730" y="10" width="13" height="13" rx="3" ry="3" fill="#161b22"/>
<rect x="730" y="26" width="13" height="13" rx="3" ry="3" fill="#006d32"/>
<rect x="730" y="42" width="13" height="13" rx="3" ry="3" fill="#006d32"/>
<rect x="730" y="58" width="13" height="13" rx="3" ry="3" fill="#161b22"/>
<rect x="730" y="74" width="13" height="13" rx="3" ry="3" fill="#0e4429"/>
<rect x="730" y="90" width="13" height="13" rx="3" ry="3" fill="#161b22"/>
<rect x="730" y="106" width="13" height="13" rx="3" ry="3" fill="#006d32"/>
<rect x="746" y="10" width="13" height="13" rx="3" ry="3" fill="#161b22"/>
<rect x="746" y="26" width="13" height="13" rx="3" ry="3" fill="#0e4429"/>
<rect x="746" y="42" width="13" height="13" rx="3" ry="3" fill="#0e4429"/>
<rect x="746" y="58" width="13" height="13" rx="3" ry="3" fill="#161b22"/>
<rect x="746" y="74" width="13" height="13" rx="3" ry="3" fill="#161b22"/>
<rect x="746" y="90" width="13" height="13" rx="3" ry="3" fill="#006d32"/>
<rect x="746" y="106" width="13" height="13" rx="3" ry="3" fill="#0e4429"/>
<rect x="762" y="10" width="13" height="13" rx="3" ry="3" fill="#0e4429"/>
<rect x="762" y="26" width="13" height="13" rx="3" ry="3" fill="#0e4429"/>
<rect x="762" y="42" width="13" height="13" rx="3" ry="3" fill="#0e4429"/>
<rect x="762" y="58" width="13" height="13" rx="3" ry="3" fill="#161b22"/>
<rect x="762" y="74" width="13" height="13" rx="3" ry="3" fill="#161b22"/>
<rect x="762" y="90" width="13" height="13" rx="3" ry="3" fill="#0e4429"/>
<rect x="762" y="106" width="13" height="13" rx="3" ry="3" fill="#161b22"/>
<rect x="778" y="10" width="13" height="13" rx="3" ry="3" fill="#0e4429"/>
<rect x="778" y="26" width="13" height="13" rx="3" ry="3" fill="#0e4429"/>
<rect x="778" y="42" width="13" height="13" rx="3" ry="3" fill="#161b22"/>
<rect x="778" y="58" width="13" height="13" rx="3" ry="3" fill="#161b22"/>
<rect x="778" y="74" width="13" height="13" rx="3" ry="3" fill="#161b22"/>
<rect x="778" y="90" width="13" height="13" rx="3" ry="3" fill="#0e4429"/>
<rect x="778" y="106" width="13" height="13" rx="3" ry="3" fill="#39d353"/>
<rect x="794" y="10" width="13" height="13" rx="3" ry="3" fill="#39d353"/>
<rect x="794" y="26" width="13" height="13" rx="3" ry="3" fill="#0e4429"/>
<rect x="794" y="42" width="13" height="13" rx="3" ry="3" fill="#39d353"/>
<rect x="794" y="58" width="13" height="13" rx="3" ry="3" fill="#39d353"/>
<rect x="794" y="74" width="13" height="13" rx="3" ry="3" fill="#26a641"/>
<rect x="794" y="90" width="13" height="13" rx="3" ry="3" fill="#0e4429"/>
<rect x="794" y="106" width="13" height="13" rx="3" ry="3" fill="#006d32"/>
<rect x="810" y="10" width="13" height="13" rx="3" ry="3" fill="#006d32"/>
<rect x="810" y="26" width="13" height="13" rx="3" ry="3" fill="#161b22"/>
<rect x="810" y="42" width="13" height="13" rx="3" ry="3" fill="#0e4429"/>
<rect x="810" y="58" width="13" height="13" rx="3" ry="3" fill="#0e4429"/>
<rect x="810" y="74" width="13" height="13" rx="3" ry="3" fill="#0e4429"/>
<rect x="810" y="90" width="13" height="13" rx="3" ry="3" fill="#39d353"/>
<rect x="810" y="106" width="13" height="13" rx="3" ry="3" fill="#39d353"/>
<rect x="826" y="10" width="13" height="13" rx="3" ry="3" fill="#26a641"/>
<rect x="826" y="26" width="13" height="13" rx="3" ry="3" fill="#39d353"/>
<rect x="826" y="42" width="13" height="13" rx="3" ry="3" fill="#39d353"/>
<rect x="826" y="58" width="13" height="13" rx="3" ry="3" fill="#26a641"/>
<rect x="826" y="74" width="13" height="13" rx="3" ry="3" fill="#39d353"/>
<rect x="826" y="90" width="13" height="13" rx="3" ry="3" fill="#39d353"/>
<rect x="826" y="106" width="13" height="13" rx="3" ry="3" fill="#39d353"/>
<rect x="842" y="10" width="13" height="13" rx="3" ry="3" fill="#39d353"/>
<rect x="842" y="26" width="13" height="13" rx="3" ry="3" fill="#26a641"/>
<rect x="842" y="42" width="13" height="13" rx="3" ry="3" fill="#39d353"/>
<rect x="842" y="58" width="13" height="13" rx="3" ry="3" fill="#39d353"/>
<rect x="842" y="74" width="13" height="13" rx="3" ry="3" fill="#26a641"/>
<rect x="842" y="90" width="13" height="13" rx="3" ry="3" fill="#006d32"/>
<rect x="842" y="106" width="13" height="13" rx="3" ry="3" fill="#0e4429"/>
<rect x="858" y="10" width="13" height="13" rx="3" ry="3" fill="#0e4429"/>
<rect x="858" y="26" width="13" height="13" rx="3" ry="3" fill="#006d32"/>
<rect x="858" y="42" width="13" height="13" rx="3" ry="3" fill="#39d353"/>
<rect x="858" y="58" width="13" height="13" rx="3" ry="3" fill="#161b22"/>
<text x="369.7" y="142" fill="#39d353" font-size="12" font-weight="bold">+4782</text>
<text x="410.7" y="142" fill="#c9d1d9" font-size="12">contributions</text>
</svg>