<svg xmlns="http://www.w3.org/2000/svg" width="874" height="157" style="background:#0d1117;font-family:sans-serif;" shape-rendering="geometricPrecision">
<text x="42" y="12" fill="#c9d1d9" font-size="10">Jul</text>
<text x="106" y="12" fill="#c9d1d9" font-size="10">Aug</text>
<text x="170" y="12" fill="#c9d1d9" font-size="10">Sep</text>
<text x="250" y="12" fill="#c9d1d9" font-size="10">Oct</text>
<text x="314" y="12" fill="#c9d1d9" font-size="10">Nov</text>
<text x="378" y="12" fill="#c9d1d9" font-size="10">Dec</text>
<text x="458" y="12" fill="#c9d1d9" font-size="10">Jan</text>
<text x="522" y="12" fill="#c9d1d9" font-size="10">Feb</text>
<text x="586" y="12" fill="#c9d1d9" font-size="10">Mar</text>
<text x="666" y="12" fill="#c9d1d9" font-size="10">Apr</text>
<text x="730" y="12" fill="#c9d1d9" font-size="10">May</text>
<text x="794" y="12" fill="#c9d1d9" font-size="10">Jun</text>
<text x="2" y="39.666666666666664" fill="#c9d1d9" font-size="10">Mon</text>
<text x="2" y="71.66666666666667" fill="#c9d1d9" font-size="10">Wed</text>
<text x="2" y="103.66666666666667" fill="#c9d1d9" font-size="10">Fri</text>
<rect x="26" y="15" width="13" height="13" rx="3" ry="3" fill="#161b22"/>
<rect x="26" y="31" width="13" height="13" rx="3" ry="3" fill="#161b22"/>
<rect x="26" y="47" width="13" height="13" rx="3" ry="3" fill="#161b22"/>
<rect x="26" y="63" width="13" height="13" rx="3" ry="3" fill="#161b22"/>
<rect x="26" y="79" width="13" height="13" rx="3" ry="3" fill="#161b22"/>
<rect x="26" y="95" width="13" height="13" rx="3" ry="3" fill="#161b22"/>
<rect x="26" y="111" width="13" height="13" rx="3" ry="3" fill="#161b22"/>
<rect x="42" y="15" width="13" height="13" rx="3" ry="3" fill="#161b22"/>
<rect x="42" y="31" width="13" height="13" rx="3" ry="3" fill="#161b22"/>
<rect x="42" y="47" width="13" height="13" rx="3" ry="3" fill="#161b22"/>
<rect x="42" y="63" width="13" height="13" rx="3" ry="3" fill="#161b22"/>
<rect x="42" y="79" width="13" height="13" rx="3" ry="3" fill="#161b22"/>
<rect x="42" y="95" width="13" height="13" rx="3" ry="3" fill="#161b22"/>
<rect x="42" y="111" width="13" height="13" rx="3" ry="3" fill="#161b22"/>
<rect x="58" y="15" width="13" height="13" rx="3" ry="3" fill="#161b22"/>
<rect x="58" y="31" width="13" height="13" rx="3" ry="3" fill="#161b22"/>
<rect x="58" y="47" width="13" height="13" rx="3" ry="3" fill="#161b22"/>
<rect x="58" y="63" width="13" height="13" rx="3" ry="3" fill="#161b22"/>
<rect x="58" y="79" width="13" height="13" rx="3" ry="3" fill="#161b22"/>
<rect x="58" y="95" width="13" height="13" rx="3" ry="3" fill="#161b22"/>
<rect x="58" y="111" width="13" height="13" rx="3" ry="3" fill="#161b22"/>
<rect x="74" y="15" width="13" height="13" rx="3" ry="3" fill="#161b22"/>
<rect x="74" y="31" width="13" height="13" rx="3" ry="3" fill="#161b22"/>
<rect x="74" y="47" width="13" height="13" rx="3" ry="3" fill="#161b22"/>
<rect x="74" y="63" width="13" height="13" rx="3" ry="3" fill="#161b22"/>
<rect x="74" y="79" width="13" height="13" rx="3" ry="3" fill="#161b22"/>
<rect x="74" y="95" width="13" height="13" rx="3" ry="3" fill="#161b22"/>
<rect x="74" y="111" width="13" height="13" rx="3" ry="3" fill="#161b22"/>
<rect x="90" y="15" width="13" height="13" rx="3" ry="3" fill="#161b22"/>
<rect x="90" y="31" width="13" height="13" rx="3" ry="3" fill="#161b22"/>
<rect x="90" y="47" width="13" height="13" rx="3" ry="3" fill="#161b22"/>
<rect x="90" y="63" width="13" height="13" rx="3" ry="3" fill="#161b22"/>
<rect x="90" y="79" width="13" height="13" rx="3" ry="3" fill="#161b22"/>
<rect x="90" y="95" width="13" height="13" rx="3" ry="3" fill="#161b22"/>
<rect x="90" y="111" width="13" height="13" rx="3" ry="3" fill="#161b22"/>
<rect x="106" y="15" width="13" height="13" rx="3" ry="3" fill="#161b22"/>
<rect x="106" y="31" width="13" height="13" rx="3" ry="3" fill="#161b22"/>
<rect x="106" y="47" width="13" height="13" rx="3" ry="3" fill="#161b22"/>
<rect x="106" y="63" width="13" height="13" rx="3" ry="3" fill="#161b22"/>
<rect x="106" y="79" width="13" height="13" rx="3" ry="3" fill="#161b22"/>
<rect x="106" y="95" width="13" height="13" rx="3" ry="3" fill="#161b22"/>
<rect x="106" y="111" width="13" height="13" rx="3" ry="3" fill="#161b22"/>
<rect x="122" y="15" width="13" height="13" rx="3" ry="3" fill="#161b22"/>
<rect x="122" y="31" width="13" height="13" rx="3" ry="3" fill="#161b22"/>
<rect x="122" y="47" width="13" height="13" rx="3" ry="3" fill="#161b22"/>
<rect x="122" y="63" width="13" height="13" rx="3" ry="3" fill="#161b22"/>
<rect x="122" y="79" width="13" height="13" rx="3" ry="3" fill="#161b22"/>
<rect x="122" y="95" width="13" height="13" rx="3" ry="3" fill="#161b22"/>
<rect x="122" y="111" width="13" height="13" rx="3" ry="3" fill="#161b22"/>
<rect x="138" y="15" width="13" height="13" rx="3" ry="3" fill="#161b22"/>
<rect x="138" y="31" width="13" height="13" rx="3" ry="3" fill="#161b22"/>
<rect x="138" y="47" width="13" height="13" rx="3" ry="3" fill="#161b22"/>
<rect x="138" y="63" width="13" height="13" rx="3" ry="3" fill="#161b22"/>
<rect x="138" y="79" width="13" height="13" rx="3" ry="3" fill="#161b22"/>
<rect x="138" y="95" width="13" height="13" rx="3" ry="3" fill="#161b22"/>
<rect x="138" y="111" width="13" height="13" rx="3" ry="3" fill="#161b22"/>
<rect x="154" y="15" width="13" height="13" rx="3" ry="3" fill="#161b22"/>
<rect x="154" y="31" width="13" height="13" rx="3" ry="3" fill="#161b22"/>
<rect x="154" y="47" width="13" height="13" rx="3" ry="3" fill="#161b22"/>
<rect x="154" y="63" width="13" height="13" rx="3" ry="3" fill="#161b22"/>
<rect x="154" y="79" width="13" height="13" rx="3" ry="3" fill="#161b22"/>
<rect x="154" y="95" width="13" height="13" rx="3" ry="3" fill="#161b22"/>
<rect x="154" y="111" width="13" height="13" rx="3" ry="3" fill="#161b22"/>
<rect x="170" y="15" width="13" height="13" rx="3" ry="3" fill="#161b22"/>
<rect x="170" y="31" width="13" height="13" rx="3" ry="3" fill="#161b22"/>
<rect x="170" y="47" width="13" height="13" rx="3" ry="3" fill="#161b22"/>
<rect x="170" y="63" width="13" height="13" rx="3" ry="3" fill="#161b22"/>
<rect x="170" y="79" width="13" height="13" rx="3" ry="3" fill="#161b22"/>
<rect x="170" y="95" width="13" height="13" rx="3" ry="3" fill="#161b22"/>
<rect x="170" y="111" width="13" height="13" rx="3" ry="3" fill="#161b22"/>
<rect x="186" y="15" width="13" height="13" rx="3" ry="3" fill="#161b22"/>
<rect x="186" y="31" width="13" height="13" rx="3" ry="3" fill="#161b22"/>
<rect x="186" y="47" width="13" height="13" rx="3" ry="3" fill="#161b22"/>
<rect x="186" y="63" width="13" height="13" rx="3" ry="3" fill="#161b22"/>
<rect x="186" y="79" width="13" height="13" rx="3" ry="3" fill="#161b22"/>
<rect x="186" y="95" width="13" height="13" rx="3" ry="3" fill="#161b22"/>
<rect x="186" y="111" width="13" height="13" rx="3" ry="3" fill="#161b22"/>
<rect x="202" y="15" width="13" height="13" rx="3" ry="3" fill="#161b22"/>
<rect x="202" y="31" width="13" height="13" rx="3" ry="3" fill="#161b22"/>
<rect x="202" y="47" width="13" height="13" rx="3" ry="3" fill="#161b22"/>
<rect x="202" y="63" width="13" height="13" rx="3" ry="3" fill="#161b22"/>
<rect x="202" y="79" width="13" height="13" rx="3" ry="3" fill="#161b22"/>
<rect x="202" y="95" width="13" height="13" rx="3" ry="3" fill="#161b22"/>
<rect x="202" y="111" width="13" height="13" rx="3" ry="3" fill="#161b22"/>
<rect x="218" y="15" width="13" height="13" rx="3" ry="3" fill="#161b22"/>
<rect x="218" y="31" width="13" height="13" rx="3" ry="3" fill="#161b22"/>
<rect x="218" y="47" width="13" height="13" rx="3" ry="3" fill="#161b22"/>
<rect x="218" y="63" width="13" height="13" rx="3" ry="3" fill="#161b22"/>
<rect x="218" y="79" width="13" height="13" rx="3" ry="3" fill="#161b22"/>
<rect x="218" y="95" width="13" height="13" rx="3" ry="3" fill="#161b22"/>
<rect x="218" y="111" width="13" height="13" rx="3" ry="3" fill="#161b22"/>
<rect x="234" y="15" width="13" height="13" rx="3" ry="3" fill="#161b22"/>
<rect x="234" y="31" width="13" height="13" rx="3" ry="3" fill="#161b22"/>
<rect x="234" y="47" width="13" height="13" rx="3" ry="3" fill="#161b22"/>
<rect x="234" y="63" width="13" height="13" rx="3" ry="3" fill="#161b22"/>
<rect x="234" y="79" width="13" height="13" rx="3" ry="3" fill="#161b22"/>
<rect x="234" y="95" width="13" height="13" rx="3" ry="3" fill="#161b22"/>
<rect x="234" y="111" width="13" height="13" rx="3" ry="3" fill="#161b22"/>
<rect x="250" y="15" width="13" height="13" rx="3" ry="3" fill="#161b22"/>
<rect x="250" y="31" width="13" height="13" rx="3" ry="3" fill="#161b22"/>
<rect x="250" y="47" width="13" height="13" rx="3" ry="3" fill="#161b22"/>
<rect x="250" y="63" width="13" height="13" rx="3" ry="3" fill="#161b22"/>
<rect x="250" y="79" width="13" height="13" rx="3" ry="3" fill="#161b22"/>
<rect x="250" y="95" width="13" height="13" rx="3" ry="3" fill="#161b22"/>
<rect x="250" y="111" width="13" height="13" rx="3" ry="3" fill="#161b22"/>
<rect x="266" y="15" width="13" height="13" rx="3" ry="3" fill="#161b22"/>
<rect x="266" y="31" width="13" height="13" rx="3" ry="3" fill="#161b22"/>
<rect x="266" y="47" width="13" height="13" rx="3" ry="3" fill="#161b22"/>
<rect x="266" y="63" width="13" height="13" rx="3" ry="3" fill="#161b22"/>
<rect x="266" y="79" width="13" height="13" rx="3" ry="3" fill="#161b22"/>
<rect x="266" y="95" width="13" height="13" rx="3" ry="3" fill="#161b22"/>
<rect x="266" y="111" width="13" height="13" rx="3" ry="3" fill="#161b22"/>
<rect x="282" y="15" width="13" height="13" rx="3" ry="3" fill="#161b22"/>
<rect x="282" y="31" width="13" height="13" rx="3" ry="3" fill="#161b22"/>
<rect x="282" y="47" width="13" height="13" rx="3" ry="3" fill="#161b22"/>
<rect x="282" y="63" width="13" height="13" rx="3" ry="3" fill="#161b22"/>
<rect x="282" y="79" width="13" height="13" rx="3" ry="3" fill="#161b22"/>
<rect x="282" y="95" width="13" height="13" rx="3" ry="3" fill="#161b22"/>
<rect x="282" y="111" width="13" height="13" rx="3" ry="3" fill="#161b22"/>
<rect x="298" y="15" width="13" height="13" rx="3" ry="3" fill="#161b22"/>
<rect x="298" y="31" width="13" height="13" rx="3" ry="3" fill="#161b22"/>
<rect x="298" y="47" width="13" height="13" rx="3" ry="3" fill="#161b22"/>
<rect x="298" y="63" width="13" height="13" rx="3" ry="3" fill="#161b22"/>
<rect x="298" y="79" width="13" height="13" rx="3" ry="3" fill="#161b22"/>
<rect x="298" y="95" width="13" height="13" rx="3" ry="3" fill="#161b22"/>
<rect x="298" y="111" width="13" height="13" rx="3" ry="3" fill="#161b22"/>
<rect x="314" y="15" width="13" height="13" rx="3" ry="3" fill="#161b22"/>
<rect x="314" y="31" width="13" height="13" rx="3" ry="3" fill="#161b22"/>
<rect x="314" y="47" width="13" height="13" rx="3" ry="3" fill="#161b22"/>
<rect x="314" y="63" width="13" height="13" rx="3" ry="3" fill="#161b22"/>
<rect x="314" y="79" width="13" height="13" rx="3" ry="3" fill="#161b22"/>
<rect x="314" y="95" width="13" height="13" rx="3" ry="3" fill="#161b22"/>
<rect x="314" y="111" width="13" height="13" rx="3" ry="3" fill="#161b22"/>
<rect x="330" y="15" width="13" height="13" rx="3" ry="3" fill="#161b22"/>
<rect x="330" y="31" width="13" height="13" rx="3" ry="3" fill="#161b22"/>
<rect x="330" y="47" width="13" height="13" rx="3" ry="3" fill="#161b22"/>
<rect x="330" y="63" width="13" height="13" rx="3" ry="3" fill="#161b22"/>
<rect x="330" y="79" width="13" height="13" rx="3" ry="3" fill="#161b22"/>
<rect x="330" y="95" width="13" height="13" rx="3" ry="3" fill="#161b22"/>
<rect x="330" y="111" width="13" height="13" rx="3" ry="3" fill="#161b22"/>
<rect x="346" y="15" width="13" height="13" rx="3" ry="3" fill="#161b22"/>
<rect x="346" y="31" width="13" height="13" rx="3" ry="3" fill="#161b22"/>
<rect x="346" y="47" width="13" height="13" rx="3" ry="3" fill="#161b22"/>
<rect x="346" y="63" width="13" height="13" rx="3" ry="3" fill="#161b22"/>
<rect x="346" y="79" width="13" height="13" rx="3" ry="3" fill="#161b22"/>
<rect x="346" y="95" width="13" height="13" rx="3" ry="3" fill="#161b22"/>
<rect x="346" y="111" width="13" height="13" rx="3" ry="3" fill="#161b22"/>
<rect x="362" y="15" width="13" height="13" rx="3" ry="3" fill="#161b22"/>
<rect x="362" y="31" width="13" height="13" rx="3" ry="3" fill="#161b22"/>
<rect x="362" y="47" width="13" height="13" rx="3" ry="3" fill="#161b22"/>
<rect x="362" y="63" width="13" height="13" rx="3" ry="3" fill="#161b22"/>
<rect x="362" y="79" width="13" height="13" rx="3" ry="3" fill="#161b22"/>
<rect x="362" y="95" width="13" height="13" rx="3" ry="3" fill="#161b22"/>
<rect x="362" y="111" width="13" height="13" rx="3" ry="3" fill="#161b22"/>
<rect x="378" y="15" width="13" height="13" rx="3" ry="3" fill="#161b22"/>
<rect x="378" y="31" width="13" height="13" rx="3" ry="3" fill="#161b22"/>
<rect x="378" y="47" width="13" height="13" rx="3" ry="3" fill="#161b22"/>
<rect x="378" y="63" width="13" height="13" rx="3" ry="3" fill="#161b22"/>
<rect x="378" y="79" width="13" height="13" rx="3" ry="3" fill="#161b22"/>
<rect x="378" y="95" width="13" height="13" rx="3" ry="3" fill="#161b22"/>
<rect x="378" y="111" width="13" height="13" rx="3" ry="3" fill="#161b22"/>
<rect x="394" y="15" width="13" height="13" rx="3" ry="3" fill="#161b22"/>
<rect x="394" y="31" width="13" height="13" rx="3" ry="3" fill="#161b22"/>
<rect x="394" y="47" width="13" height="13" rx="3" ry="3" fill="#161b22"/>
<rect x="394" y="63" width="13" height="13" rx="3" ry="3" fill="#161b22"/>
<rect x="394" y="79" width="13" height="13" rx="3" ry="3" fill="#161b22"/>
<rect x="394" y="95" width="13" height="13" rx="3" ry="3" fill="#161b22"/>
<rect x="394" y="111" width="13" height="13" rx="3" ry="3" fill="#161b22"/>
<rect x="410" y="15" width="13" height="13" rx="3" ry="3" fill="#161b22"/>
<rect x="410" y="31" width="13" height="13" rx="3" ry="3" fill="#161b22"/>
<rect x="410" y="47" width="13" height="13" rx="3" ry="3" fill="#161b22"/>
<rect x="410" y="63" width="13" height="13" rx="3" ry="3" fill="#161b22"/>
<rect x="410" y="79" width="13" height="13" rx="3" ry="3" fill="#161b22"/>
<rect x="410" y="95" width="13" height="13" rx="3" ry="3" fill="#161b22"/>
<rect x="410" y="111" width="13" height="13" rx="3" ry="3" fill="#161b22"/>
<rect x="426" y="15" width="13" height="13" rx="3" ry="3" fill="#161b22"/>
<rect x="426" y="31" width="13" height="13" rx="3" ry="3" fill="#161b22"/>
<rect x="426" y="47" width="13" height="13" rx="3" ry="3" fill="#161b22"/>
<rect x="426" y="63" width="13" height="13" rx="3" ry="3" fill="#161b22"/>
<rect x="426" y="79" width="13" height="13" rx="3" ry="3" fill="#161b22"/>
<rect x="426" y="95" width="13" height="13" rx="3" ry="3" fill="#161b22"/>
<rect x="426" y="111" width="13" height="13" rx="3" ry="3" fill="#161b22"/>
<rect x="442" y="15" width="13" height="13" rx="3" ry="3" fill="#161b22"/>
<rect x="442" y="31" width="13" height="13" rx="3" ry="3" fill="#161b22"/>
<rect x="442" y="47" width="13" height="13" rx="3" ry="3" fill="#161b22"/>
<rect x="442" y="63" width="13" height="13" rx="3" ry="3" fill="#161b22"/>
<rect x="442" y="79" width="13" height="13" rx="3" ry="3" fill="#161b22"/>
<rect x="442" y="95" width="13" height="13" rx="3" ry="3" fill="#161b22"/>
<rect x="442" y="111" width="13" height="13" rx="3" ry="3" fill="#161b22"/>
<rect x="458" y="15" width="13" height="13" rx="3" ry="3" fill="#161b22"/>
<rect x="458" y="31" width="13" height="13" rx="3" ry="3" fill="#0e4429"/>
<rect x="458" y="47" width="13" height="13" rx="3" ry="3" fill="#161b22"/>
<rect x="458" y="63" width="13" height="13" rx="3" ry="3" fill="#161b22"/>
<rect x="458" y="79" width="13" height="13" rx="3" ry="3" fill="#161b22"/>
<rect x="458" y="95" width="13" height="13" rx="3" ry="3" fill="#006d32"/>
<rect x="458" y="111" width="13" height="13" rx="3" ry="3" fill="#0e4429"/>
<rect x="474" y="15" width="13" height="13" rx="3" ry="3" fill="#161b22"/>
<rect x="474" y="31" width="13" height="13" rx="3" ry="3" fill="#0e4429"/>
<rect x="474" y="47" width="13" height="13" rx="3" ry="3" fill="#161b22"/>
<rect x="474" y="63" width="13" height="13" rx="3" ry="3" fill="#161b22"/>
<rect x="474" y="79" width="13" height="13" rx="3" ry="3" fill="#161b22"/>
<rect x="474" y="95" width="13" height="13" rx="3" ry="3" fill="#0e4429"/>
<rect x="474" y="111" width="13" height="13" rx="3" ry="3" fill="#161b22"/>
<rect x="490" y="15" width="13" height="13" rx="3" ry="3" fill="#0e4429"/>
<rect x="490" y="31" width="13" height="13" rx="3" ry="3" fill="#0e4429"/>
<rect x="490" y="47" width="13" height="13" rx="3" ry="3" fill="#0e4429"/>
<rect x="490" y="63" width="13" height="13" rx="3" ry="3" fill="#161b22"/>
<rect x="490" y="79" width="13" height="13" rx="3" ry="3" fill="#0e4429"/>
<rect x="490" y="95" width="13" height="13" rx="3" ry="3" fill="#161b22"/>
<rect x="490" y="111" width="13" height="13" rx="3" ry="3" fill="#006d32"/>
<rect x="506" y="15" width="13" height="13" rx="3" ry="3" fill="#161b22"/>
<rect x="506" y="31" width="13" height="13" rx="3" ry="3" fill="#161b22"/>
<rect x="506" y="47" width="13" height="13" rx="3" ry="3" fill="#0e4429"/>
<rect x="506" y="63" width="13" height="13" rx="3" ry="3" fill="#161b22"/>
<rect x="506" y="79" width="13" height="13" rx="3" ry="3" fill="#161b22"/>
<rect x="506" y="95" width="13" height="13" rx="3" ry="3" fill="#006d32"/>
<rect x="506" y="111" width="13" height="13" rx="3" ry="3" fill="#0e4429"/>
<rect x="522" y="15" width="13" height="13" rx="3" ry="3" fill="#0e4429"/>
<rect x="522" y="31" width="13" height="13" rx="3" ry="3" fill="#161b22"/>
<rect x="522" y="47" width="13" height="13" rx="3" ry="3" fill="#161b22"/>
<rect x="522" y="63" width="13" height="13" rx="3" ry="3" fill="#006d32"/>
<rect x="522" y="79" width="13" height="13" rx="3" ry="3" fill="#161b22"/>
<rect x="522" y="95" width="13" height="13" rx="3" ry="3" fill="#161b22"/>
<rect x="522" y="111" width="13" height="13" rx="3" ry="3" fill="#161b22"/>
<rect x="538" y="15" width="13" height="13" rx="3" ry="3" fill="#161b22"/>
<rect x="538" y="31" width="13" height="13" rx="3" ry="3" fill="#0e4429"/>
<rect x="538" y="47" width="13" height="13" rx="3" ry="3" fill="#0e4429"/>
<rect x="538" y="63" width="13" height="13" rx="3" ry="3" fill="#0e4429"/>
<rect x="538" y="79" width="13" height="13" rx="3" ry="3" fill="#161b22"/>
<rect x="538" y="95" width="13" height="13" rx="3" ry="3" fill="#006d32"/>
<rect x="538" y="111" width="13" height="13" rx="3" ry="3" fill="#0e4429"/>
<rect x="554" y="15" width="13" height="13" rx="3" ry="3" fill="#0e4429"/>
<rect x="554" y="31" width="13" height="13" rx="3" ry="3" fill="#0e4429"/>
<rect x="554" y="47" width="13" height="13" rx="3" ry="3" fill="#161b22"/>
<rect x="554" y="63" width="13" height="13" rx="3" ry="3" fill="#006d32"/>
<rect x="554" y="79" width="13" height="13" rx="3" ry="3" fill="#0e4429"/>
<rect x="554" y="95" width="13" height="13" rx="3" ry="3" fill="#0e4429"/>
<rect x="554" y="111" width="13" height="13" rx="3" ry="3" fill="#161b22"/>
<rect x="570" y="15" width="13" height="13" rx="3" ry="3" fill="#161b22"/>
<rect x="570" y="31" width="13" height="13" rx="3" ry="3" fill="#161b22"/>
<rect x="570" y="47" width="13" height="13" rx="3" ry="3" fill="#161b22"/>
<rect x="570" y="63" width="13" height="13" rx="3" ry="3" fill="#161b22"/>
<rect x="570" y="79" width="13" height="13" rx="3" ry="3" fill="#161b22"/>
<rect x="570" y="95" width="13" height="13" rx="3" ry="3" fill="#161b22"/>
<rect x="570" y="111" width="13" height="13" rx="3" ry="3" fill="#161b22"/>
<rect x="586" y="15" width="13" height="13" rx="3" ry="3" fill="#006d32"/>
<rect x="586" y="31" width="13" height="13" rx="3" ry="3" fill="#161b22"/>
<rect x="586" y="47" width="13" height="13" rx="3" ry="3" fill="#161b22"/>
<rect x="586" y="63" width="13" height="13" rx="3" ry="3" fill="#0e4429"/>
<rect x="586" y="79" width="13" height="13" rx="3" ry="3" fill="#0e4429"/>
<rect x="586" y="95" width="13" height="13" rx="3" ry="3" fill="#161b22"/>
<rect x="586" y="111" width="13" height="13" rx="3" ry="3" fill="#006d32"/>
<rect x="602" y="15" width="13" height="13" rx="3" ry="3" fill="#161b22"/>
<rect x="602" y="31" width="13" height="13" rx="3" ry="3" fill="#0e4429"/>
<rect x="602" y="47" width="13" height="13" rx="3" ry="3" fill="#161b22"/>
<rect x="602" y="63" width="13" height="13" rx="3" ry="3" fill="#0e4429"/>
<rect x="602" y="79" width="13" height="13" rx="3" ry="3" fill="#161b22"/>
<rect x="602" y="95" width="13" height="13" rx="3" ry="3" fill="#161b22"/>
<rect x="602" y="111" width="13" height="13" rx="3" ry="3" fill="#006d32"/>
<rect x="618" y="15" width="13" height="13" rx="3" ry="3" fill="#0e4429"/>
<rect x="618" y="31" width="13" height="13" rx="3" ry="3" fill="#0e4429"/>
<rect x="618" y="47" width="13" height="13" rx="3" ry="3" fill="#161b22"/>
<rect x="618" y="63" width="13" height="13" rx="3" ry="3" fill="#006d32"/>
<rect x="618" y="79" width="13" height="13" rx="3" ry="3" fill="#0e4429"/>
<rect x="618" y="95" width="13" height="13" rx="3" ry="3" fill="#161b22"/>
<rect x="618" y="111" width="13" height="13" rx="3" ry="3" fill="#161b22"/>
<rect x="634" y="15" width="13" height="13" rx="3" ry="3" fill="#161b22"/>
<rect x="634" y="31" width="13" height="13" rx="3" ry="3" fill="#161b22"/>
<rect x="634" y="47" width="13" height="13" rx="3" ry="3" fill="#0e4429"/>
<rect x="634" y="63" width="13" height="13" rx="3" ry="3" fill="#161b22"/>
<rect x="634" y="79" width="13" height="13" rx="3" ry="3" fill="#0e4429"/>
<rect x="634" y="95" width="13" height="13" rx="3" ry="3" fill="#161b22"/>
<rect x="634" y="111" width="13" height="13" rx="3" ry="3" fill="#161b22"/>
<rect x="650" y="15" width="13" height="13" rx="3" ry="3" fill="#0e4429"/>
<rect x="650" y="31" width="13" height="13" rx="3" ry="3" fill="#161b22"/>
<rect x="650" y="47" width="13" height="13" rx="3" ry="3" fill="#161b22"/>
<rect x="650" y="63" width="13" height="13" rx="3" ry="3" fill="#161b22"/>
<rect x="650" y="79" width="13" height="13" rx="3" ry="3" fill="#0e4429"/>
<rect x="650" y="95" width="13" height="13" rx="3" ry="3" fill="#161b22"/>
<rect x="650" y="111" width="13" height="13" rx="3" ry="3" fill="#0e4429"/>
<rect x="666" y="15" width="13" height="13" rx="3" ry="3" fill="#161b22"/>
<rect x="666" y="31" width="13" height="13" rx="3" ry="3" fill="#0e4429"/>
<rect x="666" y="47" width="13" height="13" rx="3" ry="3" fill="#0e4429"/>
<rect x="666" y="63" width="13" height="13" rx="3" ry="3" fill="#006d32"/>
<rect x="666" y="79" width="13" height="13" rx="3" ry="3" fill="#0e4429"/>
<rect x="666" y="95" width="13" height="13" rx="3" ry="3" fill="#161b22"/>
<rect x="666" y="111" width="13" height="13" rx="3" ry="3" fill="#161b22"/>
<rect x="682" y="15" width="13" height="13" rx="3" ry="3" fill="#0e4429"/>
<rect x="682" y="31" width="13" height="13" rx="3" ry="3" fill="#0e4429"/>
<rect x="682" y="47" width="13" height="13" rx="3" ry="3" fill="#0e4429"/>
<rect x="682" y="63" width="13" height="13" rx="3" ry="3" fill="#161b22"/>
<rect x="682" y="79" width="13" height="13" rx="3" ry="3" fill="#161b22"/>
<rect x="682" y="95" width="13" height="13" rx="3" ry="3" fill="#161b22"/>
<rect x="682" y="111" width="13" height="13" rx="3" ry="3" fill="#161b22"/>
<rect x="698" y="15" width="13" height="13" rx="3" ry="3" fill="#161b22"/>
<rect x="698" y="31" width="13" height="13" rx="3" ry="3" fill="#006d32"/>
<rect x="698" y="47" width="13" height="13" rx="3" ry="3" fill="#161b22"/>
<rect x="698" y="63" width="13" height="13" rx="3" ry="3" fill="#0e4429"/>
<rect x="698" y="79" width="13" height="13" rx="3" ry="3" fill="#161b22"/>
<rect x="698" y="95" width="13" height="13" rx="3" ry="3" fill="#161b22"/>
<rect x="698" y="111" width="13" height="13" rx="3" ry="3" fill="#161b22"/>
<rect x="714" y="15" width="13" height="13" rx="3" ry="3" fill="#0e4429"/>
<rect x="714" y="31" width="13" height="13" rx="3" ry="3" fill="#0e4429"/>
<rect x="714" y="47" width="13" height="13" rx="3" ry="3" fill="#161b22"/>
<rect x="714" y="63" width="13" height="13" rx="3" ry="3" fill="#0e4429"/>
<rect x="714" y="79" width="13" height="13" rx="3" ry="3" fill="#006d32"/>
<rect x="714" y="95" width="13" height="13" rx="3" ry="3" fill="#0e4429"/>
<rect x="714" y="111" width="13" height="13" rx="3" ry="3" fill="#0e4429"/>
<rect x="730" y="15" width="13" height="13" rx="3" ry="3" fill="#161b22"/>
<rect x="730" y="31" width="13" height="13" rx="3" ry="3" fill="#006d32"/>
<rect x="730" y="47" width="13" height="13" rx="3" ry="3" fill="#006d32"/>
<rect x="730" y="63" width="13" height="13" rx="3" ry="3" fill="#161b22"/>
<rect x="730" y="79" width="13" height="13" rx="3" ry="3" fill="#0e4429"/>
<rect x="730" y="95" width="13" height="13" rx="3" ry="3" fill="#161b22"/>
<rect x="730" y="111" width="13" height="13" rx="3" ry="3" fill="#006d32"/>
<rect x="746" y="15" width="13" height="13" rx="3" ry="3" fill="#161b22"/>
<rect x="746" y="31" width="13" height="13" rx="3" ry="3" fill="#0e4429"/>
<rect x="746" y="47" width="13" height="13" rx="3" ry="3" fill="#0e4429"/>
<rect x="746" y="63" width="13" height="13" rx="3" ry="3" fill="#161b22"/>
<rect x="746" y="79" width="13" height="13" rx="3" ry="3" fill="#161b22"/>
<rect x="746" y="95" width="13" height="13" rx="3" ry="3" fill="#006d32"/>
<rect x="746" y="111" width="13" height="13" rx="3" ry="3" fill="#0e4429"/>
<rect x="762" y="15" width="13" height="13" rx="3" ry="3" fill="#0e4429"/>
<rect x="762" y="31" width="13" height="13" rx="3" ry="3" fill="#0e4429"/>
<rect x="762" y="47" width="13" height="13" rx="3" ry="3" fill="#0e4429"/>
<rect x="762" y="63" width="13" height="13" rx="3" ry="3" fill="#161b22"/>
<rect x="762" y="79" width="13" height="13" rx="3" ry="3" fill="#161b22"/>
<rect x="762" y="95" width="13" height="13" rx="3" ry="3" fill="#0e4429"/>
<rect x="762" y="111" width="13" height="13" rx="3" ry="3" fill="#161b22"/>
<rect x="778" y="15" width="13" height="13" rx="3" ry="3" fill="#0e4429"/>
<rect x="778" y="31" width="13" height="13" rx="3" ry="3" fill="#0e4429"/>
<rect x="778" y="47" width="13" height="13" rx="3" ry="3" fill="#161b22"/>
<rect x="778" y="63" width="13" height="13" rx="3" ry="3" fill="#161b22"/>
<rect x="778" y="79" width="13" height="13" rx="3" ry="3" fill="#161b22"/>
<rect x="778" y="95" width="13" height="13" rx="3" ry="3" fill="#0e4429"/>
<rect x="778" y="111" width="13" height="13" rx="3" ry="3" fill="#39d353"/>
<rect x="794" y="15" width="13" height="13" rx="3" ry="3" fill="#39d353"/>
<rect x="794" y="31" width="13" height="13" rx="3" ry="3" fill="#0e4429"/>
<rect x="794" y="47" width="13" height="13" rx="3" ry="3" fill="#39d353"/>
<rect x="794" y="63" width="13" height="13" rx="3" ry="3" fill="#39d353"/>
<rect x="794" y="79" width="13" height="13" rx="3" ry="3" fill="#26a641"/>
<rect x="794" y="95" width="13" height="13" rx="3" ry="3" fill="#0e4429"/>
<rect x="794" y="111" width="13" height="13" rx="3" ry="3" fill="#006d32"/>
<rect x="810" y="15" width="13" height="13" rx="3" ry="3" fill="#006d32"/>
<rect x="810" y="31" width="13" height="13" rx="3" ry="3" fill="#161b22"/>
<rect x="810" y="47" width="13" height="13" rx="3" ry="3" fill="#0e4429"/>
<rect x="810" y="63" width="13" height="13" rx="3" ry="3" fill="#0e4429"/>
<rect x="810" y="79" width="13" height="13" rx="3" ry="3" fill="#0e4429"/>
<rect x="810" y="95" width="13" height="13" rx="3" ry="3" fill="#39d353"/>
<rect x="810" y="111" width="13" height="13" rx="3" ry="3" fill="#39d353"/>
<rect x="826" y="15" width="13" height="13" rx="3" ry="3" fill="#26a641"/>
<rect x="826" y="31" width="13" height="13" rx="3" ry="3" fill="#39d353"/>
<rect x="826" y="47" width="13" height="13" rx="3" ry="3" fill="#39d353"/>
<rect x="826" y="63" width="13" height="13" rx="3" ry="3" fill="#26a641"/>
<rect x="826" y="79" width="13" height="13" rx="3" ry="3" fill="#39d353"/>
<rect x="826" y="95" width="13" height="13" rx="3" ry="3" fill="#39d353"/>
<rect x="826" y="111" width="13" height="13" rx="3" ry="3" fill="#39d353"/>
<rect x="842" y="15" width="13" height="13" rx="3" ry="3" fill="#39d353"/>
<rect x="842" y="31" width="13" height="13" rx="3" ry="3" fill="#26a641"/>
<rect x="842" y="47" width="13" height="13" rx="3" ry="3" fill="#39d353"/>
<rect x="842" y="63" width="13" height="13" rx="3" ry="3" fill="#39d353"/>
<rect x="842" y="79" width="13" height="13" rx="3" ry="3" fill="#26a641"/>
<rect x="842" y="95" width="13" height="13" rx="3" ry="3" fill="#006d32"/>
<rect x="842" y="111" width="13" height="13" rx="3" ry="3" fill="#0e4429"/>
<rect x="858" y="15" width="13" height="13" rx="3" ry="3" fill="#0e4429"/>
<rect x="858" y="31" width="13" height="13" rx="3" ry="3" fill="#006d32"/>
<rect x="858" y="47" width="13" height="13" rx="3" ry="3" fill="#39d353"/>
<rect x="858" y="63" width="13" height="13" rx="3" ry="3" fill="#161b22"/>
<text x="369.7" y="147" fill="#39d353" font-size="12" font-weight="bold">+4783</text>
<text x="410.7" y="147" fill="#c9d1d9" font-size="12">contributions</text>
</svg>