<svg xmlns="http://www.w3.org/2000/svg" width="876" height="159" style="background:#0d1117;font-family:sans-serif;" shape-rendering="geometricPrecision">
<text x="28" y="12" fill="#c9d1d9" font-size="15">Jul</text>
<text x="92" y="12" fill="#c9d1d9" font-size="15">Aug</text>
<text x="156" y="12" fill="#c9d1d9" font-size="15">Sep</text>
<text x="236" y="12" fill="#c9d1d9" font-size="15">Oct</text>
<text x="300" y="12" fill="#c9d1d9" font-size="15">Nov</text>
<text x="364" y="12" fill="#c9d1d9" font-size="15">Dec</text>
<text x="444" y="12" fill="#c9d1d9" font-size="15">Jan</text>
<text x="508" y="12" fill="#c9d1d9" font-size="15">Feb</text>
<text x="572" y="12" fill="#c9d1d9" font-size="15">Mar</text>
<text x="652" y="12" fill="#c9d1d9" font-size="15">Apr</text>
<text x="716" y="12" fill="#c9d1d9" font-size="15">May</text>
<text x="780" y="12" fill="#c9d1d9" font-size="15">Jun</text>
<text x="2" y="41" fill="#c9d1d9" font-size="15" dominant-baseline="middle">Mon</text>
<text x="2" y="73" fill="#c9d1d9" font-size="15" dominant-baseline="middle">Wed</text>
<text x="2" y="105" fill="#c9d1d9" font-size="15" dominant-baseline="middle">Fri</text>
<rect x="28" y="17" width="13" height="13" rx="3" ry="3" fill="#161b22"/>
<rect x="28" y="33" width="13" height="13" rx="3" ry="3" fill="#161b22"/>
<rect x="28" y="49" width="13" height="13" rx="3" ry="3" fill="#161b22"/>
<rect x="28" y="65" width="13" height="13" rx="3" ry="3" fill="#161b22"/>
<rect x="28" y="81" width="13" height="13" rx="3" ry="3" fill="#161b22"/>
<rect x="28" y="97" width="13" height="13" rx="3" ry="3" fill="#161b22"/>
<rect x="28" y="113" width="13" height="13" rx="3" ry="3" fill="#161b22"/>
<rect x="44" y="17" width="13" height="13" rx="3" ry="3" fill="#161b22"/>
<rect x="44" y="33" width="13" height="13" rx="3" ry="3" fill="#161b22"/>
<rect x="44" y="49" width="13" height="13" rx="3" ry="3" fill="#161b22"/>
<rect x="44" y="65" width="13" height="13" rx="3" ry="3" fill="#161b22"/>
<rect x="44" y="81" width="13" height="13" rx="3" ry="3" fill="#161b22"/>
<rect x="44" y="97" width="13" height="13" rx="3" ry="3" fill="#161b22"/>
<rect x="44" y="113" width="13" height="13" rx="3" ry="3" fill="#161b22"/>
<rect x="60" y="17" width="13" height="13" rx="3" ry="3" fill="#161b22"/>
<rect x="60" y="33" width="13" height="13" rx="3" ry="3" fill="#161b22"/>
<rect x="60" y="49" width="13" height="13" rx="3" ry="3" fill="#161b22"/>
<rect x="60" y="65" width="13" height="13" rx="3" ry="3" fill="#161b22"/>
<rect x="60" y="81" width="13" height="13" rx="3" ry="3" fill="#161b22"/>
<rect x="60" y="97" width="13" height="13" rx="3" ry="3" fill="#161b22"/>
<rect x="60" y="113" width="13" height="13" rx="3" ry="3" fill="#161b22"/>
<rect x="76" y="17" width="13" height="13" rx="3" ry="3" fill="#161b22"/>
<rect x="76" y="33" width="13" height="13" rx="3" ry="3" fill="#161b22"/>
<rect x="76" y="49" width="13" height="13" rx="3" ry="3" fill="#161b22"/>
<rect x="76" y="65" width="13" height="13" rx="3" ry="3" fill="#161b22"/>
<rect x="76" y="81" width="13" height="13" rx="3" ry="3" fill="#161b22"/>
<rect x="76" y="97" width="13" height="13" rx="3" ry="3" fill="#161b22"/>
<rect x="76" y="113" width="13" height="13" rx="3" ry="3" fill="#161b22"/>
<rect x="92" y="17" width="13" height="13" rx="3" ry="3" fill="#161b22"/>
<rect x="92" y="33" width="13" height="13" rx="3" ry="3" fill="#161b22"/>
<rect x="92" y="49" width="13" height="13" rx="3" ry="3" fill="#161b22"/>
<rect x="92" y="65" width="13" height="13" rx="3" ry="3" fill="#161b22"/>
<rect x="92" y="81" width="13" height="13" rx="3" ry="3" fill="#161b22"/>
<rect x="92" y="97" width="13" height="13" rx="3" ry="3" fill="#161b22"/>
<rect x="92" y="113" width="13" height="13" rx="3" ry="3" fill="#161b22"/>
<rect x="108" y="17" width="13" height="13" rx="3" ry="3" fill="#161b22"/>
<rect x="108" y="33" width="13" height="13" rx="3" ry="3" fill="#161b22"/>
<rect x="108" y="49" width="13" height="13" rx="3" ry="3" fill="#161b22"/>
<rect x="108" y="65" width="13" height="13" rx="3" ry="3" fill="#161b22"/>
<rect x="108" y="81" width="13" height="13" rx="3" ry="3" fill="#161b22"/>
<rect x="108" y="97" width="13" height="13" rx="3" ry="3" fill="#161b22"/>
<rect x="108" y="113" width="13" height="13" rx="3" ry="3" fill="#161b22"/>
<rect x="124" y="17" width="13" height="13" rx="3" ry="3" fill="#161b22"/>
<rect x="124" y="33" width="13" height="13" rx="3" ry="3" fill="#161b22"/>
<rect x="124" y="49" width="13" height="13" rx="3" ry="3" fill="#161b22"/>
<rect x="124" y="65" width="13" height="13" rx="3" ry="3" fill="#161b22"/>
<rect x="124" y="81" width="13" height="13" rx="3" ry="3" fill="#161b22"/>
<rect x="124" y="97" width="13" height="13" rx="3" ry="3" fill="#161b22"/>
<rect x="124" y="113" width="13" height="13" rx="3" ry="3" fill="#161b22"/>
<rect x="140" y="17" width="13" height="13" rx="3" ry="3" fill="#161b22"/>
<rect x="140" y="33" width="13" height="13" rx="3" ry="3" fill="#161b22"/>
<rect x="140" y="49" width="13" height="13" rx="3" ry="3" fill="#161b22"/>
<rect x="140" y="65" width="13" height="13" rx="3" ry="3" fill="#161b22"/>
<rect x="140" y="81" width="13" height="13" rx="3" ry="3" fill="#161b22"/>
<rect x="140" y="97" width="13" height="13" rx="3" ry="3" fill="#161b22"/>
<rect x="140" y="113" width="13" height="13" rx="3" ry="3" fill="#161b22"/>
<rect x="156" y="17" width="13" height="13" rx="3" ry="3" fill="#161b22"/>
<rect x="156" y="33" width="13" height="13" rx="3" ry="3" fill="#161b22"/>
<rect x="156" y="49" width="13" height="13" rx="3" ry="3" fill="#161b22"/>
<rect x="156" y="65" width="13" height="13" rx="3" ry="3" fill="#161b22"/>
<rect x="156" y="81" width="13" height="13" rx="3" ry="3" fill="#161b22"/>
<rect x="156" y="97" width="13" height="13" rx="3" ry="3" fill="#161b22"/>
<rect x="156" y="113" width="13" height="13" rx="3" ry="3" fill="#161b22"/>
<rect x="172" y="17" width="13" height="13" rx="3" ry="3" fill="#161b22"/>
<rect x="172" y="33" width="13" height="13" rx="3" ry="3" fill="#161b22"/>
<rect x="172" y="49" width="13" height="13" rx="3" ry="3" fill="#161b22"/>
<rect x="172" y="65" width="13" height="13" rx="3" ry="3" fill="#161b22"/>
<rect x="172" y="81" width="13" height="13" rx="3" ry="3" fill="#161b22"/>
<rect x="172" y="97" width="13" height="13" rx="3" ry="3" fill="#161b22"/>
<rect x="172" y="113" width="13" height="13" rx="3" ry="3" fill="#161b22"/>
<rect x="188" y="17" width="13" height="13" rx="3" ry="3" fill="#161b22"/>
<rect x="188" y="33" width="13" height="13" rx="3" ry="3" fill="#161b22"/>
<rect x="188" y="49" width="13" height="13" rx="3" ry="3" fill="#161b22"/>
<rect x="188" y="65" width="13" height="13" rx="3" ry="3" fill="#161b22"/>
<rect x="188" y="81" width="13" height="13" rx="3" ry="3" fill="#161b22"/>
<rect x="188" y="97" width="13" height="13" rx="3" ry="3" fill="#161b22"/>
<rect x="188" y="113" width="13" height="13" rx="3" ry="3" fill="#161b22"/>
<rect x="204" y="17" width="13" height="13" rx="3" ry="3" fill="#161b22"/>
<rect x="204" y="33" width="13" height="13" rx="3" ry="3" fill="#161b22"/>
<rect x="204" y="49" width="13" height="13" rx="3" ry="3" fill="#161b22"/>
<rect x="204" y="65" width="13" height="13" rx="3" ry="3" fill="#161b22"/>
<rect x="204" y="81" width="13" height="13" rx="3" ry="3" fill="#161b22"/>
<rect x="204" y="97" width="13" height="13" rx="3" ry="3" fill="#161b22"/>
<rect x="204" y="113" width="13" height="13" rx="3" ry="3" fill="#161b22"/>
<rect x="220" y="17" width="13" height="13" rx="3" ry="3" fill="#161b22"/>
<rect x="220" y="33" width="13" height="13" rx="3" ry="3" fill="#161b22"/>
<rect x="220" y="49" width="13" height="13" rx="3" ry="3" fill="#161b22"/>
<rect x="220" y="65" width="13" height="13" rx="3" ry="3" fill="#161b22"/>
<rect x="220" y="81" width="13" height="13" rx="3" ry="3" fill="#161b22"/>
<rect x="220" y="97" width="13" height="13" rx="3" ry="3" fill="#161b22"/>
<rect x="220" y="113" width="13" height="13" rx="3" ry="3" fill="#161b22"/>
<rect x="236" y="17" width="13" height="13" rx="3" ry="3" fill="#161b22"/>
<rect x="236" y="33" width="13" height="13" rx="3" ry="3" fill="#161b22"/>
<rect x="236" y="49" width="13" height="13" rx="3" ry="3" fill="#161b22"/>
<rect x="236" y="65" width="13" height="13" rx="3" ry="3" fill="#161b22"/>
<rect x="236" y="81" width="13" height="13" rx="3" ry="3" fill="#161b22"/>
<rect x="236" y="97" width="13" height="13" rx="3" ry="3" fill="#161b22"/>
<rect x="236" y="113" width="13" height="13" rx="3" ry="3" fill="#161b22"/>
<rect x="252" y="17" width="13" height="13" rx="3" ry="3" fill="#161b22"/>
<rect x="252" y="33" width="13" height="13" rx="3" ry="3" fill="#161b22"/>
<rect x="252" y="49" width="13" height="13" rx="3" ry="3" fill="#161b22"/>
<rect x="252" y="65" width="13" height="13" rx="3" ry="3" fill="#161b22"/>
<rect x="252" y="81" width="13" height="13" rx="3" ry="3" fill="#161b22"/>
<rect x="252" y="97" width="13" height="13" rx="3" ry="3" fill="#161b22"/>
<rect x="252" y="113" width="13" height="13" rx="3" ry="3" fill="#161b22"/>
<rect x="268" y="17" width="13" height="13" rx="3" ry="3" fill="#161b22"/>
<rect x="268" y="33" width="13" height="13" rx="3" ry="3" fill="#161b22"/>
<rect x="268" y="49" width="13" height="13" rx="3" ry="3" fill="#161b22"/>
<rect x="268" y="65" width="13" height="13" rx="3" ry="3" fill="#161b22"/>
<rect x="268" y="81" width="13" height="13" rx="3" ry="3" fill="#161b22"/>
<rect x="268" y="97" width="13" height="13" rx="3" ry="3" fill="#161b22"/>
<rect x="268" y="113" width="13" height="13" rx="3" ry="3" fill="#161b22"/>
<rect x="284" y="17" width="13" height="13" rx="3" ry="3" fill="#161b22"/>
<rect x="284" y="33" width="13" height="13" rx="3" ry="3" fill="#161b22"/>
<rect x="284" y="49" width="13" height="13" rx="3" ry="3" fill="#161b22"/>
<rect x="284" y="65" width="13" height="13" rx="3" ry="3" fill="#161b22"/>
<rect x="284" y="81" width="13" height="13" rx="3" ry="3" fill="#161b22"/>
<rect x="284" y="97" width="13" height="13" rx="3" ry="3" fill="#161b22"/>
<rect x="284" y="113" width="13" height="13" rx="3" ry="3" fill="#161b22"/>
<rect x="300" y="17" width="13" height="13" rx="3" ry="3" fill="#161b22"/>
<rect x="300" y="33" width="13" height="13" rx="3" ry="3" fill="#161b22"/>
<rect x="300" y="49" width="13" height="13" rx="3" ry="3" fill="#161b22"/>
<rect x="300" y="65" width="13" height="13" rx="3" ry="3" fill="#161b22"/>
<rect x="300" y="81" width="13" height="13" rx="3" ry="3" fill="#161b22"/>
<rect x="300" y="97" width="13" height="13" rx="3" ry="3" fill="#161b22"/>
<rect x="300" y="113" width="13" height="13" rx="3" ry="3" fill="#161b22"/>
<rect x="316" y="17" width="13" height="13" rx="3" ry="3" fill="#161b22"/>
<rect x="316" y="33" width="13" height="13" rx="3" ry="3" fill="#161b22"/>
<rect x="316" y="49" width="13" height="13" rx="3" ry="3" fill="#161b22"/>
<rect x="316" y="65" width="13" height="13" rx="3" ry="3" fill="#161b22"/>
<rect x="316" y="81" width="13" height="13" rx="3" ry="3" fill="#161b22"/>
<rect x="316" y="97" width="13" height="13" rx="3" ry="3" fill="#161b22"/>
<rect x="316" y="113" width="13" height="13" rx="3" ry="3" fill="#161b22"/>
<rect x="332" y="17" width="13" height="13" rx="3" ry="3" fill="#161b22"/>
<rect x="332" y="33" width="13" height="13" rx="3" ry="3" fill="#161b22"/>
<rect x="332" y="49" width="13" height="13" rx="3" ry="3" fill="#161b22"/>
<rect x="332" y="65" width="13" height="13" rx="3" ry="3" fill="#161b22"/>
<rect x="332" y="81" width="13" height="13" rx="3" ry="3" fill="#161b22"/>
<rect x="332" y="97" width="13" height="13" rx="3" ry="3" fill="#161b22"/>
<rect x="332" y="113" width="13" height="13" rx="3" ry="3" fill="#161b22"/>
<rect x="348" y="17" width="13" height="13" rx="3" ry="3" fill="#161b22"/>
<rect x="348" y="33" width="13" height="13" rx="3" ry="3" fill="#161b22"/>
<rect x="348" y="49" width="13" height="13" rx="3" ry="3" fill="#161b22"/>
<rect x="348" y="65" width="13" height="13" rx="3" ry="3" fill="#161b22"/>
<rect x="348" y="81" width="13" height="13" rx="3" ry="3" fill="#161b22"/>
<rect x="348" y="97" width="13" height="13" rx="3" ry="3" fill="#161b22"/>
<rect x="348" y="113" width="13" height="13" rx="3" ry="3" fill="#161b22"/>
<rect x="364" y="17" width="13" height="13" rx="3" ry="3" fill="#161b22"/>
<rect x="364" y="33" width="13" height="13" rx="3" ry="3" fill="#161b22"/>
<rect x="364" y="49" width="13" height="13" rx="3" ry="3" fill="#161b22"/>
<rect x="364" y="65" width="13" height="13" rx="3" ry="3" fill="#161b22"/>
<rect x="364" y="81" width="13" height="13" rx="3" ry="3" fill="#161b22"/>
<rect x="364" y="97" width="13" height="13" rx="3" ry="3" fill="#161b22"/>
<rect x="364" y="113" width="13" height="13" rx="3" ry="3" fill="#161b22"/>
<rect x="380" y="17" width="13" height="13" rx="3" ry="3" fill="#161b22"/>
<rect x="380" y="33" width="13" height="13" rx="3" ry="3" fill="#161b22"/>
<rect x="380" y="49" width="13" height="13" rx="3" ry="3" fill="#161b22"/>
<rect x="380" y="65" width="13" height="13" rx="3" ry="3" fill="#161b22"/>
<rect x="380" y="81" width="13" height="13" rx="3" ry="3" fill="#161b22"/>
<rect x="380" y="97" width="13" height="13" rx="3" ry="3" fill="#161b22"/>
<rect x="380" y="113" width="13" height="13" rx="3" ry="3" fill="#161b22"/>
<rect x="396" y="17" width="13" height="13" rx="3" ry="3" fill="#161b22"/>
<rect x="396" y="33" width="13" height="13" rx="3" ry="3" fill="#161b22"/>
<rect x="396" y="49" width="13" height="13" rx="3" ry="3" fill="#161b22"/>
<rect x="396" y="65" width="13" height="13" rx="3" ry="3" fill="#161b22"/>
<rect x="396" y="81" width="13" height="13" rx="3" ry="3" fill="#161b22"/>
<rect x="396" y="97" width="13" height="13" rx="3" ry="3" fill="#161b22"/>
<rect x="396" y="113" width="13" height="13" rx="3" ry="3" fill="#161b22"/>
<rect x="412" y="17" width="13" height="13" rx="3" ry="3" fill="#161b22"/>
<rect x="412" y="33" width="13" height="13" rx="3" ry="3" fill="#161b22"/>
<rect x="412" y="49" width="13" height="13" rx="3" ry="3" fill="#161b22"/>
<rect x="412" y="65" width="13" height="13" rx="3" ry="3" fill="#161b22"/>
<rect x="412" y="81" width="13" height="13" rx="3" ry="3" fill="#161b22"/>
<rect x="412" y="97" width="13" height="13" rx="3" ry="3" fill="#161b22"/>
<rect x="412" y="113" width="13" height="13" rx="3" ry="3" fill="#161b22"/>
<rect x="428" y="17" width="13" height="13" rx="3" ry="3" fill="#161b22"/>
<rect x="428" y="33" width="13" height="13" rx="3" ry="3" fill="#161b22"/>
<rect x="428" y="49" width="13" height="13" rx="3" ry="3" fill="#161b22"/>
<rect x="428" y="65" width="13" height="13" rx="3" ry="3" fill="#161b22"/>
<rect x="428" y="81" width="13" height="13" rx="3" ry="3" fill="#161b22"/>
<rect x="428" y="97" width="13" height="13" rx="3" ry="3" fill="#161b22"/>
<rect x="428" y="113" width="13" height="13" rx="3" ry="3" fill="#161b22"/>
<rect x="444" y="17" width="13" height="13" rx="3" ry="3" fill="#161b22"/>
<rect x="444" y="33" width="13" height="13" rx="3" ry="3" fill="#161b22"/>
<rect x="444" y="49" width="13" height="13" rx="3" ry="3" fill="#161b22"/>
<rect x="444" y="65" width="13" height="13" rx="3" ry="3" fill="#161b22"/>
<rect x="444" y="81" width="13" height="13" rx="3" ry="3" fill="#161b22"/>
<rect x="444" y="97" width="13" height="13" rx="3" ry="3" fill="#161b22"/>
<rect x="444" y="113" width="13" height="13" rx="3" ry="3" fill="#161b22"/>
<rect x="460" y="17" width="13" height="13" rx="3" ry="3" fill="#161b22"/>
<rect x="460" y="33" width="13" height="13" rx="3" ry="3" fill="#0e4429"/>
<rect x="460" y="49" width="13" height="13" rx="3" ry="3" fill="#161b22"/>
<rect x="460" y="65" width="13" height="13" rx="3" ry="3" fill="#161b22"/>
<rect x="460" y="81" width="13" height="13" rx="3" ry="3" fill="#161b22"/>
<rect x="460" y="97" width="13" height="13" rx="3" ry="3" fill="#006d32"/>
<rect x="460" y="113" width="13" height="13" rx="3" ry="3" fill="#0e4429"/>
<rect x="476" y="17" width="13" height="13" rx="3" ry="3" fill="#161b22"/>
<rect x="476" y="33" width="13" height="13" rx="3" ry="3" fill="#0e4429"/>
<rect x="476" y="49" width="13" height="13" rx="3" ry="3" fill="#161b22"/>
<rect x="476" y="65" width="13" height="13" rx="3" ry="3" fill="#161b22"/>
<rect x="476" y="81" width="13" height="13" rx="3" ry="3" fill="#161b22"/>
<rect x="476" y="97" width="13" height="13" rx="3" ry="3" fill="#0e4429"/>
<rect x="476" y="113" width="13" height="13" rx="3" ry="3" fill="#161b22"/>
<rect x="492" y="17" width="13" height="13" rx="3" ry="3" fill="#0e4429"/>
<rect x="492" y="33" width="13" height="13" rx="3" ry="3" fill="#0e4429"/>
<rect x="492" y="49" width="13" height="13" rx="3" ry="3" fill="#0e4429"/>
<rect x="492" y="65" width="13" height="13" rx="3" ry="3" fill="#161b22"/>
<rect x="492" y="81" width="13" height="13" rx="3" ry="3" fill="#0e4429"/>
<rect x="492" y="97" width="13" height="13" rx="3" ry="3" fill="#161b22"/>
<rect x="492" y="113" width="13" height="13" rx="3" ry="3" fill="#006d32"/>
<rect x="508" y="17" width="13" height="13" rx="3" ry="3" fill="#161b22"/>
<rect x="508" y="33" width="13" height="13" rx="3" ry="3" fill="#161b22"/>
<rect x="508" y="49" width="13" height="13" rx="3" ry="3" fill="#0e4429"/>
<rect x="508" y="65" width="13" height="13" rx="3" ry="3" fill="#161b22"/>
<rect x="508" y="81" width="13" height="13" rx="3" ry="3" fill="#161b22"/>
<rect x="508" y="97" width="13" height="13" rx="3" ry="3" fill="#006d32"/>
<rect x="508" y="113" width="13" height="13" rx="3" ry="3" fill="#0e4429"/>
<rect x="524" y="17" width="13" height="13" rx="3" ry="3" fill="#0e4429"/>
<rect x="524" y="33" width="13" height="13" rx="3" ry="3" fill="#161b22"/>
<rect x="524" y="49" width="13" height="13" rx="3" ry="3" fill="#161b22"/>
<rect x="524" y="65" width="13" height="13" rx="3" ry="3" fill="#006d32"/>
<rect x="524" y="81" width="13" height="13" rx="3" ry="3" fill="#161b22"/>
<rect x="524" y="97" width="13" height="13" rx="3" ry="3" fill="#161b22"/>
<rect x="524" y="113" width="13" height="13" rx="3" ry="3" fill="#161b22"/>
<rect x="540" y="17" width="13" height="13" rx="3" ry="3" fill="#161b22"/>
<rect x="540" y="33" width="13" height="13" rx="3" ry="3" fill="#0e4429"/>
<rect x="540" y="49" width="13" height="13" rx="3" ry="3" fill="#0e4429"/>
<rect x="540" y="65" width="13" height="13" rx="3" ry="3" fill="#0e4429"/>
<rect x="540" y="81" width="13" height="13" rx="3" ry="3" fill="#161b22"/>
<rect x="540" y="97" width="13" height="13" rx="3" ry="3" fill="#006d32"/>
<rect x="540" y="113" width="13" height="13" rx="3" ry="3" fill="#0e4429"/>
<rect x="556" y="17" width="13" height="13" rx="3" ry="3" fill="#0e4429"/>
<rect x="556" y="33" width="13" height="13" rx="3" ry="3" fill="#0e4429"/>
<rect x="556" y="49" width="13" height="13" rx="3" ry="3" fill="#161b22"/>
<rect x="556" y="65" width="13" height="13" rx="3" ry="3" fill="#006d32"/>
<rect x="556" y="81" width="13" height="13" rx="3" ry="3" fill="#0e4429"/>
<rect x="556" y="97" width="13" height="13" rx="3" ry="3" fill="#0e4429"/>
<rect x="556" y="113" width="13" height="13" rx="3" ry="3" fill="#161b22"/>
<rect x="572" y="17" width="13" height="13" rx="3" ry="3" fill="#161b22"/>
<rect x="572" y="33" width="13" height="13" rx="3" ry="3" fill="#161b22"/>
<rect x="572" y="49" width="13" height="13" rx="3" ry="3" fill="#161b22"/>
<rect x="572" y="65" width="13" height="13" rx="3" ry="3" fill="#161b22"/>
<rect x="572" y="81" width="13" height="13" rx="3" ry="3" fill="#161b22"/>
<rect x="572" y="97" width="13" height="13" rx="3" ry="3" fill="#161b22"/>
<rect x="572" y="113" width="13" height="13" rx="3" ry="3" fill="#161b22"/>
<rect x="588" y="17" width="13" height="13" rx="3" ry="3" fill="#006d32"/>
<rect x="588" y="33" width="13" height="13" rx="3" ry="3" fill="#161b22"/>
<rect x="588" y="49" width="13" height="13" rx="3" ry="3" fill="#161b22"/>
<rect x="588" y="65" width="13" height="13" rx="3" ry="3" fill="#0e4429"/>
<rect x="588" y="81" width="13" height="13" rx="3" ry="3" fill="#0e4429"/>
<rect x="588" y="97" width="13" height="13" rx="3" ry="3" fill="#161b22"/>
<rect x="588" y="113" width="13" height="13" rx="3" ry="3" fill="#006d32"/>
<rect x="604" y="17" width="13" height="13" rx="3" ry="3" fill="#161b22"/>
<rect x="604" y="33" width="13" height="13" rx="3" ry="3" fill="#0e4429"/>
<rect x="604" y="49" width="13" height="13" rx="3" ry="3" fill="#161b22"/>
<rect x="604" y="65" width="13" height="13" rx="3" ry="3" fill="#0e4429"/>
<rect x="604" y="81" width="13" height="13" rx="3" ry="3" fill="#161b22"/>
<rect x="604" y="97" width="13" height="13" rx="3" ry="3" fill="#161b22"/>
<rect x="604" y="113" width="13" height="13" rx="3" ry="3" fill="#006d32"/>
<rect x="620" y="17" width="13" height="13" rx="3" ry="3" fill="#0e4429"/>
<rect x="620" y="33" width="13" height="13" rx="3" ry="3" fill="#0e4429"/>
<rect x="620" y="49" width="13" height="13" rx="3" ry="3" fill="#161b22"/>
<rect x="620" y="65" width="13" height="13" rx="3" ry="3" fill="#006d32"/>
<rect x="620" y="81" width="13" height="13" rx="3" ry="3" fill="#0e4429"/>
<rect x="620" y="97" width="13" height="13" rx="3" ry="3" fill="#161b22"/>
<rect x="620" y="113" width="13" height="13" rx="3" ry="3" fill="#161b22"/>
<rect x="636" y="17" width="13" height="13" rx="3" ry="3" fill="#161b22"/>
<rect x="636" y="33" width="13" height="13" rx="3" ry="3" fill="#161b22"/>
<rect x="636" y="49" width="13" height="13" rx="3" ry="3" fill="#0e4429"/>
<rect x="636" y="65" width="13" height="13" rx="3" ry="3" fill="#161b22"/>
<rect x="636" y="81" width="13" height="13" rx="3" ry="3" fill="#0e4429"/>
<rect x="636" y="97" width="13" height="13" rx="3" ry="3" fill="#161b22"/>
<rect x="636" y="113" width="13" height="13" rx="3" ry="3" fill="#161b22"/>
<rect x="652" y="17" width="13" height="13" rx="3" ry="3" fill="#0e4429"/>
<rect x="652" y="33" width="13" height="13" rx="3" ry="3" fill="#161b22"/>
<rect x="652" y="49" width="13" height="13" rx="3" ry="3" fill="#161b22"/>
<rect x="652" y="65" width="13" height="13" rx="3" ry="3" fill="#161b22"/>
<rect x="652" y="81" width="13" height="13" rx="3" ry="3" fill="#0e4429"/>
<rect x="652" y="97" width="13" height="13" rx="3" ry="3" fill="#161b22"/>
<rect x="652" y="113" width="13" height="13" rx="3" ry="3" fill="#0e4429"/>
<rect x="668" y="17" width="13" height="13" rx="3" ry="3" fill="#161b22"/>
<rect x="668" y="33" width="13" height="13" rx="3" ry="3" fill="#0e4429"/>
<rect x="668" y="49" width="13" height="13" rx="3" ry="3" fill="#0e4429"/>
<rect x="668" y="65" width="13" height="13" rx="3" ry="3" fill="#006d32"/>
<rect x="668" y="81" width="13" height="13" rx="3" ry="3" fill="#0e4429"/>
<rect x="668" y="97" width="13" height="13" rx="3" ry="3" fill="#161b22"/>
<rect x="668" y="113" width="13" height="13" rx="3" ry="3" fill="#161b22"/>
<rect x="684" y="17" width="13" height="13" rx="3" ry="3" fill="#0e4429"/>
<rect x="684" y="33" width="13" height="13" rx="3" ry="3" fill="#0e4429"/>
<rect x="684" y="49" width="13" height="13" rx="3" ry="3" fill="#0e4429"/>
<rect x="684" y="65" width="13" height="13" rx="3" ry="3" fill="#161b22"/>
<rect x="684" y="81" width="13" height="13" rx="3" ry="3" fill="#161b22"/>
<rect x="684" y="97" width="13" height="13" rx="3" ry="3" fill="#161b22"/>
<rect x="684" y="113" width="13" height="13" rx="3" ry="3" fill="#161b22"/>
<rect x="700" y="17" width="13" height="13" rx="3" ry="3" fill="#161b22"/>
<rect x="700" y="33" width="13" height="13" rx="3" ry="3" fill="#006d32"/>
<rect x="700" y="49" width="13" height="13" rx="3" ry="3" fill="#161b22"/>
<rect x="700" y="65" width="13" height="13" rx="3" ry="3" fill="#0e4429"/>
<rect x="700" y="81" width="13" height="13" rx="3" ry="3" fill="#161b22"/>
<rect x="700" y="97" width="13" height="13" rx="3" ry="3" fill="#161b22"/>
<rect x="700" y="113" width="13" height="13" rx="3" ry="3" fill="#161b22"/>
<rect x="716" y="17" width="13" height="13" rx="3" ry="3" fill="#0e4429"/>
<rect x="716" y="33" width="13" height="13" rx="3" ry="3" fill="#0e4429"/>
<rect x="716" y="49" width="13" height="13" rx="3" ry="3" fill="#161b22"/>
<rect x="716" y="65" width="13" height="13" rx="3" ry="3" fill="#0e4429"/>
<rect x="716" y="81" width="13" height="13" rx="3" ry="3" fill="#006d32"/>
<rect x="716" y="97" width="13" height="13" rx="3" ry="3" fill="#0e4429"/>
<rect x="716" y="113" width="13" height="13" rx="3" ry="3" fill="#0e4429"/>
<rect x="732" y="17" width="13" height="13" rx="3" ry="3" fill="#161b22"/>
<rect x="732" y="33" width="13" height="13" rx="3" ry="3" fill="#006d32"/>
<rect x="732" y="49" width="13" height="13" rx="3" ry="3" fill="#006d32"/>
<rect x="732" y="65" width="13" height="13" rx="3" ry="3" fill="#161b22"/>
<rect x="732" y="81" width="13" height="13" rx="3" ry="3" fill="#0e4429"/>
<rect x="732" y="97" width="13" height="13" rx="3" ry="3" fill="#161b22"/>
<rect x="732" y="113" width="13" height="13" rx="3" ry="3" fill="#006d32"/>
<rect x="748" y="17" width="13" height="13" rx="3" ry="3" fill="#161b22"/>
<rect x="748" y="33" width="13" height="13" rx="3" ry="3" fill="#0e4429"/>
<rect x="748" y="49" width="13" height="13" rx="3" ry="3" fill="#0e4429"/>
<rect x="748" y="65" width="13" height="13" rx="3" ry="3" fill="#161b22"/>
<rect x="748" y="81" width="13" height="13" rx="3" ry="3" fill="#161b22"/>
<rect x="748" y="97" width="13" height="13" rx="3" ry="3" fill="#006d32"/>
<rect x="748" y="113" width="13" height="13" rx="3" ry="3" fill="#0e4429"/>
<rect x="764" y="17" width="13" height="13" rx="3" ry="3" fill="#0e4429"/>
<rect x="764" y="33" width="13" height="13" rx="3" ry="3" fill="#0e4429"/>
<rect x="764" y="49" width="13" height="13" rx="3" ry="3" fill="#0e4429"/>
<rect x="764" y="65" width="13" height="13" rx="3" ry="3" fill="#161b22"/>
<rect x="764" y="81" width="13" height="13" rx="3" ry="3" fill="#161b22"/>
<rect x="764" y="97" width="13" height="13" rx="3" ry="3" fill="#0e4429"/>
<rect x="764" y="113" width="13" height="13" rx="3" ry="3" fill="#161b22"/>
<rect x="780" y="17" width="13" height="13" rx="3" ry="3" fill="#0e4429"/>
<rect x="780" y="33" width="13" height="13" rx="3" ry="3" fill="#0e4429"/>
<rect x="780" y="49" width="13" height="13" rx="3" ry="3" fill="#161b22"/>
<rect x="780" y="65" width="13" height="13" rx="3" ry="3" fill="#161b22"/>
<rect x="780" y="81" width="13" height="13" rx="3" ry="3" fill="#161b22"/>
<rect x="780" y="97" width="13" height="13" rx="3" ry="3" fill="#0e4429"/>
<rect x="780" y="113" width="13" height="13" rx="3" ry="3" fill="#39d353"/>
<rect x="796" y="17" width="13" height="13" rx="3" ry="3" fill="#39d353"/>
<rect x="796" y="33" width="13" height="13" rx="3" ry="3" fill="#0e4429"/>
<rect x="796" y="49" width="13" height="13" rx="3" ry="3" fill="#39d353"/>
<rect x="796" y="65" width="13" height="13" rx="3" ry="3" fill="#39d353"/>
<rect x="796" y="81" width="13" height="13" rx="3" ry="3" fill="#26a641"/>
<rect x="796" y="97" width="13" height="13" rx="3" ry="3" fill="#0e4429"/>
<rect x="796" y="113" width="13" height="13" rx="3" ry="3" fill="#006d32"/>
<rect x="812" y="17" width="13" height="13" rx="3" ry="3" fill="#006d32"/>
<rect x="812" y="33" width="13" height="13" rx="3" ry="3" fill="#161b22"/>
<rect x="812" y="49" width="13" height="13" rx="3" ry="3" fill="#0e4429"/>
<rect x="812" y="65" width="13" height="13" rx="3" ry="3" fill="#0e4429"/>
<rect x="812" y="81" width="13" height="13" rx="3" ry="3" fill="#0e4429"/>
<rect x="812" y="97" width="13" height="13" rx="3" ry="3" fill="#39d353"/>
<rect x="812" y="113" width="13" height="13" rx="3" ry="3" fill="#39d353"/>
<rect x="828" y="17" width="13" height="13" rx="3" ry="3" fill="#26a641"/>
<rect x="828" y="33" width="13" height="13" rx="3" ry="3" fill="#39d353"/>
<rect x="828" y="49" width="13" height="13" rx="3" ry="3" fill="#39d353"/>
<rect x="828" y="65" width="13" height="13" rx="3" ry="3" fill="#26a641"/>
<rect x="828" y="81" width="13" height="13" rx="3" ry="3" fill="#39d353"/>
<rect x="828" y="97" width="13" height="13" rx="3" ry="3" fill="#39d353"/>
<rect x="828" y="113" width="13" height="13" rx="3" ry="3" fill="#39d353"/>
<rect x="844" y="17" width="13" height="13" rx="3" ry="3" fill="#39d353"/>
<rect x="844" y="33" width="13" height="13" rx="3" ry="3" fill="#26a641"/>
<rect x="844" y="49" width="13" height="13" rx="3" ry="3" fill="#39d353"/>
<rect x="844" y="65" width="13" height="13" rx="3" ry="3" fill="#39d353"/>
<rect x="844" y="81" width="13" height="13" rx="3" ry="3" fill="#26a641"/>
<rect x="844" y="97" width="13" height="13" rx="3" ry="3" fill="#006d32"/>
<rect x="844" y="113" width="13" height="13" rx="3" ry="3" fill="#0e4429"/>
<rect x="860" y="17" width="13" height="13" rx="3" ry="3" fill="#0e4429"/>
<rect x="860" y="33" width="13" height="13" rx="3" ry="3" fill="#006d32"/>
<rect x="860" y="49" width="13" height="13" rx="3" ry="3" fill="#39d353"/>
<rect x="860" y="65" width="13" height="13" rx="3" ry="3" fill="#161b22"/>
<text x="370.7" y="149" fill="#39d353" font-size="12" font-weight="bold">+4791</text>
<text x="411.7" y="149" fill="#c9d1d9" font-size="12">contributions</text>
</svg>