<svg xmlns="http://www.w3.org/2000/svg" width="874" height="159" style="background:#0d1117;font-family:sans-serif;" shape-rendering="geometricPrecision">
<text x="39" y="12" fill="#c9d1d9" font-size="15">Jul</text>
<text x="91" y="12" fill="#c9d1d9" font-size="15">Aug</text>
<text x="143" y="12" fill="#c9d1d9" font-size="15">Sep</text>
<text x="208" y="12" fill="#c9d1d9" font-size="15">Oct</text>
<text x="260" y="12" fill="#c9d1d9" font-size="15">Nov</text>
<text x="312" y="12" fill="#c9d1d9" font-size="15">Dec</text>
<text x="377" y="12" fill="#c9d1d9" font-size="15">Jan</text>
<text x="429" y="12" fill="#c9d1d9" font-size="15">Feb</text>
<text x="481" y="12" fill="#c9d1d9" font-size="15">Mar</text>
<text x="546" y="12" fill="#c9d1d9" font-size="15">Apr</text>
<text x="598" y="12" fill="#c9d1d9" font-size="15">May</text>
<text x="650" y="12" fill="#c9d1d9" font-size="15">Jun</text>
<text x="2" y="38.666666666666664" fill="#c9d1d9" font-size="15">Mon</text>
<text x="2" y="64.66666666666667" fill="#c9d1d9" font-size="15">Wed</text>
<text x="2" y="90.66666666666667" fill="#c9d1d9" font-size="15">Fri</text>
<rect x="26" y="17" width="13" height="13" rx="3" ry="3" fill="#161b22"/>
<rect x="26" y="33" width="13" height="13" rx="3" ry="3" fill="#161b22"/>
<rect x="26" y="49" width="13" height="13" rx="3" ry="3" fill="#161b22"/>
<rect x="26" y="65" width="13" height="13" rx="3" ry="3" fill="#161b22"/>
<rect x="26" y="81" width="13" height="13" rx="3" ry="3" fill="#161b22"/>
<rect x="26" y="97" width="13" height="13" rx="3" ry="3" fill="#161b22"/>
<rect x="26" y="113" width="13" height="13" rx="3" ry="3" fill="#161b22"/>
<rect x="42" y="17" width="13" height="13" rx="3" ry="3" fill="#161b22"/>
<rect x="42" y="33" width="13" height="13" rx="3" ry="3" fill="#161b22"/>
<rect x="42" y="49" width="13" height="13" rx="3" ry="3" fill="#161b22"/>
<rect x="42" y="65" width="13" height="13" rx="3" ry="3" fill="#161b22"/>
<rect x="42" y="81" width="13" height="13" rx="3" ry="3" fill="#161b22"/>
<rect x="42" y="97" width="13" height="13" rx="3" ry="3" fill="#161b22"/>
<rect x="42" y="113" width="13" height="13" rx="3" ry="3" fill="#161b22"/>
<rect x="58" y="17" width="13" height="13" rx="3" ry="3" fill="#161b22"/>
<rect x="58" y="33" width="13" height="13" rx="3" ry="3" fill="#161b22"/>
<rect x="58" y="49" width="13" height="13" rx="3" ry="3" fill="#161b22"/>
<rect x="58" y="65" width="13" height="13" rx="3" ry="3" fill="#161b22"/>
<rect x="58" y="81" width="13" height="13" rx="3" ry="3" fill="#161b22"/>
<rect x="58" y="97" width="13" height="13" rx="3" ry="3" fill="#161b22"/>
<rect x="58" y="113" width="13" height="13" rx="3" ry="3" fill="#161b22"/>
<rect x="74" y="17" width="13" height="13" rx="3" ry="3" fill="#161b22"/>
<rect x="74" y="33" width="13" height="13" rx="3" ry="3" fill="#161b22"/>
<rect x="74" y="49" width="13" height="13" rx="3" ry="3" fill="#161b22"/>
<rect x="74" y="65" width="13" height="13" rx="3" ry="3" fill="#161b22"/>
<rect x="74" y="81" width="13" height="13" rx="3" ry="3" fill="#161b22"/>
<rect x="74" y="97" width="13" height="13" rx="3" ry="3" fill="#161b22"/>
<rect x="74" y="113" width="13" height="13" rx="3" ry="3" fill="#161b22"/>
<rect x="90" y="17" width="13" height="13" rx="3" ry="3" fill="#161b22"/>
<rect x="90" y="33" width="13" height="13" rx="3" ry="3" fill="#161b22"/>
<rect x="90" y="49" width="13" height="13" rx="3" ry="3" fill="#161b22"/>
<rect x="90" y="65" width="13" height="13" rx="3" ry="3" fill="#161b22"/>
<rect x="90" y="81" width="13" height="13" rx="3" ry="3" fill="#161b22"/>
<rect x="90" y="97" width="13" height="13" rx="3" ry="3" fill="#161b22"/>
<rect x="90" y="113" width="13" height="13" rx="3" ry="3" fill="#161b22"/>
<rect x="106" y="17" width="13" height="13" rx="3" ry="3" fill="#161b22"/>
<rect x="106" y="33" width="13" height="13" rx="3" ry="3" fill="#161b22"/>
<rect x="106" y="49" width="13" height="13" rx="3" ry="3" fill="#161b22"/>
<rect x="106" y="65" width="13" height="13" rx="3" ry="3" fill="#161b22"/>
<rect x="106" y="81" width="13" height="13" rx="3" ry="3" fill="#161b22"/>
<rect x="106" y="97" width="13" height="13" rx="3" ry="3" fill="#161b22"/>
<rect x="106" y="113" width="13" height="13" rx="3" ry="3" fill="#161b22"/>
<rect x="122" y="17" width="13" height="13" rx="3" ry="3" fill="#161b22"/>
<rect x="122" y="33" width="13" height="13" rx="3" ry="3" fill="#161b22"/>
<rect x="122" y="49" width="13" height="13" rx="3" ry="3" fill="#161b22"/>
<rect x="122" y="65" width="13" height="13" rx="3" ry="3" fill="#161b22"/>
<rect x="122" y="81" width="13" height="13" rx="3" ry="3" fill="#161b22"/>
<rect x="122" y="97" width="13" height="13" rx="3" ry="3" fill="#161b22"/>
<rect x="122" y="113" width="13" height="13" rx="3" ry="3" fill="#161b22"/>
<rect x="138" y="17" width="13" height="13" rx="3" ry="3" fill="#161b22"/>
<rect x="138" y="33" width="13" height="13" rx="3" ry="3" fill="#161b22"/>
<rect x="138" y="49" width="13" height="13" rx="3" ry="3" fill="#161b22"/>
<rect x="138" y="65" width="13" height="13" rx="3" ry="3" fill="#161b22"/>
<rect x="138" y="81" width="13" height="13" rx="3" ry="3" fill="#161b22"/>
<rect x="138" y="97" width="13" height="13" rx="3" ry="3" fill="#161b22"/>
<rect x="138" y="113" width="13" height="13" rx="3" ry="3" fill="#161b22"/>
<rect x="154" y="17" width="13" height="13" rx="3" ry="3" fill="#161b22"/>
<rect x="154" y="33" width="13" height="13" rx="3" ry="3" fill="#161b22"/>
<rect x="154" y="49" width="13" height="13" rx="3" ry="3" fill="#161b22"/>
<rect x="154" y="65" width="13" height="13" rx="3" ry="3" fill="#161b22"/>
<rect x="154" y="81" width="13" height="13" rx="3" ry="3" fill="#161b22"/>
<rect x="154" y="97" width="13" height="13" rx="3" ry="3" fill="#161b22"/>
<rect x="154" y="113" width="13" height="13" rx="3" ry="3" fill="#161b22"/>
<rect x="170" y="17" width="13" height="13" rx="3" ry="3" fill="#161b22"/>
<rect x="170" y="33" width="13" height="13" rx="3" ry="3" fill="#161b22"/>
<rect x="170" y="49" width="13" height="13" rx="3" ry="3" fill="#161b22"/>
<rect x="170" y="65" width="13" height="13" rx="3" ry="3" fill="#161b22"/>
<rect x="170" y="81" width="13" height="13" rx="3" ry="3" fill="#161b22"/>
<rect x="170" y="97" width="13" height="13" rx="3" ry="3" fill="#161b22"/>
<rect x="170" y="113" width="13" height="13" rx="3" ry="3" fill="#161b22"/>
<rect x="186" y="17" width="13" height="13" rx="3" ry="3" fill="#161b22"/>
<rect x="186" y="33" width="13" height="13" rx="3" ry="3" fill="#161b22"/>
<rect x="186" y="49" width="13" height="13" rx="3" ry="3" fill="#161b22"/>
<rect x="186" y="65" width="13" height="13" rx="3" ry="3" fill="#161b22"/>
<rect x="186" y="81" width="13" height="13" rx="3" ry="3" fill="#161b22"/>
<rect x="186" y="97" width="13" height="13" rx="3" ry="3" fill="#161b22"/>
<rect x="186" y="113" width="13" height="13" rx="3" ry="3" fill="#161b22"/>
<rect x="202" y="17" width="13" height="13" rx="3" ry="3" fill="#161b22"/>
<rect x="202" y="33" width="13" height="13" rx="3" ry="3" fill="#161b22"/>
<rect x="202" y="49" width="13" height="13" rx="3" ry="3" fill="#161b22"/>
<rect x="202" y="65" width="13" height="13" rx="3" ry="3" fill="#161b22"/>
<rect x="202" y="81" width="13" height="13" rx="3" ry="3" fill="#161b22"/>
<rect x="202" y="97" width="13" height="13" rx="3" ry="3" fill="#161b22"/>
<rect x="202" y="113" width="13" height="13" rx="3" ry="3" fill="#161b22"/>
<rect x="218" y="17" width="13" height="13" rx="3" ry="3" fill="#161b22"/>
<rect x="218" y="33" width="13" height="13" rx="3" ry="3" fill="#161b22"/>
<rect x="218" y="49" width="13" height="13" rx="3" ry="3" fill="#161b22"/>
<rect x="218" y="65" width="13" height="13" rx="3" ry="3" fill="#161b22"/>
<rect x="218" y="81" width="13" height="13" rx="3" ry="3" fill="#161b22"/>
<rect x="218" y="97" width="13" height="13" rx="3" ry="3" fill="#161b22"/>
<rect x="218" y="113" width="13" height="13" rx="3" ry="3" fill="#161b22"/>
<rect x="234" y="17" width="13" height="13" rx="3" ry="3" fill="#161b22"/>
<rect x="234" y="33" width="13" height="13" rx="3" ry="3" fill="#161b22"/>
<rect x="234" y="49" width="13" height="13" rx="3" ry="3" fill="#161b22"/>
<rect x="234" y="65" width="13" height="13" rx="3" ry="3" fill="#161b22"/>
<rect x="234" y="81" width="13" height="13" rx="3" ry="3" fill="#161b22"/>
<rect x="234" y="97" width="13" height="13" rx="3" ry="3" fill="#161b22"/>
<rect x="234" y="113" width="13" height="13" rx="3" ry="3" fill="#161b22"/>
<rect x="250" y="17" width="13" height="13" rx="3" ry="3" fill="#161b22"/>
<rect x="250" y="33" width="13" height="13" rx="3" ry="3" fill="#161b22"/>
<rect x="250" y="49" width="13" height="13" rx="3" ry="3" fill="#161b22"/>
<rect x="250" y="65" width="13" height="13" rx="3" ry="3" fill="#161b22"/>
<rect x="250" y="81" width="13" height="13" rx="3" ry="3" fill="#161b22"/>
<rect x="250" y="97" width="13" height="13" rx="3" ry="3" fill="#161b22"/>
<rect x="250" y="113" width="13" height="13" rx="3" ry="3" fill="#161b22"/>
<rect x="266" y="17" width="13" height="13" rx="3" ry="3" fill="#161b22"/>
<rect x="266" y="33" width="13" height="13" rx="3" ry="3" fill="#161b22"/>
<rect x="266" y="49" width="13" height="13" rx="3" ry="3" fill="#161b22"/>
<rect x="266" y="65" width="13" height="13" rx="3" ry="3" fill="#161b22"/>
<rect x="266" y="81" width="13" height="13" rx="3" ry="3" fill="#161b22"/>
<rect x="266" y="97" width="13" height="13" rx="3" ry="3" fill="#161b22"/>
<rect x="266" y="113" width="13" height="13" rx="3" ry="3" fill="#161b22"/>
<rect x="282" y="17" width="13" height="13" rx="3" ry="3" fill="#161b22"/>
<rect x="282" y="33" width="13" height="13" rx="3" ry="3" fill="#161b22"/>
<rect x="282" y="49" width="13" height="13" rx="3" ry="3" fill="#161b22"/>
<rect x="282" y="65" width="13" height="13" rx="3" ry="3" fill="#161b22"/>
<rect x="282" y="81" width="13" height="13" rx="3" ry="3" fill="#161b22"/>
<rect x="282" y="97" width="13" height="13" rx="3" ry="3" fill="#161b22"/>
<rect x="282" y="113" width="13" height="13" rx="3" ry="3" fill="#161b22"/>
<rect x="298" y="17" width="13" height="13" rx="3" ry="3" fill="#161b22"/>
<rect x="298" y="33" width="13" height="13" rx="3" ry="3" fill="#161b22"/>
<rect x="298" y="49" width="13" height="13" rx="3" ry="3" fill="#161b22"/>
<rect x="298" y="65" width="13" height="13" rx="3" ry="3" fill="#161b22"/>
<rect x="298" y="81" width="13" height="13" rx="3" ry="3" fill="#161b22"/>
<rect x="298" y="97" width="13" height="13" rx="3" ry="3" fill="#161b22"/>
<rect x="298" y="113" width="13" height="13" rx="3" ry="3" fill="#161b22"/>
<rect x="314" y="17" width="13" height="13" rx="3" ry="3" fill="#161b22"/>
<rect x="314" y="33" width="13" height="13" rx="3" ry="3" fill="#161b22"/>
<rect x="314" y="49" width="13" height="13" rx="3" ry="3" fill="#161b22"/>
<rect x="314" y="65" width="13" height="13" rx="3" ry="3" fill="#161b22"/>
<rect x="314" y="81" width="13" height="13" rx="3" ry="3" fill="#161b22"/>
<rect x="314" y="97" width="13" height="13" rx="3" ry="3" fill="#161b22"/>
<rect x="314" y="113" width="13" height="13" rx="3" ry="3" fill="#161b22"/>
<rect x="330" y="17" width="13" height="13" rx="3" ry="3" fill="#161b22"/>
<rect x="330" y="33" width="13" height="13" rx="3" ry="3" fill="#161b22"/>
<rect x="330" y="49" width="13" height="13" rx="3" ry="3" fill="#161b22"/>
<rect x="330" y="65" width="13" height="13" rx="3" ry="3" fill="#161b22"/>
<rect x="330" y="81" width="13" height="13" rx="3" ry="3" fill="#161b22"/>
<rect x="330" y="97" width="13" height="13" rx="3" ry="3" fill="#161b22"/>
<rect x="330" y="113" width="13" height="13" rx="3" ry="3" fill="#161b22"/>
<rect x="346" y="17" width="13" height="13" rx="3" ry="3" fill="#161b22"/>
<rect x="346" y="33" width="13" height="13" rx="3" ry="3" fill="#161b22"/>
<rect x="346" y="49" width="13" height="13" rx="3" ry="3" fill="#161b22"/>
<rect x="346" y="65" width="13" height="13" rx="3" ry="3" fill="#161b22"/>
<rect x="346" y="81" width="13" height="13" rx="3" ry="3" fill="#161b22"/>
<rect x="346" y="97" width="13" height="13" rx="3" ry="3" fill="#161b22"/>
<rect x="346" y="113" width="13" height="13" rx="3" ry="3" fill="#161b22"/>
<rect x="362" y="17" width="13" height="13" rx="3" ry="3" fill="#161b22"/>
<rect x="362" y="33" width="13" height="13" rx="3" ry="3" fill="#161b22"/>
<rect x="362" y="49" width="13" height="13" rx="3" ry="3" fill="#161b22"/>
<rect x="362" y="65" width="13" height="13" rx="3" ry="3" fill="#161b22"/>
<rect x="362" y="81" width="13" height="13" rx="3" ry="3" fill="#161b22"/>
<rect x="362" y="97" width="13" height="13" rx="3" ry="3" fill="#161b22"/>
<rect x="362" y="113" width="13" height="13" rx="3" ry="3" fill="#161b22"/>
<rect x="378" y="17" width="13" height="13" rx="3" ry="3" fill="#161b22"/>
<rect x="378" y="33" width="13" height="13" rx="3" ry="3" fill="#161b22"/>
<rect x="378" y="49" width="13" height="13" rx="3" ry="3" fill="#161b22"/>
<rect x="378" y="65" width="13" height="13" rx="3" ry="3" fill="#161b22"/>
<rect x="378" y="81" width="13" height="13" rx="3" ry="3" fill="#161b22"/>
<rect x="378" y="97" width="13" height="13" rx="3" ry="3" fill="#161b22"/>
<rect x="378" y="113" width="13" height="13" rx="3" ry="3" fill="#161b22"/>
<rect x="394" y="17" width="13" height="13" rx="3" ry="3" fill="#161b22"/>
<rect x="394" y="33" width="13" height="13" rx="3" ry="3" fill="#161b22"/>
<rect x="394" y="49" width="13" height="13" rx="3" ry="3" fill="#161b22"/>
<rect x="394" y="65" width="13" height="13" rx="3" ry="3" fill="#161b22"/>
<rect x="394" y="81" width="13" height="13" rx="3" ry="3" fill="#161b22"/>
<rect x="394" y="97" width="13" height="13" rx="3" ry="3" fill="#161b22"/>
<rect x="394" y="113" width="13" height="13" rx="3" ry="3" fill="#161b22"/>
<rect x="410" y="17" width="13" height="13" rx="3" ry="3" fill="#161b22"/>
<rect x="410" y="33" width="13" height="13" rx="3" ry="3" fill="#161b22"/>
<rect x="410" y="49" width="13" height="13" rx="3" ry="3" fill="#161b22"/>
<rect x="410" y="65" width="13" height="13" rx="3" ry="3" fill="#161b22"/>
<rect x="410" y="81" width="13" height="13" rx="3" ry="3" fill="#161b22"/>
<rect x="410" y="97" width="13" height="13" rx="3" ry="3" fill="#161b22"/>
<rect x="410" y="113" width="13" height="13" rx="3" ry="3" fill="#161b22"/>
<rect x="426" y="17" width="13" height="13" rx="3" ry="3" fill="#161b22"/>
<rect x="426" y="33" width="13" height="13" rx="3" ry="3" fill="#161b22"/>
<rect x="426" y="49" width="13" height="13" rx="3" ry="3" fill="#161b22"/>
<rect x="426" y="65" width="13" height="13" rx="3" ry="3" fill="#161b22"/>
<rect x="426" y="81" width="13" height="13" rx="3" ry="3" fill="#161b22"/>
<rect x="426" y="97" width="13" height="13" rx="3" ry="3" fill="#161b22"/>
<rect x="426" y="113" width="13" height="13" rx="3" ry="3" fill="#161b22"/>
<rect x="442" y="17" width="13" height="13" rx="3" ry="3" fill="#161b22"/>
<rect x="442" y="33" width="13" height="13" rx="3" ry="3" fill="#161b22"/>
<rect x="442" y="49" width="13" height="13" rx="3" ry="3" fill="#161b22"/>
<rect x="442" y="65" width="13" height="13" rx="3" ry="3" fill="#161b22"/>
<rect x="442" y="81" width="13" height="13" rx="3" ry="3" fill="#161b22"/>
<rect x="442" y="97" width="13" height="13" rx="3" ry="3" fill="#161b22"/>
<rect x="442" y="113" width="13" height="13" rx="3" ry="3" fill="#161b22"/>
<rect x="458" y="17" width="13" height="13" rx="3" ry="3" fill="#161b22"/>
<rect x="458" y="33" width="13" height="13" rx="3" ry="3" fill="#0e4429"/>
<rect x="458" y="49" width="13" height="13" rx="3" ry="3" fill="#161b22"/>
<rect x="458" y="65" width="13" height="13" rx="3" ry="3" fill="#161b22"/>
<rect x="458" y="81" width="13" height="13" rx="3" ry="3" fill="#161b22"/>
<rect x="458" y="97" width="13" height="13" rx="3" ry="3" fill="#006d32"/>
<rect x="458" y="113" width="13" height="13" rx="3" ry="3" fill="#0e4429"/>
<rect x="474" y="17" width="13" height="13" rx="3" ry="3" fill="#161b22"/>
<rect x="474" y="33" width="13" height="13" rx="3" ry="3" fill="#0e4429"/>
<rect x="474" y="49" width="13" height="13" rx="3" ry="3" fill="#161b22"/>
<rect x="474" y="65" width="13" height="13" rx="3" ry="3" fill="#161b22"/>
<rect x="474" y="81" width="13" height="13" rx="3" ry="3" fill="#161b22"/>
<rect x="474" y="97" width="13" height="13" rx="3" ry="3" fill="#0e4429"/>
<rect x="474" y="113" width="13" height="13" rx="3" ry="3" fill="#161b22"/>
<rect x="490" y="17" width="13" height="13" rx="3" ry="3" fill="#0e4429"/>
<rect x="490" y="33" width="13" height="13" rx="3" ry="3" fill="#0e4429"/>
<rect x="490" y="49" width="13" height="13" rx="3" ry="3" fill="#0e4429"/>
<rect x="490" y="65" width="13" height="13" rx="3" ry="3" fill="#161b22"/>
<rect x="490" y="81" width="13" height="13" rx="3" ry="3" fill="#0e4429"/>
<rect x="490" y="97" width="13" height="13" rx="3" ry="3" fill="#161b22"/>
<rect x="490" y="113" width="13" height="13" rx="3" ry="3" fill="#006d32"/>
<rect x="506" y="17" width="13" height="13" rx="3" ry="3" fill="#161b22"/>
<rect x="506" y="33" width="13" height="13" rx="3" ry="3" fill="#161b22"/>
<rect x="506" y="49" width="13" height="13" rx="3" ry="3" fill="#0e4429"/>
<rect x="506" y="65" width="13" height="13" rx="3" ry="3" fill="#161b22"/>
<rect x="506" y="81" width="13" height="13" rx="3" ry="3" fill="#161b22"/>
<rect x="506" y="97" width="13" height="13" rx="3" ry="3" fill="#006d32"/>
<rect x="506" y="113" width="13" height="13" rx="3" ry="3" fill="#0e4429"/>
<rect x="522" y="17" width="13" height="13" rx="3" ry="3" fill="#0e4429"/>
<rect x="522" y="33" width="13" height="13" rx="3" ry="3" fill="#161b22"/>
<rect x="522" y="49" width="13" height="13" rx="3" ry="3" fill="#161b22"/>
<rect x="522" y="65" width="13" height="13" rx="3" ry="3" fill="#006d32"/>
<rect x="522" y="81" width="13" height="13" rx="3" ry="3" fill="#161b22"/>
<rect x="522" y="97" width="13" height="13" rx="3" ry="3" fill="#161b22"/>
<rect x="522" y="113" width="13" height="13" rx="3" ry="3" fill="#161b22"/>
<rect x="538" y="17" width="13" height="13" rx="3" ry="3" fill="#161b22"/>
<rect x="538" y="33" width="13" height="13" rx="3" ry="3" fill="#0e4429"/>
<rect x="538" y="49" width="13" height="13" rx="3" ry="3" fill="#0e4429"/>
<rect x="538" y="65" width="13" height="13" rx="3" ry="3" fill="#0e4429"/>
<rect x="538" y="81" width="13" height="13" rx="3" ry="3" fill="#161b22"/>
<rect x="538" y="97" width="13" height="13" rx="3" ry="3" fill="#006d32"/>
<rect x="538" y="113" width="13" height="13" rx="3" ry="3" fill="#0e4429"/>
<rect x="554" y="17" width="13" height="13" rx="3" ry="3" fill="#0e4429"/>
<rect x="554" y="33" width="13" height="13" rx="3" ry="3" fill="#0e4429"/>
<rect x="554" y="49" width="13" height="13" rx="3" ry="3" fill="#161b22"/>
<rect x="554" y="65" width="13" height="13" rx="3" ry="3" fill="#006d32"/>
<rect x="554" y="81" width="13" height="13" rx="3" ry="3" fill="#0e4429"/>
<rect x="554" y="97" width="13" height="13" rx="3" ry="3" fill="#0e4429"/>
<rect x="554" y="113" width="13" height="13" rx="3" ry="3" fill="#161b22"/>
<rect x="570" y="17" width="13" height="13" rx="3" ry="3" fill="#161b22"/>
<rect x="570" y="33" width="13" height="13" rx="3" ry="3" fill="#161b22"/>
<rect x="570" y="49" width="13" height="13" rx="3" ry="3" fill="#161b22"/>
<rect x="570" y="65" width="13" height="13" rx="3" ry="3" fill="#161b22"/>
<rect x="570" y="81" width="13" height="13" rx="3" ry="3" fill="#161b22"/>
<rect x="570" y="97" width="13" height="13" rx="3" ry="3" fill="#161b22"/>
<rect x="570" y="113" width="13" height="13" rx="3" ry="3" fill="#161b22"/>
<rect x="586" y="17" width="13" height="13" rx="3" ry="3" fill="#006d32"/>
<rect x="586" y="33" width="13" height="13" rx="3" ry="3" fill="#161b22"/>
<rect x="586" y="49" width="13" height="13" rx="3" ry="3" fill="#161b22"/>
<rect x="586" y="65" width="13" height="13" rx="3" ry="3" fill="#0e4429"/>
<rect x="586" y="81" width="13" height="13" rx="3" ry="3" fill="#0e4429"/>
<rect x="586" y="97" width="13" height="13" rx="3" ry="3" fill="#161b22"/>
<rect x="586" y="113" width="13" height="13" rx="3" ry="3" fill="#006d32"/>
<rect x="602" y="17" width="13" height="13" rx="3" ry="3" fill="#161b22"/>
<rect x="602" y="33" width="13" height="13" rx="3" ry="3" fill="#0e4429"/>
<rect x="602" y="49" width="13" height="13" rx="3" ry="3" fill="#161b22"/>
<rect x="602" y="65" width="13" height="13" rx="3" ry="3" fill="#0e4429"/>
<rect x="602" y="81" width="13" height="13" rx="3" ry="3" fill="#161b22"/>
<rect x="602" y="97" width="13" height="13" rx="3" ry="3" fill="#161b22"/>
<rect x="602" y="113" width="13" height="13" rx="3" ry="3" fill="#006d32"/>
<rect x="618" y="17" width="13" height="13" rx="3" ry="3" fill="#0e4429"/>
<rect x="618" y="33" width="13" height="13" rx="3" ry="3" fill="#0e4429"/>
<rect x="618" y="49" width="13" height="13" rx="3" ry="3" fill="#161b22"/>
<rect x="618" y="65" width="13" height="13" rx="3" ry="3" fill="#006d32"/>
<rect x="618" y="81" width="13" height="13" rx="3" ry="3" fill="#0e4429"/>
<rect x="618" y="97" width="13" height="13" rx="3" ry="3" fill="#161b22"/>
<rect x="618" y="113" width="13" height="13" rx="3" ry="3" fill="#161b22"/>
<rect x="634" y="17" width="13" height="13" rx="3" ry="3" fill="#161b22"/>
<rect x="634" y="33" width="13" height="13" rx="3" ry="3" fill="#161b22"/>
<rect x="634" y="49" width="13" height="13" rx="3" ry="3" fill="#0e4429"/>
<rect x="634" y="65" width="13" height="13" rx="3" ry="3" fill="#161b22"/>
<rect x="634" y="81" width="13" height="13" rx="3" ry="3" fill="#0e4429"/>
<rect x="634" y="97" width="13" height="13" rx="3" ry="3" fill="#161b22"/>
<rect x="634" y="113" width="13" height="13" rx="3" ry="3" fill="#161b22"/>
<rect x="650" y="17" width="13" height="13" rx="3" ry="3" fill="#0e4429"/>
<rect x="650" y="33" width="13" height="13" rx="3" ry="3" fill="#161b22"/>
<rect x="650" y="49" width="13" height="13" rx="3" ry="3" fill="#161b22"/>
<rect x="650" y="65" width="13" height="13" rx="3" ry="3" fill="#161b22"/>
<rect x="650" y="81" width="13" height="13" rx="3" ry="3" fill="#0e4429"/>
<rect x="650" y="97" width="13" height="13" rx="3" ry="3" fill="#161b22"/>
<rect x="650" y="113" width="13" height="13" rx="3" ry="3" fill="#0e4429"/>
<rect x="666" y="17" width="13" height="13" rx="3" ry="3" fill="#161b22"/>
<rect x="666" y="33" width="13" height="13" rx="3" ry="3" fill="#0e4429"/>
<rect x="666" y="49" width="13" height="13" rx="3" ry="3" fill="#0e4429"/>
<rect x="666" y="65" width="13" height="13" rx="3" ry="3" fill="#006d32"/>
<rect x="666" y="81" width="13" height="13" rx="3" ry="3" fill="#0e4429"/>
<rect x="666" y="97" width="13" height="13" rx="3" ry="3" fill="#161b22"/>
<rect x="666" y="113" width="13" height="13" rx="3" ry="3" fill="#161b22"/>
<rect x="682" y="17" width="13" height="13" rx="3" ry="3" fill="#0e4429"/>
<rect x="682" y="33" width="13" height="13" rx="3" ry="3" fill="#0e4429"/>
<rect x="682" y="49" width="13" height="13" rx="3" ry="3" fill="#0e4429"/>
<rect x="682" y="65" width="13" height="13" rx="3" ry="3" fill="#161b22"/>
<rect x="682" y="81" width="13" height="13" rx="3" ry="3" fill="#161b22"/>
<rect x="682" y="97" width="13" height="13" rx="3" ry="3" fill="#161b22"/>
<rect x="682" y="113" width="13" height="13" rx="3" ry="3" fill="#161b22"/>
<rect x="698" y="17" width="13" height="13" rx="3" ry="3" fill="#161b22"/>
<rect x="698" y="33" width="13" height="13" rx="3" ry="3" fill="#006d32"/>
<rect x="698" y="49" width="13" height="13" rx="3" ry="3" fill="#161b22"/>
<rect x="698" y="65" width="13" height="13" rx="3" ry="3" fill="#0e4429"/>
<rect x="698" y="81" width="13" height="13" rx="3" ry="3" fill="#161b22"/>
<rect x="698" y="97" width="13" height="13" rx="3" ry="3" fill="#161b22"/>
<rect x="698" y="113" width="13" height="13" rx="3" ry="3" fill="#161b22"/>
<rect x="714" y="17" width="13" height="13" rx="3" ry="3" fill="#0e4429"/>
<rect x="714" y="33" width="13" height="13" rx="3" ry="3" fill="#0e4429"/>
<rect x="714" y="49" width="13" height="13" rx="3" ry="3" fill="#161b22"/>
<rect x="714" y="65" width="13" height="13" rx="3" ry="3" fill="#0e4429"/>
<rect x="714" y="81" width="13" height="13" rx="3" ry="3" fill="#006d32"/>
<rect x="714" y="97" width="13" height="13" rx="3" ry="3" fill="#0e4429"/>
<rect x="714" y="113" width="13" height="13" rx="3" ry="3" fill="#0e4429"/>
<rect x="730" y="17" width="13" height="13" rx="3" ry="3" fill="#161b22"/>
<rect x="730" y="33" width="13" height="13" rx="3" ry="3" fill="#006d32"/>
<rect x="730" y="49" width="13" height="13" rx="3" ry="3" fill="#006d32"/>
<rect x="730" y="65" width="13" height="13" rx="3" ry="3" fill="#161b22"/>
<rect x="730" y="81" width="13" height="13" rx="3" ry="3" fill="#0e4429"/>
<rect x="730" y="97" width="13" height="13" rx="3" ry="3" fill="#161b22"/>
<rect x="730" y="113" width="13" height="13" rx="3" ry="3" fill="#006d32"/>
<rect x="746" y="17" width="13" height="13" rx="3" ry="3" fill="#161b22"/>
<rect x="746" y="33" width="13" height="13" rx="3" ry="3" fill="#0e4429"/>
<rect x="746" y="49" width="13" height="13" rx="3" ry="3" fill="#0e4429"/>
<rect x="746" y="65" width="13" height="13" rx="3" ry="3" fill="#161b22"/>
<rect x="746" y="81" width="13" height="13" rx="3" ry="3" fill="#161b22"/>
<rect x="746" y="97" width="13" height="13" rx="3" ry="3" fill="#006d32"/>
<rect x="746" y="113" width="13" height="13" rx="3" ry="3" fill="#0e4429"/>
<rect x="762" y="17" width="13" height="13" rx="3" ry="3" fill="#0e4429"/>
<rect x="762" y="33" width="13" height="13" rx="3" ry="3" fill="#0e4429"/>
<rect x="762" y="49" width="13" height="13" rx="3" ry="3" fill="#0e4429"/>
<rect x="762" y="65" width="13" height="13" rx="3" ry="3" fill="#161b22"/>
<rect x="762" y="81" width="13" height="13" rx="3" ry="3" fill="#161b22"/>
<rect x="762" y="97" width="13" height="13" rx="3" ry="3" fill="#0e4429"/>
<rect x="762" y="113" width="13" height="13" rx="3" ry="3" fill="#161b22"/>
<rect x="778" y="17" width="13" height="13" rx="3" ry="3" fill="#0e4429"/>
<rect x="778" y="33" width="13" height="13" rx="3" ry="3" fill="#0e4429"/>
<rect x="778" y="49" width="13" height="13" rx="3" ry="3" fill="#161b22"/>
<rect x="778" y="65" width="13" height="13" rx="3" ry="3" fill="#161b22"/>
<rect x="778" y="81" width="13" height="13" rx="3" ry="3" fill="#161b22"/>
<rect x="778" y="97" width="13" height="13" rx="3" ry="3" fill="#0e4429"/>
<rect x="778" y="113" width="13" height="13" rx="3" ry="3" fill="#39d353"/>
<rect x="794" y="17" width="13" height="13" rx="3" ry="3" fill="#39d353"/>
<rect x="794" y="33" width="13" height="13" rx="3" ry="3" fill="#0e4429"/>
<rect x="794" y="49" width="13" height="13" rx="3" ry="3" fill="#39d353"/>
<rect x="794" y="65" width="13" height="13" rx="3" ry="3" fill="#39d353"/>
<rect x="794" y="81" width="13" height="13" rx="3" ry="3" fill="#26a641"/>
<rect x="794" y="97" width="13" height="13" rx="3" ry="3" fill="#0e4429"/>
<rect x="794" y="113" width="13" height="13" rx="3" ry="3" fill="#006d32"/>
<rect x="810" y="17" width="13" height="13" rx="3" ry="3" fill="#006d32"/>
<rect x="810" y="33" width="13" height="13" rx="3" ry="3" fill="#161b22"/>
<rect x="810" y="49" width="13" height="13" rx="3" ry="3" fill="#0e4429"/>
<rect x="810" y="65" width="13" height="13" rx="3" ry="3" fill="#0e4429"/>
<rect x="810" y="81" width="13" height="13" rx="3" ry="3" fill="#0e4429"/>
<rect x="810" y="97" width="13" height="13" rx="3" ry="3" fill="#39d353"/>
<rect x="810" y="113" width="13" height="13" rx="3" ry="3" fill="#39d353"/>
<rect x="826" y="17" width="13" height="13" rx="3" ry="3" fill="#26a641"/>
<rect x="826" y="33" width="13" height="13" rx="3" ry="3" fill="#39d353"/>
<rect x="826" y="49" width="13" height="13" rx="3" ry="3" fill="#39d353"/>
<rect x="826" y="65" width="13" height="13" rx="3" ry="3" fill="#26a641"/>
<rect x="826" y="81" width="13" height="13" rx="3" ry="3" fill="#39d353"/>
<rect x="826" y="97" width="13" height="13" rx="3" ry="3" fill="#39d353"/>
<rect x="826" y="113" width="13" height="13" rx="3" ry="3" fill="#39d353"/>
<rect x="842" y="17" width="13" height="13" rx="3" ry="3" fill="#39d353"/>
<rect x="842" y="33" width="13" height="13" rx="3" ry="3" fill="#26a641"/>
<rect x="842" y="49" width="13" height="13" rx="3" ry="3" fill="#39d353"/>
<rect x="842" y="65" width="13" height="13" rx="3" ry="3" fill="#39d353"/>
<rect x="842" y="81" width="13" height="13" rx="3" ry="3" fill="#26a641"/>
<rect x="842" y="97" width="13" height="13" rx="3" ry="3" fill="#006d32"/>
<rect x="842" y="113" width="13" height="13" rx="3" ry="3" fill="#0e4429"/>
<rect x="858" y="17" width="13" height="13" rx="3" ry="3" fill="#0e4429"/>
<rect x="858" y="33" width="13" height="13" rx="3" ry="3" fill="#006d32"/>
<rect x="858" y="49" width="13" height="13" rx="3" ry="3" fill="#39d353"/>
<rect x="858" y="65" width="13" height="13" rx="3" ry="3" fill="#161b22"/>
<text x="369.7" y="149" fill="#39d353" font-size="12" font-weight="bold">+4787</text>
<text x="410.7" y="149" fill="#c9d1d9" font-size="12">contributions</text>
</svg>